G04 #@! TF.GenerationSoftware,KiCad,Pcbnew,5.1.5+dfsg1-2build2*
G04 #@! TF.CreationDate,2021-09-26T21:55:54+09:00*
G04 #@! TF.ProjectId,kbtest,6b627465-7374-42e6-9b69-6361645f7063,rev?*
G04 #@! TF.SameCoordinates,Original*
G04 #@! TF.FileFunction,Soldermask,Bot*
G04 #@! TF.FilePolarity,Negative*
%FSLAX46Y46*%
G04 Gerber Fmt 4.6, Leading zero omitted, Abs format (unit mm)*
G04 Created by KiCad (PCBNEW 5.1.5+dfsg1-2build2) date 2021-09-26 21:55:54*
%MOMM*%
%LPD*%
G04 APERTURE LIST*
%ADD10C,0.100000*%
G04 APERTURE END LIST*
D10*
G36*
X41868254Y-95137818D02*
G01*
X42241511Y-95292426D01*
X42241513Y-95292427D01*
X42277937Y-95316765D01*
X42577436Y-95516884D01*
X42863116Y-95802564D01*
X43087574Y-96138489D01*
X43242182Y-96511746D01*
X43321000Y-96907993D01*
X43321000Y-97312007D01*
X43242182Y-97708254D01*
X43091293Y-98072532D01*
X43087573Y-98081513D01*
X42863116Y-98417436D01*
X42577436Y-98703116D01*
X42241513Y-98927573D01*
X42241512Y-98927574D01*
X42241511Y-98927574D01*
X41868254Y-99082182D01*
X41472007Y-99161000D01*
X41067993Y-99161000D01*
X40671746Y-99082182D01*
X40298489Y-98927574D01*
X40298488Y-98927574D01*
X40298487Y-98927573D01*
X39962564Y-98703116D01*
X39676884Y-98417436D01*
X39452427Y-98081513D01*
X39448707Y-98072532D01*
X39297818Y-97708254D01*
X39219000Y-97312007D01*
X39219000Y-96907993D01*
X39297818Y-96511746D01*
X39452426Y-96138489D01*
X39676884Y-95802564D01*
X39962564Y-95516884D01*
X40262063Y-95316765D01*
X40298487Y-95292427D01*
X40298489Y-95292426D01*
X40671746Y-95137818D01*
X41067993Y-95059000D01*
X41472007Y-95059000D01*
X41868254Y-95137818D01*
G37*
G36*
X63338254Y-95137818D02*
G01*
X63711511Y-95292426D01*
X63711513Y-95292427D01*
X63747937Y-95316765D01*
X64047436Y-95516884D01*
X64333116Y-95802564D01*
X64557574Y-96138489D01*
X64712182Y-96511746D01*
X64791000Y-96907993D01*
X64791000Y-97312007D01*
X64712182Y-97708254D01*
X64561293Y-98072532D01*
X64557573Y-98081513D01*
X64333116Y-98417436D01*
X64047436Y-98703116D01*
X63711513Y-98927573D01*
X63711512Y-98927574D01*
X63711511Y-98927574D01*
X63338254Y-99082182D01*
X62942007Y-99161000D01*
X62537993Y-99161000D01*
X62141746Y-99082182D01*
X61768489Y-98927574D01*
X61768488Y-98927574D01*
X61768487Y-98927573D01*
X61432564Y-98703116D01*
X61146884Y-98417436D01*
X60922427Y-98081513D01*
X60918707Y-98072532D01*
X60767818Y-97708254D01*
X60689000Y-97312007D01*
X60689000Y-96907993D01*
X60767818Y-96511746D01*
X60922426Y-96138489D01*
X61146884Y-95802564D01*
X61432564Y-95516884D01*
X61732063Y-95316765D01*
X61768487Y-95292427D01*
X61768489Y-95292426D01*
X62141746Y-95137818D01*
X62537993Y-95059000D01*
X62942007Y-95059000D01*
X63338254Y-95137818D01*
G37*
G36*
X57951981Y-96147468D02*
G01*
X58134151Y-96222926D01*
X58298100Y-96332473D01*
X58437527Y-96471900D01*
X58547074Y-96635849D01*
X58622532Y-96818019D01*
X58661000Y-97011410D01*
X58661000Y-97208590D01*
X58622532Y-97401981D01*
X58547074Y-97584151D01*
X58437527Y-97748100D01*
X58298100Y-97887527D01*
X58134151Y-97997074D01*
X57951981Y-98072532D01*
X57758591Y-98111000D01*
X57561409Y-98111000D01*
X57464715Y-98091766D01*
X57368019Y-98072532D01*
X57185849Y-97997074D01*
X57021900Y-97887527D01*
X56882473Y-97748100D01*
X56772926Y-97584151D01*
X56697468Y-97401981D01*
X56659000Y-97208590D01*
X56659000Y-97011410D01*
X56697468Y-96818019D01*
X56772926Y-96635849D01*
X56882473Y-96471900D01*
X57021900Y-96332473D01*
X57185849Y-96222926D01*
X57368019Y-96147468D01*
X57561409Y-96109000D01*
X57758591Y-96109000D01*
X57951981Y-96147468D01*
G37*
G36*
X36481981Y-96147468D02*
G01*
X36664151Y-96222926D01*
X36828100Y-96332473D01*
X36967527Y-96471900D01*
X37077074Y-96635849D01*
X37152532Y-96818019D01*
X37191000Y-97011410D01*
X37191000Y-97208590D01*
X37152532Y-97401981D01*
X37077074Y-97584151D01*
X36967527Y-97748100D01*
X36828100Y-97887527D01*
X36664151Y-97997074D01*
X36481981Y-98072532D01*
X36385285Y-98091766D01*
X36288591Y-98111000D01*
X36091409Y-98111000D01*
X35994715Y-98091766D01*
X35898019Y-98072532D01*
X35715849Y-97997074D01*
X35551900Y-97887527D01*
X35412473Y-97748100D01*
X35302926Y-97584151D01*
X35227468Y-97401981D01*
X35189000Y-97208590D01*
X35189000Y-97011410D01*
X35227468Y-96818019D01*
X35302926Y-96635849D01*
X35412473Y-96471900D01*
X35551900Y-96332473D01*
X35715849Y-96222926D01*
X35898019Y-96147468D01*
X36091409Y-96109000D01*
X36288591Y-96109000D01*
X36481981Y-96147468D01*
G37*
G36*
X46641981Y-96147468D02*
G01*
X46824151Y-96222926D01*
X46988100Y-96332473D01*
X47127527Y-96471900D01*
X47237074Y-96635849D01*
X47312532Y-96818019D01*
X47351000Y-97011410D01*
X47351000Y-97208590D01*
X47312532Y-97401981D01*
X47237074Y-97584151D01*
X47127527Y-97748100D01*
X46988100Y-97887527D01*
X46824151Y-97997074D01*
X46641981Y-98072532D01*
X46448591Y-98111000D01*
X46251409Y-98111000D01*
X46154715Y-98091766D01*
X46058019Y-98072532D01*
X45875849Y-97997074D01*
X45711900Y-97887527D01*
X45572473Y-97748100D01*
X45462926Y-97584151D01*
X45387468Y-97401981D01*
X45349000Y-97208590D01*
X45349000Y-97011410D01*
X45387468Y-96818019D01*
X45462926Y-96635849D01*
X45572473Y-96471900D01*
X45711900Y-96332473D01*
X45875849Y-96222926D01*
X46058019Y-96147468D01*
X46251409Y-96109000D01*
X46448591Y-96109000D01*
X46641981Y-96147468D01*
G37*
G36*
X68111981Y-96147468D02*
G01*
X68294151Y-96222926D01*
X68458100Y-96332473D01*
X68597527Y-96471900D01*
X68707074Y-96635849D01*
X68782532Y-96818019D01*
X68821000Y-97011410D01*
X68821000Y-97208590D01*
X68782532Y-97401981D01*
X68707074Y-97584151D01*
X68597527Y-97748100D01*
X68458100Y-97887527D01*
X68294151Y-97997074D01*
X68111981Y-98072532D01*
X67918591Y-98111000D01*
X67721409Y-98111000D01*
X67624715Y-98091766D01*
X67528019Y-98072532D01*
X67345849Y-97997074D01*
X67181900Y-97887527D01*
X67042473Y-97748100D01*
X66932926Y-97584151D01*
X66857468Y-97401981D01*
X66819000Y-97208590D01*
X66819000Y-97011410D01*
X66857468Y-96818019D01*
X66932926Y-96635849D01*
X67042473Y-96471900D01*
X67181900Y-96332473D01*
X67345849Y-96222926D01*
X67528019Y-96147468D01*
X67721409Y-96109000D01*
X67918591Y-96109000D01*
X68111981Y-96147468D01*
G37*
G36*
X37813097Y-93524069D02*
G01*
X37916032Y-93534207D01*
X38114146Y-93594305D01*
X38114149Y-93594306D01*
X38210975Y-93646061D01*
X38296729Y-93691897D01*
X38456765Y-93823235D01*
X38588103Y-93983271D01*
X38633939Y-94069025D01*
X38685694Y-94165851D01*
X38685695Y-94165854D01*
X38745793Y-94363968D01*
X38766085Y-94570000D01*
X38745793Y-94776032D01*
X38685695Y-94974146D01*
X38685694Y-94974149D01*
X38640340Y-95059000D01*
X38588103Y-95156729D01*
X38456765Y-95316765D01*
X38296729Y-95448103D01*
X38210975Y-95493939D01*
X38114149Y-95545694D01*
X38114146Y-95545695D01*
X37916032Y-95605793D01*
X37813097Y-95615931D01*
X37761631Y-95621000D01*
X37158369Y-95621000D01*
X37106903Y-95615931D01*
X37003968Y-95605793D01*
X36805854Y-95545695D01*
X36805851Y-95545694D01*
X36709025Y-95493939D01*
X36623271Y-95448103D01*
X36463235Y-95316765D01*
X36331897Y-95156729D01*
X36279660Y-95059000D01*
X36234306Y-94974149D01*
X36234305Y-94974146D01*
X36174207Y-94776032D01*
X36153915Y-94570000D01*
X36174207Y-94363968D01*
X36234305Y-94165854D01*
X36234306Y-94165851D01*
X36286061Y-94069025D01*
X36331897Y-93983271D01*
X36463235Y-93823235D01*
X36623271Y-93691897D01*
X36709025Y-93646061D01*
X36805851Y-93594306D01*
X36805854Y-93594305D01*
X37003968Y-93534207D01*
X37106903Y-93524069D01*
X37158369Y-93519000D01*
X37761631Y-93519000D01*
X37813097Y-93524069D01*
G37*
G36*
X59283097Y-93524069D02*
G01*
X59386032Y-93534207D01*
X59584146Y-93594305D01*
X59584149Y-93594306D01*
X59680975Y-93646061D01*
X59766729Y-93691897D01*
X59926765Y-93823235D01*
X60058103Y-93983271D01*
X60103939Y-94069025D01*
X60155694Y-94165851D01*
X60155695Y-94165854D01*
X60215793Y-94363968D01*
X60236085Y-94570000D01*
X60215793Y-94776032D01*
X60155695Y-94974146D01*
X60155694Y-94974149D01*
X60110340Y-95059000D01*
X60058103Y-95156729D01*
X59926765Y-95316765D01*
X59766729Y-95448103D01*
X59680975Y-95493939D01*
X59584149Y-95545694D01*
X59584146Y-95545695D01*
X59386032Y-95605793D01*
X59283097Y-95615931D01*
X59231631Y-95621000D01*
X58628369Y-95621000D01*
X58576903Y-95615931D01*
X58473968Y-95605793D01*
X58275854Y-95545695D01*
X58275851Y-95545694D01*
X58179025Y-95493939D01*
X58093271Y-95448103D01*
X57933235Y-95316765D01*
X57801897Y-95156729D01*
X57749660Y-95059000D01*
X57704306Y-94974149D01*
X57704305Y-94974146D01*
X57644207Y-94776032D01*
X57623915Y-94570000D01*
X57644207Y-94363968D01*
X57704305Y-94165854D01*
X57704306Y-94165851D01*
X57756061Y-94069025D01*
X57801897Y-93983271D01*
X57933235Y-93823235D01*
X58093271Y-93691897D01*
X58179025Y-93646061D01*
X58275851Y-93594306D01*
X58275854Y-93594305D01*
X58473968Y-93534207D01*
X58576903Y-93524069D01*
X58628369Y-93519000D01*
X59231631Y-93519000D01*
X59283097Y-93524069D01*
G37*
G36*
X44163097Y-90984069D02*
G01*
X44266032Y-90994207D01*
X44464146Y-91054305D01*
X44464149Y-91054306D01*
X44560975Y-91106061D01*
X44646729Y-91151897D01*
X44806765Y-91283235D01*
X44938103Y-91443271D01*
X44983939Y-91529025D01*
X45035694Y-91625851D01*
X45035695Y-91625854D01*
X45095793Y-91823968D01*
X45116085Y-92030000D01*
X45095793Y-92236032D01*
X45035695Y-92434146D01*
X45035694Y-92434149D01*
X44983939Y-92530975D01*
X44938103Y-92616729D01*
X44806765Y-92776765D01*
X44646729Y-92908103D01*
X44560975Y-92953939D01*
X44464149Y-93005694D01*
X44464146Y-93005695D01*
X44266032Y-93065793D01*
X44163097Y-93075931D01*
X44111631Y-93081000D01*
X43508369Y-93081000D01*
X43456903Y-93075931D01*
X43353968Y-93065793D01*
X43155854Y-93005695D01*
X43155851Y-93005694D01*
X43059025Y-92953939D01*
X42973271Y-92908103D01*
X42813235Y-92776765D01*
X42681897Y-92616729D01*
X42636061Y-92530975D01*
X42584306Y-92434149D01*
X42584305Y-92434146D01*
X42524207Y-92236032D01*
X42503915Y-92030000D01*
X42524207Y-91823968D01*
X42584305Y-91625854D01*
X42584306Y-91625851D01*
X42636061Y-91529025D01*
X42681897Y-91443271D01*
X42813235Y-91283235D01*
X42973271Y-91151897D01*
X43059025Y-91106061D01*
X43155851Y-91054306D01*
X43155854Y-91054305D01*
X43353968Y-90994207D01*
X43456903Y-90984069D01*
X43508369Y-90979000D01*
X44111631Y-90979000D01*
X44163097Y-90984069D01*
G37*
G36*
X65633097Y-90984069D02*
G01*
X65736032Y-90994207D01*
X65934146Y-91054305D01*
X65934149Y-91054306D01*
X66030975Y-91106061D01*
X66116729Y-91151897D01*
X66276765Y-91283235D01*
X66408103Y-91443271D01*
X66453939Y-91529025D01*
X66505694Y-91625851D01*
X66505695Y-91625854D01*
X66565793Y-91823968D01*
X66586085Y-92030000D01*
X66565793Y-92236032D01*
X66505695Y-92434146D01*
X66505694Y-92434149D01*
X66453939Y-92530975D01*
X66408103Y-92616729D01*
X66276765Y-92776765D01*
X66116729Y-92908103D01*
X66030975Y-92953939D01*
X65934149Y-93005694D01*
X65934146Y-93005695D01*
X65736032Y-93065793D01*
X65633097Y-93075931D01*
X65581631Y-93081000D01*
X64978369Y-93081000D01*
X64926903Y-93075931D01*
X64823968Y-93065793D01*
X64625854Y-93005695D01*
X64625851Y-93005694D01*
X64529025Y-92953939D01*
X64443271Y-92908103D01*
X64283235Y-92776765D01*
X64151897Y-92616729D01*
X64106061Y-92530975D01*
X64054306Y-92434149D01*
X64054305Y-92434146D01*
X63994207Y-92236032D01*
X63973915Y-92030000D01*
X63994207Y-91823968D01*
X64054305Y-91625854D01*
X64054306Y-91625851D01*
X64106061Y-91529025D01*
X64151897Y-91443271D01*
X64283235Y-91283235D01*
X64443271Y-91151897D01*
X64529025Y-91106061D01*
X64625851Y-91054306D01*
X64625854Y-91054305D01*
X64823968Y-90994207D01*
X64926903Y-90984069D01*
X64978369Y-90979000D01*
X65581631Y-90979000D01*
X65633097Y-90984069D01*
G37*
G36*
X85471000Y-79816000D02*
G01*
X82169000Y-79816000D01*
X82169000Y-77714000D01*
X85471000Y-77714000D01*
X85471000Y-79816000D01*
G37*
G36*
X63338254Y-73667818D02*
G01*
X63711511Y-73822426D01*
X63711513Y-73822427D01*
X64047436Y-74046884D01*
X64333116Y-74332564D01*
X64548154Y-74654390D01*
X64557574Y-74668489D01*
X64712182Y-75041746D01*
X64791000Y-75437993D01*
X64791000Y-75842007D01*
X64712182Y-76238254D01*
X64563840Y-76596384D01*
X64557573Y-76611513D01*
X64333116Y-76947436D01*
X64047436Y-77233116D01*
X63711513Y-77457573D01*
X63711512Y-77457574D01*
X63711511Y-77457574D01*
X63338254Y-77612182D01*
X62942007Y-77691000D01*
X62537993Y-77691000D01*
X62141746Y-77612182D01*
X61768489Y-77457574D01*
X61768488Y-77457574D01*
X61768487Y-77457573D01*
X61432564Y-77233116D01*
X61146884Y-76947436D01*
X60922427Y-76611513D01*
X60916160Y-76596384D01*
X60767818Y-76238254D01*
X60689000Y-75842007D01*
X60689000Y-75437993D01*
X60767818Y-75041746D01*
X60922426Y-74668489D01*
X60931847Y-74654390D01*
X61146884Y-74332564D01*
X61432564Y-74046884D01*
X61768487Y-73822427D01*
X61768489Y-73822426D01*
X62141746Y-73667818D01*
X62537993Y-73589000D01*
X62942007Y-73589000D01*
X63338254Y-73667818D01*
G37*
G36*
X41868254Y-73667818D02*
G01*
X42241511Y-73822426D01*
X42241513Y-73822427D01*
X42577436Y-74046884D01*
X42863116Y-74332564D01*
X43078154Y-74654390D01*
X43087574Y-74668489D01*
X43242182Y-75041746D01*
X43321000Y-75437993D01*
X43321000Y-75842007D01*
X43242182Y-76238254D01*
X43093840Y-76596384D01*
X43087573Y-76611513D01*
X42863116Y-76947436D01*
X42577436Y-77233116D01*
X42241513Y-77457573D01*
X42241512Y-77457574D01*
X42241511Y-77457574D01*
X41868254Y-77612182D01*
X41472007Y-77691000D01*
X41067993Y-77691000D01*
X40671746Y-77612182D01*
X40298489Y-77457574D01*
X40298488Y-77457574D01*
X40298487Y-77457573D01*
X39962564Y-77233116D01*
X39676884Y-76947436D01*
X39452427Y-76611513D01*
X39446160Y-76596384D01*
X39297818Y-76238254D01*
X39219000Y-75842007D01*
X39219000Y-75437993D01*
X39297818Y-75041746D01*
X39452426Y-74668489D01*
X39461847Y-74654390D01*
X39676884Y-74332564D01*
X39962564Y-74046884D01*
X40298487Y-73822427D01*
X40298489Y-73822426D01*
X40671746Y-73667818D01*
X41067993Y-73589000D01*
X41472007Y-73589000D01*
X41868254Y-73667818D01*
G37*
G36*
X91126564Y-74654389D02*
G01*
X91317833Y-74733615D01*
X91317835Y-74733616D01*
X91489973Y-74848635D01*
X91636365Y-74995027D01*
X91750505Y-75165849D01*
X91751385Y-75167167D01*
X91830611Y-75358436D01*
X91871000Y-75561484D01*
X91871000Y-75768516D01*
X91830611Y-75971564D01*
X91751385Y-76162833D01*
X91751384Y-76162835D01*
X91636365Y-76334973D01*
X91489973Y-76481365D01*
X91317835Y-76596384D01*
X91317834Y-76596385D01*
X91317833Y-76596385D01*
X91126564Y-76675611D01*
X90923516Y-76716000D01*
X90716484Y-76716000D01*
X90513436Y-76675611D01*
X90322167Y-76596385D01*
X90322166Y-76596385D01*
X90322165Y-76596384D01*
X90150027Y-76481365D01*
X90003635Y-76334973D01*
X89888616Y-76162835D01*
X89888615Y-76162833D01*
X89809389Y-75971564D01*
X89769000Y-75768516D01*
X89769000Y-75561484D01*
X89809389Y-75358436D01*
X89888615Y-75167167D01*
X89889496Y-75165849D01*
X90003635Y-74995027D01*
X90150027Y-74848635D01*
X90322165Y-74733616D01*
X90322167Y-74733615D01*
X90513436Y-74654389D01*
X90716484Y-74614000D01*
X90923516Y-74614000D01*
X91126564Y-74654389D01*
G37*
G36*
X76626564Y-74654389D02*
G01*
X76817833Y-74733615D01*
X76817835Y-74733616D01*
X76989973Y-74848635D01*
X77136365Y-74995027D01*
X77250505Y-75165849D01*
X77251385Y-75167167D01*
X77330611Y-75358436D01*
X77371000Y-75561484D01*
X77371000Y-75768516D01*
X77330611Y-75971564D01*
X77251385Y-76162833D01*
X77251384Y-76162835D01*
X77136365Y-76334973D01*
X76989973Y-76481365D01*
X76817835Y-76596384D01*
X76817834Y-76596385D01*
X76817833Y-76596385D01*
X76626564Y-76675611D01*
X76423516Y-76716000D01*
X76216484Y-76716000D01*
X76013436Y-76675611D01*
X75822167Y-76596385D01*
X75822166Y-76596385D01*
X75822165Y-76596384D01*
X75650027Y-76481365D01*
X75503635Y-76334973D01*
X75388616Y-76162835D01*
X75388615Y-76162833D01*
X75309389Y-75971564D01*
X75269000Y-75768516D01*
X75269000Y-75561484D01*
X75309389Y-75358436D01*
X75388615Y-75167167D01*
X75389496Y-75165849D01*
X75503635Y-74995027D01*
X75650027Y-74848635D01*
X75822165Y-74733616D01*
X75822167Y-74733615D01*
X76013436Y-74654389D01*
X76216484Y-74614000D01*
X76423516Y-74614000D01*
X76626564Y-74654389D01*
G37*
G36*
X36481981Y-74677468D02*
G01*
X36664151Y-74752926D01*
X36828100Y-74862473D01*
X36967527Y-75001900D01*
X37077074Y-75165849D01*
X37152532Y-75348019D01*
X37191000Y-75541410D01*
X37191000Y-75738590D01*
X37152532Y-75931981D01*
X37077074Y-76114151D01*
X36967527Y-76278100D01*
X36828100Y-76417527D01*
X36664151Y-76527074D01*
X36481981Y-76602532D01*
X36385285Y-76621766D01*
X36288591Y-76641000D01*
X36091409Y-76641000D01*
X35994715Y-76621766D01*
X35898019Y-76602532D01*
X35715849Y-76527074D01*
X35551900Y-76417527D01*
X35412473Y-76278100D01*
X35302926Y-76114151D01*
X35227468Y-75931981D01*
X35189000Y-75738590D01*
X35189000Y-75541410D01*
X35227468Y-75348019D01*
X35302926Y-75165849D01*
X35412473Y-75001900D01*
X35551900Y-74862473D01*
X35715849Y-74752926D01*
X35898019Y-74677468D01*
X36091409Y-74639000D01*
X36288591Y-74639000D01*
X36481981Y-74677468D01*
G37*
G36*
X57951981Y-74677468D02*
G01*
X58134151Y-74752926D01*
X58298100Y-74862473D01*
X58437527Y-75001900D01*
X58547074Y-75165849D01*
X58622532Y-75348019D01*
X58661000Y-75541410D01*
X58661000Y-75738590D01*
X58622532Y-75931981D01*
X58547074Y-76114151D01*
X58437527Y-76278100D01*
X58298100Y-76417527D01*
X58134151Y-76527074D01*
X57951981Y-76602532D01*
X57855285Y-76621766D01*
X57758591Y-76641000D01*
X57561409Y-76641000D01*
X57464715Y-76621766D01*
X57368019Y-76602532D01*
X57185849Y-76527074D01*
X57021900Y-76417527D01*
X56882473Y-76278100D01*
X56772926Y-76114151D01*
X56697468Y-75931981D01*
X56659000Y-75738590D01*
X56659000Y-75541410D01*
X56697468Y-75348019D01*
X56772926Y-75165849D01*
X56882473Y-75001900D01*
X57021900Y-74862473D01*
X57185849Y-74752926D01*
X57368019Y-74677468D01*
X57561409Y-74639000D01*
X57758591Y-74639000D01*
X57951981Y-74677468D01*
G37*
G36*
X68111981Y-74677468D02*
G01*
X68294151Y-74752926D01*
X68458100Y-74862473D01*
X68597527Y-75001900D01*
X68707074Y-75165849D01*
X68782532Y-75348019D01*
X68821000Y-75541410D01*
X68821000Y-75738590D01*
X68782532Y-75931981D01*
X68707074Y-76114151D01*
X68597527Y-76278100D01*
X68458100Y-76417527D01*
X68294151Y-76527074D01*
X68111981Y-76602532D01*
X68015285Y-76621766D01*
X67918591Y-76641000D01*
X67721409Y-76641000D01*
X67624715Y-76621766D01*
X67528019Y-76602532D01*
X67345849Y-76527074D01*
X67181900Y-76417527D01*
X67042473Y-76278100D01*
X66932926Y-76114151D01*
X66857468Y-75931981D01*
X66819000Y-75738590D01*
X66819000Y-75541410D01*
X66857468Y-75348019D01*
X66932926Y-75165849D01*
X67042473Y-75001900D01*
X67181900Y-74862473D01*
X67345849Y-74752926D01*
X67528019Y-74677468D01*
X67721409Y-74639000D01*
X67918591Y-74639000D01*
X68111981Y-74677468D01*
G37*
G36*
X46641981Y-74677468D02*
G01*
X46824151Y-74752926D01*
X46988100Y-74862473D01*
X47127527Y-75001900D01*
X47237074Y-75165849D01*
X47312532Y-75348019D01*
X47351000Y-75541410D01*
X47351000Y-75738590D01*
X47312532Y-75931981D01*
X47237074Y-76114151D01*
X47127527Y-76278100D01*
X46988100Y-76417527D01*
X46824151Y-76527074D01*
X46641981Y-76602532D01*
X46545285Y-76621766D01*
X46448591Y-76641000D01*
X46251409Y-76641000D01*
X46154715Y-76621766D01*
X46058019Y-76602532D01*
X45875849Y-76527074D01*
X45711900Y-76417527D01*
X45572473Y-76278100D01*
X45462926Y-76114151D01*
X45387468Y-75931981D01*
X45349000Y-75738590D01*
X45349000Y-75541410D01*
X45387468Y-75348019D01*
X45462926Y-75165849D01*
X45572473Y-75001900D01*
X45711900Y-74862473D01*
X45875849Y-74752926D01*
X46058019Y-74677468D01*
X46251409Y-74639000D01*
X46448591Y-74639000D01*
X46641981Y-74677468D01*
G37*
G36*
X76626564Y-72154389D02*
G01*
X76789543Y-72221897D01*
X76817835Y-72233616D01*
X76989973Y-72348635D01*
X77136365Y-72495027D01*
X77251385Y-72667167D01*
X77330611Y-72858436D01*
X77371000Y-73061484D01*
X77371000Y-73268516D01*
X77330611Y-73471564D01*
X77251385Y-73662833D01*
X77251384Y-73662835D01*
X77136365Y-73834973D01*
X76989973Y-73981365D01*
X76817835Y-74096384D01*
X76817834Y-74096385D01*
X76817833Y-74096385D01*
X76626564Y-74175611D01*
X76423516Y-74216000D01*
X76216484Y-74216000D01*
X76013436Y-74175611D01*
X75822167Y-74096385D01*
X75822166Y-74096385D01*
X75822165Y-74096384D01*
X75650027Y-73981365D01*
X75503635Y-73834973D01*
X75388616Y-73662835D01*
X75388615Y-73662833D01*
X75309389Y-73471564D01*
X75269000Y-73268516D01*
X75269000Y-73061484D01*
X75309389Y-72858436D01*
X75388615Y-72667167D01*
X75503635Y-72495027D01*
X75650027Y-72348635D01*
X75822165Y-72233616D01*
X75850457Y-72221897D01*
X76013436Y-72154389D01*
X76216484Y-72114000D01*
X76423516Y-72114000D01*
X76626564Y-72154389D01*
G37*
G36*
X37813097Y-72054069D02*
G01*
X37916032Y-72064207D01*
X38080175Y-72114000D01*
X38114149Y-72124306D01*
X38210975Y-72176061D01*
X38296729Y-72221897D01*
X38456765Y-72353235D01*
X38588103Y-72513271D01*
X38633939Y-72599025D01*
X38685694Y-72695851D01*
X38685695Y-72695854D01*
X38745793Y-72893968D01*
X38766085Y-73100000D01*
X38745793Y-73306032D01*
X38695579Y-73471564D01*
X38685694Y-73504149D01*
X38640340Y-73589000D01*
X38588103Y-73686729D01*
X38456765Y-73846765D01*
X38296729Y-73978103D01*
X38210975Y-74023939D01*
X38114149Y-74075694D01*
X38114146Y-74075695D01*
X37916032Y-74135793D01*
X37813097Y-74145931D01*
X37761631Y-74151000D01*
X37158369Y-74151000D01*
X37106903Y-74145931D01*
X37003968Y-74135793D01*
X36805854Y-74075695D01*
X36805851Y-74075694D01*
X36709025Y-74023939D01*
X36623271Y-73978103D01*
X36463235Y-73846765D01*
X36331897Y-73686729D01*
X36279660Y-73589000D01*
X36234306Y-73504149D01*
X36224421Y-73471564D01*
X36174207Y-73306032D01*
X36153915Y-73100000D01*
X36174207Y-72893968D01*
X36234305Y-72695854D01*
X36234306Y-72695851D01*
X36286061Y-72599025D01*
X36331897Y-72513271D01*
X36463235Y-72353235D01*
X36623271Y-72221897D01*
X36709025Y-72176061D01*
X36805851Y-72124306D01*
X36839825Y-72114000D01*
X37003968Y-72064207D01*
X37106903Y-72054069D01*
X37158369Y-72049000D01*
X37761631Y-72049000D01*
X37813097Y-72054069D01*
G37*
G36*
X59283097Y-72054069D02*
G01*
X59386032Y-72064207D01*
X59550175Y-72114000D01*
X59584149Y-72124306D01*
X59680975Y-72176061D01*
X59766729Y-72221897D01*
X59926765Y-72353235D01*
X60058103Y-72513271D01*
X60103939Y-72599025D01*
X60155694Y-72695851D01*
X60155695Y-72695854D01*
X60215793Y-72893968D01*
X60236085Y-73100000D01*
X60215793Y-73306032D01*
X60165579Y-73471564D01*
X60155694Y-73504149D01*
X60110340Y-73589000D01*
X60058103Y-73686729D01*
X59926765Y-73846765D01*
X59766729Y-73978103D01*
X59680975Y-74023939D01*
X59584149Y-74075694D01*
X59584146Y-74075695D01*
X59386032Y-74135793D01*
X59283097Y-74145931D01*
X59231631Y-74151000D01*
X58628369Y-74151000D01*
X58576903Y-74145931D01*
X58473968Y-74135793D01*
X58275854Y-74075695D01*
X58275851Y-74075694D01*
X58179025Y-74023939D01*
X58093271Y-73978103D01*
X57933235Y-73846765D01*
X57801897Y-73686729D01*
X57749660Y-73589000D01*
X57704306Y-73504149D01*
X57694421Y-73471564D01*
X57644207Y-73306032D01*
X57623915Y-73100000D01*
X57644207Y-72893968D01*
X57704305Y-72695854D01*
X57704306Y-72695851D01*
X57756061Y-72599025D01*
X57801897Y-72513271D01*
X57933235Y-72353235D01*
X58093271Y-72221897D01*
X58179025Y-72176061D01*
X58275851Y-72124306D01*
X58309825Y-72114000D01*
X58473968Y-72064207D01*
X58576903Y-72054069D01*
X58628369Y-72049000D01*
X59231631Y-72049000D01*
X59283097Y-72054069D01*
G37*
G36*
X77371000Y-71716000D02*
G01*
X75269000Y-71716000D01*
X75269000Y-69614000D01*
X77371000Y-69614000D01*
X77371000Y-71716000D01*
G37*
G36*
X91126564Y-69654389D02*
G01*
X91317833Y-69733615D01*
X91317835Y-69733616D01*
X91436993Y-69813235D01*
X91489973Y-69848635D01*
X91636365Y-69995027D01*
X91751385Y-70167167D01*
X91830611Y-70358436D01*
X91871000Y-70561484D01*
X91871000Y-70768516D01*
X91830611Y-70971564D01*
X91758056Y-71146728D01*
X91751384Y-71162835D01*
X91636365Y-71334973D01*
X91489973Y-71481365D01*
X91317835Y-71596384D01*
X91317834Y-71596385D01*
X91317833Y-71596385D01*
X91126564Y-71675611D01*
X90923516Y-71716000D01*
X90716484Y-71716000D01*
X90513436Y-71675611D01*
X90322167Y-71596385D01*
X90322166Y-71596385D01*
X90322165Y-71596384D01*
X90150027Y-71481365D01*
X90003635Y-71334973D01*
X89888616Y-71162835D01*
X89881944Y-71146728D01*
X89809389Y-70971564D01*
X89769000Y-70768516D01*
X89769000Y-70561484D01*
X89809389Y-70358436D01*
X89888615Y-70167167D01*
X90003635Y-69995027D01*
X90150027Y-69848635D01*
X90203007Y-69813235D01*
X90322165Y-69733616D01*
X90322167Y-69733615D01*
X90513436Y-69654389D01*
X90716484Y-69614000D01*
X90923516Y-69614000D01*
X91126564Y-69654389D01*
G37*
G36*
X44163097Y-69514069D02*
G01*
X44266032Y-69524207D01*
X44464146Y-69584305D01*
X44464149Y-69584306D01*
X44519702Y-69614000D01*
X44646729Y-69681897D01*
X44806765Y-69813235D01*
X44938103Y-69973271D01*
X44983939Y-70059025D01*
X45035694Y-70155851D01*
X45035695Y-70155854D01*
X45095793Y-70353968D01*
X45116085Y-70560000D01*
X45095793Y-70766032D01*
X45095039Y-70768516D01*
X45035694Y-70964149D01*
X44983939Y-71060975D01*
X44938103Y-71146729D01*
X44806765Y-71306765D01*
X44646729Y-71438103D01*
X44565791Y-71481365D01*
X44464149Y-71535694D01*
X44464146Y-71535695D01*
X44266032Y-71595793D01*
X44163097Y-71605931D01*
X44111631Y-71611000D01*
X43508369Y-71611000D01*
X43456903Y-71605931D01*
X43353968Y-71595793D01*
X43155854Y-71535695D01*
X43155851Y-71535694D01*
X43054209Y-71481365D01*
X42973271Y-71438103D01*
X42813235Y-71306765D01*
X42681897Y-71146729D01*
X42636061Y-71060975D01*
X42584306Y-70964149D01*
X42524961Y-70768516D01*
X42524207Y-70766032D01*
X42503915Y-70560000D01*
X42524207Y-70353968D01*
X42584305Y-70155854D01*
X42584306Y-70155851D01*
X42636061Y-70059025D01*
X42681897Y-69973271D01*
X42813235Y-69813235D01*
X42973271Y-69681897D01*
X43100298Y-69614000D01*
X43155851Y-69584306D01*
X43155854Y-69584305D01*
X43353968Y-69524207D01*
X43456903Y-69514069D01*
X43508369Y-69509000D01*
X44111631Y-69509000D01*
X44163097Y-69514069D01*
G37*
G36*
X65633097Y-69514069D02*
G01*
X65736032Y-69524207D01*
X65934146Y-69584305D01*
X65934149Y-69584306D01*
X65989702Y-69614000D01*
X66116729Y-69681897D01*
X66276765Y-69813235D01*
X66408103Y-69973271D01*
X66453939Y-70059025D01*
X66505694Y-70155851D01*
X66505695Y-70155854D01*
X66565793Y-70353968D01*
X66586085Y-70560000D01*
X66565793Y-70766032D01*
X66565039Y-70768516D01*
X66505694Y-70964149D01*
X66453939Y-71060975D01*
X66408103Y-71146729D01*
X66276765Y-71306765D01*
X66116729Y-71438103D01*
X66035791Y-71481365D01*
X65934149Y-71535694D01*
X65934146Y-71535695D01*
X65736032Y-71595793D01*
X65633097Y-71605931D01*
X65581631Y-71611000D01*
X64978369Y-71611000D01*
X64926903Y-71605931D01*
X64823968Y-71595793D01*
X64625854Y-71535695D01*
X64625851Y-71535694D01*
X64524209Y-71481365D01*
X64443271Y-71438103D01*
X64283235Y-71306765D01*
X64151897Y-71146729D01*
X64106061Y-71060975D01*
X64054306Y-70964149D01*
X63994961Y-70768516D01*
X63994207Y-70766032D01*
X63973915Y-70560000D01*
X63994207Y-70353968D01*
X64054305Y-70155854D01*
X64054306Y-70155851D01*
X64106061Y-70059025D01*
X64151897Y-69973271D01*
X64283235Y-69813235D01*
X64443271Y-69681897D01*
X64570298Y-69614000D01*
X64625851Y-69584306D01*
X64625854Y-69584305D01*
X64823968Y-69524207D01*
X64926903Y-69514069D01*
X64978369Y-69509000D01*
X65581631Y-69509000D01*
X65633097Y-69514069D01*
G37*
G36*
X85471000Y-68616000D02*
G01*
X82169000Y-68616000D01*
X82169000Y-66514000D01*
X85471000Y-66514000D01*
X85471000Y-68616000D01*
G37*
G36*
X32495142Y-58908242D02*
G01*
X32643101Y-58969529D01*
X32776255Y-59058499D01*
X32889501Y-59171745D01*
X32978471Y-59304899D01*
X33039758Y-59452858D01*
X33071000Y-59609925D01*
X33071000Y-59770075D01*
X33039758Y-59927142D01*
X32978472Y-60075098D01*
X32952555Y-60113886D01*
X32941004Y-60135497D01*
X32933891Y-60158946D01*
X32931489Y-60183332D01*
X32933891Y-60207718D01*
X32941004Y-60231167D01*
X32952555Y-60252778D01*
X32968101Y-60271720D01*
X32987042Y-60287265D01*
X33008653Y-60298816D01*
X33032102Y-60305929D01*
X33056488Y-60308331D01*
X33080874Y-60305929D01*
X33104323Y-60298816D01*
X33125932Y-60287266D01*
X33142900Y-60275929D01*
X33290858Y-60214642D01*
X33447925Y-60183400D01*
X33608075Y-60183400D01*
X33765142Y-60214642D01*
X33913100Y-60275929D01*
X33930068Y-60287266D01*
X33951678Y-60298817D01*
X33975127Y-60305929D01*
X33999513Y-60308331D01*
X34023900Y-60305929D01*
X34047348Y-60298815D01*
X34068959Y-60287264D01*
X34087901Y-60271719D01*
X34103446Y-60252776D01*
X34114997Y-60231166D01*
X34122109Y-60207717D01*
X34124511Y-60183331D01*
X34122109Y-60158944D01*
X34114995Y-60135496D01*
X34103445Y-60113886D01*
X34077528Y-60075098D01*
X34016242Y-59927142D01*
X33985000Y-59770075D01*
X33985000Y-59609925D01*
X34016242Y-59452858D01*
X34077529Y-59304899D01*
X34166499Y-59171745D01*
X34279745Y-59058499D01*
X34412899Y-58969529D01*
X34560858Y-58908242D01*
X34717925Y-58877000D01*
X34878075Y-58877000D01*
X35035142Y-58908242D01*
X35183101Y-58969529D01*
X35316255Y-59058499D01*
X35429501Y-59171745D01*
X35518471Y-59304899D01*
X35579758Y-59452858D01*
X35611000Y-59609925D01*
X35611000Y-59770075D01*
X35579758Y-59927142D01*
X35518472Y-60075098D01*
X35492555Y-60113886D01*
X35481004Y-60135497D01*
X35473891Y-60158946D01*
X35471489Y-60183332D01*
X35473891Y-60207718D01*
X35481004Y-60231167D01*
X35492555Y-60252778D01*
X35508101Y-60271720D01*
X35527042Y-60287265D01*
X35548653Y-60298816D01*
X35572102Y-60305929D01*
X35596488Y-60308331D01*
X35620874Y-60305929D01*
X35644323Y-60298816D01*
X35665932Y-60287266D01*
X35682900Y-60275929D01*
X35830858Y-60214642D01*
X35987925Y-60183400D01*
X36148075Y-60183400D01*
X36305142Y-60214642D01*
X36453100Y-60275929D01*
X36470068Y-60287266D01*
X36491678Y-60298817D01*
X36515127Y-60305929D01*
X36539513Y-60308331D01*
X36563900Y-60305929D01*
X36587348Y-60298815D01*
X36608959Y-60287264D01*
X36627901Y-60271719D01*
X36643446Y-60252776D01*
X36654997Y-60231166D01*
X36662109Y-60207717D01*
X36664511Y-60183331D01*
X36662109Y-60158944D01*
X36654995Y-60135496D01*
X36643445Y-60113886D01*
X36617528Y-60075098D01*
X36556242Y-59927142D01*
X36525000Y-59770075D01*
X36525000Y-59609925D01*
X36556242Y-59452858D01*
X36617529Y-59304899D01*
X36706499Y-59171745D01*
X36819745Y-59058499D01*
X36952899Y-58969529D01*
X37100858Y-58908242D01*
X37257925Y-58877000D01*
X37418075Y-58877000D01*
X37575142Y-58908242D01*
X37723101Y-58969529D01*
X37856255Y-59058499D01*
X37969501Y-59171745D01*
X38058471Y-59304899D01*
X38119758Y-59452858D01*
X38151000Y-59609925D01*
X38151000Y-59770075D01*
X38119758Y-59927142D01*
X38058472Y-60075098D01*
X38032555Y-60113886D01*
X38021004Y-60135497D01*
X38013891Y-60158946D01*
X38011489Y-60183332D01*
X38013891Y-60207718D01*
X38021004Y-60231167D01*
X38032555Y-60252778D01*
X38048101Y-60271720D01*
X38067042Y-60287265D01*
X38088653Y-60298816D01*
X38112102Y-60305929D01*
X38136488Y-60308331D01*
X38160874Y-60305929D01*
X38184323Y-60298816D01*
X38205932Y-60287266D01*
X38222900Y-60275929D01*
X38370858Y-60214642D01*
X38527925Y-60183400D01*
X38688075Y-60183400D01*
X38845142Y-60214642D01*
X38993100Y-60275929D01*
X39010068Y-60287266D01*
X39031678Y-60298817D01*
X39055127Y-60305929D01*
X39079513Y-60308331D01*
X39103900Y-60305929D01*
X39127348Y-60298815D01*
X39148959Y-60287264D01*
X39167901Y-60271719D01*
X39183446Y-60252776D01*
X39194997Y-60231166D01*
X39202109Y-60207717D01*
X39204511Y-60183331D01*
X39202109Y-60158944D01*
X39194995Y-60135496D01*
X39183445Y-60113886D01*
X39157528Y-60075098D01*
X39096242Y-59927142D01*
X39065000Y-59770075D01*
X39065000Y-59609925D01*
X39096242Y-59452858D01*
X39157529Y-59304899D01*
X39246499Y-59171745D01*
X39359745Y-59058499D01*
X39492899Y-58969529D01*
X39640858Y-58908242D01*
X39797925Y-58877000D01*
X39958075Y-58877000D01*
X40115142Y-58908242D01*
X40263101Y-58969529D01*
X40396255Y-59058499D01*
X40509501Y-59171745D01*
X40598471Y-59304899D01*
X40659758Y-59452858D01*
X40691000Y-59609925D01*
X40691000Y-59770075D01*
X40659758Y-59927142D01*
X40598472Y-60075098D01*
X40572555Y-60113886D01*
X40561004Y-60135497D01*
X40553891Y-60158946D01*
X40551489Y-60183332D01*
X40553891Y-60207718D01*
X40561004Y-60231167D01*
X40572555Y-60252778D01*
X40588101Y-60271720D01*
X40607042Y-60287265D01*
X40628653Y-60298816D01*
X40652102Y-60305929D01*
X40676488Y-60308331D01*
X40700874Y-60305929D01*
X40724323Y-60298816D01*
X40745932Y-60287266D01*
X40762900Y-60275929D01*
X40910858Y-60214642D01*
X41067925Y-60183400D01*
X41228075Y-60183400D01*
X41385142Y-60214642D01*
X41533100Y-60275929D01*
X41550068Y-60287266D01*
X41571678Y-60298817D01*
X41595127Y-60305929D01*
X41619513Y-60308331D01*
X41643900Y-60305929D01*
X41667348Y-60298815D01*
X41688959Y-60287264D01*
X41707901Y-60271719D01*
X41723446Y-60252776D01*
X41734997Y-60231166D01*
X41742109Y-60207717D01*
X41744511Y-60183331D01*
X41742109Y-60158944D01*
X41734995Y-60135496D01*
X41723445Y-60113886D01*
X41697528Y-60075098D01*
X41636242Y-59927142D01*
X41605000Y-59770075D01*
X41605000Y-59609925D01*
X41636242Y-59452858D01*
X41697529Y-59304899D01*
X41786499Y-59171745D01*
X41899745Y-59058499D01*
X42032899Y-58969529D01*
X42180858Y-58908242D01*
X42337925Y-58877000D01*
X42498075Y-58877000D01*
X42655142Y-58908242D01*
X42803101Y-58969529D01*
X42936255Y-59058499D01*
X43049501Y-59171745D01*
X43138471Y-59304899D01*
X43199758Y-59452858D01*
X43231000Y-59609925D01*
X43231000Y-59770075D01*
X43199758Y-59927142D01*
X43138472Y-60075098D01*
X43112555Y-60113886D01*
X43101004Y-60135497D01*
X43093891Y-60158946D01*
X43091489Y-60183332D01*
X43093891Y-60207718D01*
X43101004Y-60231167D01*
X43112555Y-60252778D01*
X43128101Y-60271720D01*
X43147042Y-60287265D01*
X43168653Y-60298816D01*
X43192102Y-60305929D01*
X43216488Y-60308331D01*
X43240874Y-60305929D01*
X43264323Y-60298816D01*
X43285932Y-60287266D01*
X43302900Y-60275929D01*
X43450858Y-60214642D01*
X43607925Y-60183400D01*
X43768075Y-60183400D01*
X43925142Y-60214642D01*
X44073100Y-60275929D01*
X44090068Y-60287266D01*
X44111678Y-60298817D01*
X44135127Y-60305929D01*
X44159513Y-60308331D01*
X44183900Y-60305929D01*
X44207348Y-60298815D01*
X44228959Y-60287264D01*
X44247901Y-60271719D01*
X44263446Y-60252776D01*
X44274997Y-60231166D01*
X44282109Y-60207717D01*
X44284511Y-60183331D01*
X44282109Y-60158944D01*
X44274995Y-60135496D01*
X44263445Y-60113886D01*
X44237528Y-60075098D01*
X44176242Y-59927142D01*
X44145000Y-59770075D01*
X44145000Y-59609925D01*
X44176242Y-59452858D01*
X44237529Y-59304899D01*
X44326499Y-59171745D01*
X44439745Y-59058499D01*
X44572899Y-58969529D01*
X44720858Y-58908242D01*
X44877925Y-58877000D01*
X45038075Y-58877000D01*
X45195142Y-58908242D01*
X45343101Y-58969529D01*
X45476255Y-59058499D01*
X45589501Y-59171745D01*
X45678471Y-59304899D01*
X45739758Y-59452858D01*
X45771000Y-59609925D01*
X45771000Y-59770075D01*
X45739758Y-59927142D01*
X45678472Y-60075098D01*
X45652555Y-60113886D01*
X45641004Y-60135497D01*
X45633891Y-60158946D01*
X45631489Y-60183332D01*
X45633891Y-60207718D01*
X45641004Y-60231167D01*
X45652555Y-60252778D01*
X45668101Y-60271720D01*
X45687042Y-60287265D01*
X45708653Y-60298816D01*
X45732102Y-60305929D01*
X45756488Y-60308331D01*
X45780874Y-60305929D01*
X45804323Y-60298816D01*
X45825932Y-60287266D01*
X45842900Y-60275929D01*
X45990858Y-60214642D01*
X46147925Y-60183400D01*
X46308075Y-60183400D01*
X46465142Y-60214642D01*
X46613100Y-60275929D01*
X46630068Y-60287266D01*
X46651678Y-60298817D01*
X46675127Y-60305929D01*
X46699513Y-60308331D01*
X46723900Y-60305929D01*
X46747348Y-60298815D01*
X46768959Y-60287264D01*
X46787901Y-60271719D01*
X46803446Y-60252776D01*
X46814997Y-60231166D01*
X46822109Y-60207717D01*
X46824511Y-60183331D01*
X46822109Y-60158944D01*
X46814995Y-60135496D01*
X46803445Y-60113886D01*
X46777528Y-60075098D01*
X46716242Y-59927142D01*
X46685000Y-59770075D01*
X46685000Y-59609925D01*
X46716242Y-59452858D01*
X46777529Y-59304899D01*
X46866499Y-59171745D01*
X46979745Y-59058499D01*
X47112899Y-58969529D01*
X47260858Y-58908242D01*
X47417925Y-58877000D01*
X47578075Y-58877000D01*
X47735142Y-58908242D01*
X47883101Y-58969529D01*
X48016255Y-59058499D01*
X48129501Y-59171745D01*
X48218471Y-59304899D01*
X48279758Y-59452858D01*
X48311000Y-59609925D01*
X48311000Y-59770075D01*
X48279758Y-59927142D01*
X48218472Y-60075098D01*
X48192555Y-60113886D01*
X48181004Y-60135497D01*
X48173891Y-60158946D01*
X48171489Y-60183332D01*
X48173891Y-60207718D01*
X48181004Y-60231167D01*
X48192555Y-60252778D01*
X48208101Y-60271720D01*
X48227042Y-60287265D01*
X48248653Y-60298816D01*
X48272102Y-60305929D01*
X48296488Y-60308331D01*
X48320874Y-60305929D01*
X48344323Y-60298816D01*
X48365932Y-60287266D01*
X48382900Y-60275929D01*
X48530858Y-60214642D01*
X48687925Y-60183400D01*
X48848075Y-60183400D01*
X49005142Y-60214642D01*
X49153100Y-60275929D01*
X49170068Y-60287266D01*
X49191678Y-60298817D01*
X49215127Y-60305929D01*
X49239513Y-60308331D01*
X49263900Y-60305929D01*
X49287348Y-60298815D01*
X49308959Y-60287264D01*
X49327901Y-60271719D01*
X49343446Y-60252776D01*
X49354997Y-60231166D01*
X49362109Y-60207717D01*
X49364511Y-60183331D01*
X49362109Y-60158944D01*
X49354995Y-60135496D01*
X49343445Y-60113886D01*
X49317528Y-60075098D01*
X49256242Y-59927142D01*
X49225000Y-59770075D01*
X49225000Y-59609925D01*
X49256242Y-59452858D01*
X49317529Y-59304899D01*
X49406499Y-59171745D01*
X49519745Y-59058499D01*
X49652899Y-58969529D01*
X49800858Y-58908242D01*
X49957925Y-58877000D01*
X50118075Y-58877000D01*
X50275142Y-58908242D01*
X50423101Y-58969529D01*
X50556255Y-59058499D01*
X50669501Y-59171745D01*
X50758471Y-59304899D01*
X50819758Y-59452858D01*
X50851000Y-59609925D01*
X50851000Y-59770075D01*
X50819758Y-59927142D01*
X50758472Y-60075098D01*
X50732555Y-60113886D01*
X50721004Y-60135497D01*
X50713891Y-60158946D01*
X50711489Y-60183332D01*
X50713891Y-60207718D01*
X50721004Y-60231167D01*
X50732555Y-60252778D01*
X50748101Y-60271720D01*
X50767042Y-60287265D01*
X50788653Y-60298816D01*
X50812102Y-60305929D01*
X50836488Y-60308331D01*
X50860874Y-60305929D01*
X50884323Y-60298816D01*
X50905932Y-60287266D01*
X50922900Y-60275929D01*
X51070858Y-60214642D01*
X51227925Y-60183400D01*
X51388075Y-60183400D01*
X51545142Y-60214642D01*
X51693100Y-60275929D01*
X51710068Y-60287266D01*
X51731678Y-60298817D01*
X51755127Y-60305929D01*
X51779513Y-60308331D01*
X51803900Y-60305929D01*
X51827348Y-60298815D01*
X51848959Y-60287264D01*
X51867901Y-60271719D01*
X51883446Y-60252776D01*
X51894997Y-60231166D01*
X51902109Y-60207717D01*
X51904511Y-60183331D01*
X51902109Y-60158944D01*
X51894995Y-60135496D01*
X51883445Y-60113886D01*
X51857528Y-60075098D01*
X51796242Y-59927142D01*
X51765000Y-59770075D01*
X51765000Y-59609925D01*
X51796242Y-59452858D01*
X51857529Y-59304899D01*
X51946499Y-59171745D01*
X52059745Y-59058499D01*
X52192899Y-58969529D01*
X52340858Y-58908242D01*
X52497925Y-58877000D01*
X52658075Y-58877000D01*
X52815142Y-58908242D01*
X52963101Y-58969529D01*
X53096255Y-59058499D01*
X53209501Y-59171745D01*
X53298471Y-59304899D01*
X53359758Y-59452858D01*
X53391000Y-59609925D01*
X53391000Y-59770075D01*
X53359758Y-59927142D01*
X53298472Y-60075098D01*
X53272555Y-60113886D01*
X53261004Y-60135497D01*
X53253891Y-60158946D01*
X53251489Y-60183332D01*
X53253891Y-60207718D01*
X53261004Y-60231167D01*
X53272555Y-60252778D01*
X53288101Y-60271720D01*
X53307042Y-60287265D01*
X53328653Y-60298816D01*
X53352102Y-60305929D01*
X53376488Y-60308331D01*
X53400874Y-60305929D01*
X53424323Y-60298816D01*
X53445932Y-60287266D01*
X53462900Y-60275929D01*
X53610858Y-60214642D01*
X53767925Y-60183400D01*
X53928075Y-60183400D01*
X54085142Y-60214642D01*
X54233100Y-60275929D01*
X54250068Y-60287266D01*
X54271678Y-60298817D01*
X54295127Y-60305929D01*
X54319513Y-60308331D01*
X54343900Y-60305929D01*
X54367348Y-60298815D01*
X54388959Y-60287264D01*
X54407901Y-60271719D01*
X54423446Y-60252776D01*
X54434997Y-60231166D01*
X54442109Y-60207717D01*
X54444511Y-60183331D01*
X54442109Y-60158944D01*
X54434995Y-60135496D01*
X54423445Y-60113886D01*
X54397528Y-60075098D01*
X54336242Y-59927142D01*
X54305000Y-59770075D01*
X54305000Y-59609925D01*
X54336242Y-59452858D01*
X54397529Y-59304899D01*
X54486499Y-59171745D01*
X54599745Y-59058499D01*
X54732899Y-58969529D01*
X54880858Y-58908242D01*
X55037925Y-58877000D01*
X55198075Y-58877000D01*
X55355142Y-58908242D01*
X55503101Y-58969529D01*
X55636255Y-59058499D01*
X55749501Y-59171745D01*
X55838471Y-59304899D01*
X55899758Y-59452858D01*
X55931000Y-59609925D01*
X55931000Y-59770075D01*
X55899758Y-59927142D01*
X55838472Y-60075098D01*
X55812555Y-60113886D01*
X55801004Y-60135497D01*
X55793891Y-60158946D01*
X55791489Y-60183332D01*
X55793891Y-60207718D01*
X55801004Y-60231167D01*
X55812555Y-60252778D01*
X55828101Y-60271720D01*
X55847042Y-60287265D01*
X55868653Y-60298816D01*
X55892102Y-60305929D01*
X55916488Y-60308331D01*
X55940874Y-60305929D01*
X55964323Y-60298816D01*
X55985932Y-60287266D01*
X56002900Y-60275929D01*
X56150858Y-60214642D01*
X56307925Y-60183400D01*
X56468075Y-60183400D01*
X56625142Y-60214642D01*
X56773100Y-60275929D01*
X56790068Y-60287266D01*
X56811678Y-60298817D01*
X56835127Y-60305929D01*
X56859513Y-60308331D01*
X56883900Y-60305929D01*
X56907348Y-60298815D01*
X56928959Y-60287264D01*
X56947901Y-60271719D01*
X56963446Y-60252776D01*
X56974997Y-60231166D01*
X56982109Y-60207717D01*
X56984511Y-60183331D01*
X56982109Y-60158944D01*
X56974995Y-60135496D01*
X56963445Y-60113886D01*
X56937528Y-60075098D01*
X56876242Y-59927142D01*
X56845000Y-59770075D01*
X56845000Y-59609925D01*
X56876242Y-59452858D01*
X56937529Y-59304899D01*
X57026499Y-59171745D01*
X57139745Y-59058499D01*
X57272899Y-58969529D01*
X57420858Y-58908242D01*
X57577925Y-58877000D01*
X57738075Y-58877000D01*
X57895142Y-58908242D01*
X58043101Y-58969529D01*
X58176255Y-59058499D01*
X58289501Y-59171745D01*
X58378471Y-59304899D01*
X58439758Y-59452858D01*
X58471000Y-59609925D01*
X58471000Y-59770075D01*
X58439758Y-59927142D01*
X58378472Y-60075098D01*
X58352555Y-60113886D01*
X58341004Y-60135497D01*
X58333891Y-60158946D01*
X58331489Y-60183332D01*
X58333891Y-60207718D01*
X58341004Y-60231167D01*
X58352555Y-60252778D01*
X58368101Y-60271720D01*
X58387042Y-60287265D01*
X58408653Y-60298816D01*
X58432102Y-60305929D01*
X58456488Y-60308331D01*
X58480874Y-60305929D01*
X58504323Y-60298816D01*
X58525932Y-60287266D01*
X58542900Y-60275929D01*
X58690858Y-60214642D01*
X58847925Y-60183400D01*
X59008075Y-60183400D01*
X59165142Y-60214642D01*
X59313100Y-60275929D01*
X59330068Y-60287266D01*
X59351678Y-60298817D01*
X59375127Y-60305929D01*
X59399513Y-60308331D01*
X59423900Y-60305929D01*
X59447348Y-60298815D01*
X59468959Y-60287264D01*
X59487901Y-60271719D01*
X59503446Y-60252776D01*
X59514997Y-60231166D01*
X59522109Y-60207717D01*
X59524511Y-60183331D01*
X59522109Y-60158944D01*
X59514995Y-60135496D01*
X59503445Y-60113886D01*
X59477528Y-60075098D01*
X59416242Y-59927142D01*
X59385000Y-59770075D01*
X59385000Y-59609925D01*
X59416242Y-59452858D01*
X59477529Y-59304899D01*
X59566499Y-59171745D01*
X59679745Y-59058499D01*
X59812899Y-58969529D01*
X59960858Y-58908242D01*
X60117925Y-58877000D01*
X60278075Y-58877000D01*
X60435142Y-58908242D01*
X60583101Y-58969529D01*
X60716255Y-59058499D01*
X60829501Y-59171745D01*
X60918471Y-59304899D01*
X60979758Y-59452858D01*
X61011000Y-59609925D01*
X61011000Y-59770075D01*
X60979758Y-59927142D01*
X60918472Y-60075098D01*
X60892555Y-60113886D01*
X60881004Y-60135497D01*
X60873891Y-60158946D01*
X60871489Y-60183332D01*
X60873891Y-60207718D01*
X60881004Y-60231167D01*
X60892555Y-60252778D01*
X60908101Y-60271720D01*
X60927042Y-60287265D01*
X60948653Y-60298816D01*
X60972102Y-60305929D01*
X60996488Y-60308331D01*
X61020874Y-60305929D01*
X61044323Y-60298816D01*
X61065932Y-60287266D01*
X61082900Y-60275929D01*
X61230858Y-60214642D01*
X61387925Y-60183400D01*
X61548075Y-60183400D01*
X61705142Y-60214642D01*
X61853101Y-60275929D01*
X61986255Y-60364899D01*
X62099501Y-60478145D01*
X62188471Y-60611299D01*
X62249758Y-60759258D01*
X62281000Y-60916325D01*
X62281000Y-61076475D01*
X62249758Y-61233542D01*
X62188471Y-61381501D01*
X62099501Y-61514655D01*
X61986255Y-61627901D01*
X61853101Y-61716871D01*
X61705142Y-61778158D01*
X61548075Y-61809400D01*
X61387925Y-61809400D01*
X61230858Y-61778158D01*
X61082899Y-61716871D01*
X60949745Y-61627901D01*
X60836499Y-61514655D01*
X60747529Y-61381501D01*
X60686242Y-61233542D01*
X60655000Y-61076475D01*
X60655000Y-60916325D01*
X60686242Y-60759258D01*
X60747528Y-60611302D01*
X60773445Y-60572514D01*
X60784996Y-60550903D01*
X60792109Y-60527454D01*
X60794511Y-60503068D01*
X60792109Y-60478682D01*
X60784996Y-60455233D01*
X60773445Y-60433622D01*
X60757899Y-60414680D01*
X60738958Y-60399135D01*
X60717347Y-60387584D01*
X60693898Y-60380471D01*
X60669512Y-60378069D01*
X60645126Y-60380471D01*
X60621677Y-60387584D01*
X60600068Y-60399134D01*
X60583100Y-60410471D01*
X60435142Y-60471758D01*
X60278075Y-60503000D01*
X60117925Y-60503000D01*
X59960858Y-60471758D01*
X59812900Y-60410471D01*
X59795932Y-60399134D01*
X59774322Y-60387583D01*
X59750873Y-60380471D01*
X59726487Y-60378069D01*
X59702100Y-60380471D01*
X59678652Y-60387585D01*
X59657041Y-60399136D01*
X59638099Y-60414681D01*
X59622554Y-60433624D01*
X59611003Y-60455234D01*
X59603891Y-60478683D01*
X59601489Y-60503069D01*
X59603891Y-60527456D01*
X59611005Y-60550904D01*
X59622555Y-60572514D01*
X59648472Y-60611302D01*
X59709758Y-60759258D01*
X59741000Y-60916325D01*
X59741000Y-61076475D01*
X59709758Y-61233542D01*
X59648471Y-61381501D01*
X59559501Y-61514655D01*
X59446255Y-61627901D01*
X59313101Y-61716871D01*
X59165142Y-61778158D01*
X59008075Y-61809400D01*
X58847925Y-61809400D01*
X58690858Y-61778158D01*
X58542899Y-61716871D01*
X58409745Y-61627901D01*
X58296499Y-61514655D01*
X58207529Y-61381501D01*
X58146242Y-61233542D01*
X58115000Y-61076475D01*
X58115000Y-60916325D01*
X58146242Y-60759258D01*
X58207528Y-60611302D01*
X58233445Y-60572514D01*
X58244996Y-60550903D01*
X58252109Y-60527454D01*
X58254511Y-60503068D01*
X58252109Y-60478682D01*
X58244996Y-60455233D01*
X58233445Y-60433622D01*
X58217899Y-60414680D01*
X58198958Y-60399135D01*
X58177347Y-60387584D01*
X58153898Y-60380471D01*
X58129512Y-60378069D01*
X58105126Y-60380471D01*
X58081677Y-60387584D01*
X58060068Y-60399134D01*
X58043100Y-60410471D01*
X57895142Y-60471758D01*
X57738075Y-60503000D01*
X57577925Y-60503000D01*
X57420858Y-60471758D01*
X57272900Y-60410471D01*
X57255932Y-60399134D01*
X57234322Y-60387583D01*
X57210873Y-60380471D01*
X57186487Y-60378069D01*
X57162100Y-60380471D01*
X57138652Y-60387585D01*
X57117041Y-60399136D01*
X57098099Y-60414681D01*
X57082554Y-60433624D01*
X57071003Y-60455234D01*
X57063891Y-60478683D01*
X57061489Y-60503069D01*
X57063891Y-60527456D01*
X57071005Y-60550904D01*
X57082555Y-60572514D01*
X57108472Y-60611302D01*
X57169758Y-60759258D01*
X57201000Y-60916325D01*
X57201000Y-61076475D01*
X57169758Y-61233542D01*
X57108471Y-61381501D01*
X57019501Y-61514655D01*
X56906255Y-61627901D01*
X56773101Y-61716871D01*
X56625142Y-61778158D01*
X56468075Y-61809400D01*
X56307925Y-61809400D01*
X56150858Y-61778158D01*
X56002899Y-61716871D01*
X55869745Y-61627901D01*
X55756499Y-61514655D01*
X55667529Y-61381501D01*
X55606242Y-61233542D01*
X55575000Y-61076475D01*
X55575000Y-60916325D01*
X55606242Y-60759258D01*
X55667528Y-60611302D01*
X55693445Y-60572514D01*
X55704996Y-60550903D01*
X55712109Y-60527454D01*
X55714511Y-60503068D01*
X55712109Y-60478682D01*
X55704996Y-60455233D01*
X55693445Y-60433622D01*
X55677899Y-60414680D01*
X55658958Y-60399135D01*
X55637347Y-60387584D01*
X55613898Y-60380471D01*
X55589512Y-60378069D01*
X55565126Y-60380471D01*
X55541677Y-60387584D01*
X55520068Y-60399134D01*
X55503100Y-60410471D01*
X55355142Y-60471758D01*
X55198075Y-60503000D01*
X55037925Y-60503000D01*
X54880858Y-60471758D01*
X54732900Y-60410471D01*
X54715932Y-60399134D01*
X54694322Y-60387583D01*
X54670873Y-60380471D01*
X54646487Y-60378069D01*
X54622100Y-60380471D01*
X54598652Y-60387585D01*
X54577041Y-60399136D01*
X54558099Y-60414681D01*
X54542554Y-60433624D01*
X54531003Y-60455234D01*
X54523891Y-60478683D01*
X54521489Y-60503069D01*
X54523891Y-60527456D01*
X54531005Y-60550904D01*
X54542555Y-60572514D01*
X54568472Y-60611302D01*
X54629758Y-60759258D01*
X54661000Y-60916325D01*
X54661000Y-61076475D01*
X54629758Y-61233542D01*
X54568471Y-61381501D01*
X54479501Y-61514655D01*
X54366255Y-61627901D01*
X54233101Y-61716871D01*
X54085142Y-61778158D01*
X53928075Y-61809400D01*
X53767925Y-61809400D01*
X53610858Y-61778158D01*
X53462899Y-61716871D01*
X53329745Y-61627901D01*
X53216499Y-61514655D01*
X53127529Y-61381501D01*
X53066242Y-61233542D01*
X53035000Y-61076475D01*
X53035000Y-60916325D01*
X53066242Y-60759258D01*
X53127528Y-60611302D01*
X53153445Y-60572514D01*
X53164996Y-60550903D01*
X53172109Y-60527454D01*
X53174511Y-60503068D01*
X53172109Y-60478682D01*
X53164996Y-60455233D01*
X53153445Y-60433622D01*
X53137899Y-60414680D01*
X53118958Y-60399135D01*
X53097347Y-60387584D01*
X53073898Y-60380471D01*
X53049512Y-60378069D01*
X53025126Y-60380471D01*
X53001677Y-60387584D01*
X52980068Y-60399134D01*
X52963100Y-60410471D01*
X52815142Y-60471758D01*
X52658075Y-60503000D01*
X52497925Y-60503000D01*
X52340858Y-60471758D01*
X52192900Y-60410471D01*
X52175932Y-60399134D01*
X52154322Y-60387583D01*
X52130873Y-60380471D01*
X52106487Y-60378069D01*
X52082100Y-60380471D01*
X52058652Y-60387585D01*
X52037041Y-60399136D01*
X52018099Y-60414681D01*
X52002554Y-60433624D01*
X51991003Y-60455234D01*
X51983891Y-60478683D01*
X51981489Y-60503069D01*
X51983891Y-60527456D01*
X51991005Y-60550904D01*
X52002555Y-60572514D01*
X52028472Y-60611302D01*
X52089758Y-60759258D01*
X52121000Y-60916325D01*
X52121000Y-61076475D01*
X52089758Y-61233542D01*
X52028471Y-61381501D01*
X51939501Y-61514655D01*
X51826255Y-61627901D01*
X51693101Y-61716871D01*
X51545142Y-61778158D01*
X51388075Y-61809400D01*
X51227925Y-61809400D01*
X51070858Y-61778158D01*
X50922899Y-61716871D01*
X50789745Y-61627901D01*
X50676499Y-61514655D01*
X50587529Y-61381501D01*
X50526242Y-61233542D01*
X50495000Y-61076475D01*
X50495000Y-60916325D01*
X50526242Y-60759258D01*
X50587528Y-60611302D01*
X50613445Y-60572514D01*
X50624996Y-60550903D01*
X50632109Y-60527454D01*
X50634511Y-60503068D01*
X50632109Y-60478682D01*
X50624996Y-60455233D01*
X50613445Y-60433622D01*
X50597899Y-60414680D01*
X50578958Y-60399135D01*
X50557347Y-60387584D01*
X50533898Y-60380471D01*
X50509512Y-60378069D01*
X50485126Y-60380471D01*
X50461677Y-60387584D01*
X50440068Y-60399134D01*
X50423100Y-60410471D01*
X50275142Y-60471758D01*
X50118075Y-60503000D01*
X49957925Y-60503000D01*
X49800858Y-60471758D01*
X49652900Y-60410471D01*
X49635932Y-60399134D01*
X49614322Y-60387583D01*
X49590873Y-60380471D01*
X49566487Y-60378069D01*
X49542100Y-60380471D01*
X49518652Y-60387585D01*
X49497041Y-60399136D01*
X49478099Y-60414681D01*
X49462554Y-60433624D01*
X49451003Y-60455234D01*
X49443891Y-60478683D01*
X49441489Y-60503069D01*
X49443891Y-60527456D01*
X49451005Y-60550904D01*
X49462555Y-60572514D01*
X49488472Y-60611302D01*
X49549758Y-60759258D01*
X49581000Y-60916325D01*
X49581000Y-61076475D01*
X49549758Y-61233542D01*
X49488471Y-61381501D01*
X49399501Y-61514655D01*
X49286255Y-61627901D01*
X49153101Y-61716871D01*
X49005142Y-61778158D01*
X48848075Y-61809400D01*
X48687925Y-61809400D01*
X48530858Y-61778158D01*
X48382899Y-61716871D01*
X48249745Y-61627901D01*
X48136499Y-61514655D01*
X48047529Y-61381501D01*
X47986242Y-61233542D01*
X47955000Y-61076475D01*
X47955000Y-60916325D01*
X47986242Y-60759258D01*
X48047528Y-60611302D01*
X48073445Y-60572514D01*
X48084996Y-60550903D01*
X48092109Y-60527454D01*
X48094511Y-60503068D01*
X48092109Y-60478682D01*
X48084996Y-60455233D01*
X48073445Y-60433622D01*
X48057899Y-60414680D01*
X48038958Y-60399135D01*
X48017347Y-60387584D01*
X47993898Y-60380471D01*
X47969512Y-60378069D01*
X47945126Y-60380471D01*
X47921677Y-60387584D01*
X47900068Y-60399134D01*
X47883100Y-60410471D01*
X47735142Y-60471758D01*
X47578075Y-60503000D01*
X47417925Y-60503000D01*
X47260858Y-60471758D01*
X47112900Y-60410471D01*
X47095932Y-60399134D01*
X47074322Y-60387583D01*
X47050873Y-60380471D01*
X47026487Y-60378069D01*
X47002100Y-60380471D01*
X46978652Y-60387585D01*
X46957041Y-60399136D01*
X46938099Y-60414681D01*
X46922554Y-60433624D01*
X46911003Y-60455234D01*
X46903891Y-60478683D01*
X46901489Y-60503069D01*
X46903891Y-60527456D01*
X46911005Y-60550904D01*
X46922555Y-60572514D01*
X46948472Y-60611302D01*
X47009758Y-60759258D01*
X47041000Y-60916325D01*
X47041000Y-61076475D01*
X47009758Y-61233542D01*
X46948471Y-61381501D01*
X46859501Y-61514655D01*
X46746255Y-61627901D01*
X46613101Y-61716871D01*
X46465142Y-61778158D01*
X46308075Y-61809400D01*
X46147925Y-61809400D01*
X45990858Y-61778158D01*
X45842899Y-61716871D01*
X45709745Y-61627901D01*
X45596499Y-61514655D01*
X45507529Y-61381501D01*
X45446242Y-61233542D01*
X45415000Y-61076475D01*
X45415000Y-60916325D01*
X45446242Y-60759258D01*
X45507528Y-60611302D01*
X45533445Y-60572514D01*
X45544996Y-60550903D01*
X45552109Y-60527454D01*
X45554511Y-60503068D01*
X45552109Y-60478682D01*
X45544996Y-60455233D01*
X45533445Y-60433622D01*
X45517899Y-60414680D01*
X45498958Y-60399135D01*
X45477347Y-60387584D01*
X45453898Y-60380471D01*
X45429512Y-60378069D01*
X45405126Y-60380471D01*
X45381677Y-60387584D01*
X45360068Y-60399134D01*
X45343100Y-60410471D01*
X45195142Y-60471758D01*
X45038075Y-60503000D01*
X44877925Y-60503000D01*
X44720858Y-60471758D01*
X44572900Y-60410471D01*
X44555932Y-60399134D01*
X44534322Y-60387583D01*
X44510873Y-60380471D01*
X44486487Y-60378069D01*
X44462100Y-60380471D01*
X44438652Y-60387585D01*
X44417041Y-60399136D01*
X44398099Y-60414681D01*
X44382554Y-60433624D01*
X44371003Y-60455234D01*
X44363891Y-60478683D01*
X44361489Y-60503069D01*
X44363891Y-60527456D01*
X44371005Y-60550904D01*
X44382555Y-60572514D01*
X44408472Y-60611302D01*
X44469758Y-60759258D01*
X44501000Y-60916325D01*
X44501000Y-61076475D01*
X44469758Y-61233542D01*
X44408471Y-61381501D01*
X44319501Y-61514655D01*
X44206255Y-61627901D01*
X44073101Y-61716871D01*
X43925142Y-61778158D01*
X43768075Y-61809400D01*
X43607925Y-61809400D01*
X43450858Y-61778158D01*
X43302899Y-61716871D01*
X43169745Y-61627901D01*
X43056499Y-61514655D01*
X42967529Y-61381501D01*
X42906242Y-61233542D01*
X42875000Y-61076475D01*
X42875000Y-60916325D01*
X42906242Y-60759258D01*
X42967528Y-60611302D01*
X42993445Y-60572514D01*
X43004996Y-60550903D01*
X43012109Y-60527454D01*
X43014511Y-60503068D01*
X43012109Y-60478682D01*
X43004996Y-60455233D01*
X42993445Y-60433622D01*
X42977899Y-60414680D01*
X42958958Y-60399135D01*
X42937347Y-60387584D01*
X42913898Y-60380471D01*
X42889512Y-60378069D01*
X42865126Y-60380471D01*
X42841677Y-60387584D01*
X42820068Y-60399134D01*
X42803100Y-60410471D01*
X42655142Y-60471758D01*
X42498075Y-60503000D01*
X42337925Y-60503000D01*
X42180858Y-60471758D01*
X42032900Y-60410471D01*
X42015932Y-60399134D01*
X41994322Y-60387583D01*
X41970873Y-60380471D01*
X41946487Y-60378069D01*
X41922100Y-60380471D01*
X41898652Y-60387585D01*
X41877041Y-60399136D01*
X41858099Y-60414681D01*
X41842554Y-60433624D01*
X41831003Y-60455234D01*
X41823891Y-60478683D01*
X41821489Y-60503069D01*
X41823891Y-60527456D01*
X41831005Y-60550904D01*
X41842555Y-60572514D01*
X41868472Y-60611302D01*
X41929758Y-60759258D01*
X41961000Y-60916325D01*
X41961000Y-61076475D01*
X41929758Y-61233542D01*
X41868471Y-61381501D01*
X41779501Y-61514655D01*
X41666255Y-61627901D01*
X41533101Y-61716871D01*
X41385142Y-61778158D01*
X41228075Y-61809400D01*
X41067925Y-61809400D01*
X40910858Y-61778158D01*
X40762899Y-61716871D01*
X40629745Y-61627901D01*
X40516499Y-61514655D01*
X40427529Y-61381501D01*
X40366242Y-61233542D01*
X40335000Y-61076475D01*
X40335000Y-60916325D01*
X40366242Y-60759258D01*
X40427528Y-60611302D01*
X40453445Y-60572514D01*
X40464996Y-60550903D01*
X40472109Y-60527454D01*
X40474511Y-60503068D01*
X40472109Y-60478682D01*
X40464996Y-60455233D01*
X40453445Y-60433622D01*
X40437899Y-60414680D01*
X40418958Y-60399135D01*
X40397347Y-60387584D01*
X40373898Y-60380471D01*
X40349512Y-60378069D01*
X40325126Y-60380471D01*
X40301677Y-60387584D01*
X40280068Y-60399134D01*
X40263100Y-60410471D01*
X40115142Y-60471758D01*
X39958075Y-60503000D01*
X39797925Y-60503000D01*
X39640858Y-60471758D01*
X39492900Y-60410471D01*
X39475932Y-60399134D01*
X39454322Y-60387583D01*
X39430873Y-60380471D01*
X39406487Y-60378069D01*
X39382100Y-60380471D01*
X39358652Y-60387585D01*
X39337041Y-60399136D01*
X39318099Y-60414681D01*
X39302554Y-60433624D01*
X39291003Y-60455234D01*
X39283891Y-60478683D01*
X39281489Y-60503069D01*
X39283891Y-60527456D01*
X39291005Y-60550904D01*
X39302555Y-60572514D01*
X39328472Y-60611302D01*
X39389758Y-60759258D01*
X39421000Y-60916325D01*
X39421000Y-61076475D01*
X39389758Y-61233542D01*
X39328471Y-61381501D01*
X39239501Y-61514655D01*
X39126255Y-61627901D01*
X38993101Y-61716871D01*
X38845142Y-61778158D01*
X38688075Y-61809400D01*
X38527925Y-61809400D01*
X38370858Y-61778158D01*
X38222899Y-61716871D01*
X38089745Y-61627901D01*
X37976499Y-61514655D01*
X37887529Y-61381501D01*
X37826242Y-61233542D01*
X37795000Y-61076475D01*
X37795000Y-60916325D01*
X37826242Y-60759258D01*
X37887528Y-60611302D01*
X37913445Y-60572514D01*
X37924996Y-60550903D01*
X37932109Y-60527454D01*
X37934511Y-60503068D01*
X37932109Y-60478682D01*
X37924996Y-60455233D01*
X37913445Y-60433622D01*
X37897899Y-60414680D01*
X37878958Y-60399135D01*
X37857347Y-60387584D01*
X37833898Y-60380471D01*
X37809512Y-60378069D01*
X37785126Y-60380471D01*
X37761677Y-60387584D01*
X37740068Y-60399134D01*
X37723100Y-60410471D01*
X37575142Y-60471758D01*
X37418075Y-60503000D01*
X37257925Y-60503000D01*
X37100858Y-60471758D01*
X36952900Y-60410471D01*
X36935932Y-60399134D01*
X36914322Y-60387583D01*
X36890873Y-60380471D01*
X36866487Y-60378069D01*
X36842100Y-60380471D01*
X36818652Y-60387585D01*
X36797041Y-60399136D01*
X36778099Y-60414681D01*
X36762554Y-60433624D01*
X36751003Y-60455234D01*
X36743891Y-60478683D01*
X36741489Y-60503069D01*
X36743891Y-60527456D01*
X36751005Y-60550904D01*
X36762555Y-60572514D01*
X36788472Y-60611302D01*
X36849758Y-60759258D01*
X36881000Y-60916325D01*
X36881000Y-61076475D01*
X36849758Y-61233542D01*
X36788471Y-61381501D01*
X36699501Y-61514655D01*
X36586255Y-61627901D01*
X36453101Y-61716871D01*
X36305142Y-61778158D01*
X36148075Y-61809400D01*
X35987925Y-61809400D01*
X35830858Y-61778158D01*
X35682899Y-61716871D01*
X35549745Y-61627901D01*
X35436499Y-61514655D01*
X35347529Y-61381501D01*
X35286242Y-61233542D01*
X35255000Y-61076475D01*
X35255000Y-60916325D01*
X35286242Y-60759258D01*
X35347528Y-60611302D01*
X35373445Y-60572514D01*
X35384996Y-60550903D01*
X35392109Y-60527454D01*
X35394511Y-60503068D01*
X35392109Y-60478682D01*
X35384996Y-60455233D01*
X35373445Y-60433622D01*
X35357899Y-60414680D01*
X35338958Y-60399135D01*
X35317347Y-60387584D01*
X35293898Y-60380471D01*
X35269512Y-60378069D01*
X35245126Y-60380471D01*
X35221677Y-60387584D01*
X35200068Y-60399134D01*
X35183100Y-60410471D01*
X35035142Y-60471758D01*
X34878075Y-60503000D01*
X34717925Y-60503000D01*
X34560858Y-60471758D01*
X34412900Y-60410471D01*
X34395932Y-60399134D01*
X34374322Y-60387583D01*
X34350873Y-60380471D01*
X34326487Y-60378069D01*
X34302100Y-60380471D01*
X34278652Y-60387585D01*
X34257041Y-60399136D01*
X34238099Y-60414681D01*
X34222554Y-60433624D01*
X34211003Y-60455234D01*
X34203891Y-60478683D01*
X34201489Y-60503069D01*
X34203891Y-60527456D01*
X34211005Y-60550904D01*
X34222555Y-60572514D01*
X34248472Y-60611302D01*
X34309758Y-60759258D01*
X34341000Y-60916325D01*
X34341000Y-61076475D01*
X34309758Y-61233542D01*
X34248471Y-61381501D01*
X34159501Y-61514655D01*
X34046255Y-61627901D01*
X33913101Y-61716871D01*
X33765142Y-61778158D01*
X33608075Y-61809400D01*
X33447925Y-61809400D01*
X33290858Y-61778158D01*
X33142899Y-61716871D01*
X33009745Y-61627901D01*
X32896499Y-61514655D01*
X32807529Y-61381501D01*
X32746242Y-61233542D01*
X32715000Y-61076475D01*
X32715000Y-60916325D01*
X32746242Y-60759258D01*
X32807528Y-60611302D01*
X32833445Y-60572514D01*
X32844996Y-60550903D01*
X32852109Y-60527454D01*
X32854511Y-60503068D01*
X32852109Y-60478682D01*
X32844996Y-60455233D01*
X32833445Y-60433622D01*
X32817899Y-60414680D01*
X32798958Y-60399135D01*
X32777347Y-60387584D01*
X32753898Y-60380471D01*
X32729512Y-60378069D01*
X32705126Y-60380471D01*
X32681677Y-60387584D01*
X32660068Y-60399134D01*
X32643100Y-60410471D01*
X32495142Y-60471758D01*
X32338075Y-60503000D01*
X32177925Y-60503000D01*
X32020858Y-60471758D01*
X31872899Y-60410471D01*
X31739745Y-60321501D01*
X31626499Y-60208255D01*
X31537529Y-60075101D01*
X31476242Y-59927142D01*
X31445000Y-59770075D01*
X31445000Y-59609925D01*
X31476242Y-59452858D01*
X31537529Y-59304899D01*
X31626499Y-59171745D01*
X31739745Y-59058499D01*
X31872899Y-58969529D01*
X32020858Y-58908242D01*
X32177925Y-58877000D01*
X32338075Y-58877000D01*
X32495142Y-58908242D01*
G37*
G36*
X76924020Y-58944115D02*
G01*
X76997428Y-58951345D01*
X77138709Y-58994202D01*
X77138711Y-58994203D01*
X77268913Y-59063798D01*
X77383041Y-59157459D01*
X77476702Y-59271587D01*
X77494508Y-59304900D01*
X77546298Y-59401791D01*
X77589155Y-59543072D01*
X77603626Y-59690000D01*
X77589155Y-59836928D01*
X77546298Y-59978209D01*
X77546297Y-59978211D01*
X77476702Y-60108413D01*
X77383041Y-60222541D01*
X77268913Y-60316202D01*
X77258999Y-60321501D01*
X77138709Y-60385798D01*
X76997428Y-60428655D01*
X76946976Y-60433624D01*
X76887317Y-60439500D01*
X76432683Y-60439500D01*
X76373024Y-60433624D01*
X76322572Y-60428655D01*
X76181291Y-60385798D01*
X76061001Y-60321501D01*
X76051087Y-60316202D01*
X75936959Y-60222541D01*
X75843298Y-60108413D01*
X75773703Y-59978211D01*
X75773702Y-59978209D01*
X75730845Y-59836928D01*
X75716374Y-59690000D01*
X75730845Y-59543072D01*
X75773702Y-59401791D01*
X75825492Y-59304900D01*
X75843298Y-59271587D01*
X75936959Y-59157459D01*
X76051087Y-59063798D01*
X76181289Y-58994203D01*
X76181291Y-58994202D01*
X76322572Y-58951345D01*
X76395980Y-58944115D01*
X76432683Y-58940500D01*
X76887317Y-58940500D01*
X76924020Y-58944115D01*
G37*
G36*
X71600000Y-60439500D02*
G01*
X69720000Y-60439500D01*
X69720000Y-58940500D01*
X71600000Y-58940500D01*
X71600000Y-60439500D01*
G37*
G36*
X84686564Y-57409389D02*
G01*
X84877833Y-57488615D01*
X84877835Y-57488616D01*
X85049973Y-57603635D01*
X85196365Y-57750027D01*
X85311385Y-57922167D01*
X85390611Y-58113436D01*
X85431000Y-58316484D01*
X85431000Y-58523516D01*
X85390611Y-58726564D01*
X85315358Y-58908242D01*
X85311384Y-58917835D01*
X85196365Y-59089973D01*
X85049973Y-59236365D01*
X84877835Y-59351384D01*
X84877834Y-59351385D01*
X84877833Y-59351385D01*
X84686564Y-59430611D01*
X84483516Y-59471000D01*
X84276484Y-59471000D01*
X84073436Y-59430611D01*
X83882167Y-59351385D01*
X83882166Y-59351385D01*
X83882165Y-59351384D01*
X83710027Y-59236365D01*
X83563635Y-59089973D01*
X83448616Y-58917835D01*
X83444642Y-58908242D01*
X83369389Y-58726564D01*
X83329000Y-58523516D01*
X83329000Y-58316484D01*
X83369389Y-58113436D01*
X83448615Y-57922167D01*
X83563635Y-57750027D01*
X83710027Y-57603635D01*
X83882165Y-57488616D01*
X83882167Y-57488615D01*
X84073436Y-57409389D01*
X84276484Y-57369000D01*
X84483516Y-57369000D01*
X84686564Y-57409389D01*
G37*
G36*
X91186564Y-57409389D02*
G01*
X91377833Y-57488615D01*
X91377835Y-57488616D01*
X91549973Y-57603635D01*
X91696365Y-57750027D01*
X91811385Y-57922167D01*
X91890611Y-58113436D01*
X91931000Y-58316484D01*
X91931000Y-58523516D01*
X91890611Y-58726564D01*
X91815358Y-58908242D01*
X91811384Y-58917835D01*
X91696365Y-59089973D01*
X91549973Y-59236365D01*
X91377835Y-59351384D01*
X91377834Y-59351385D01*
X91377833Y-59351385D01*
X91186564Y-59430611D01*
X90983516Y-59471000D01*
X90776484Y-59471000D01*
X90573436Y-59430611D01*
X90382167Y-59351385D01*
X90382166Y-59351385D01*
X90382165Y-59351384D01*
X90210027Y-59236365D01*
X90063635Y-59089973D01*
X89948616Y-58917835D01*
X89944642Y-58908242D01*
X89869389Y-58726564D01*
X89829000Y-58523516D01*
X89829000Y-58316484D01*
X89869389Y-58113436D01*
X89948615Y-57922167D01*
X90063635Y-57750027D01*
X90210027Y-57603635D01*
X90382165Y-57488616D01*
X90382167Y-57488615D01*
X90573436Y-57409389D01*
X90776484Y-57369000D01*
X90983516Y-57369000D01*
X91186564Y-57409389D01*
G37*
G36*
X76924020Y-53864115D02*
G01*
X76997428Y-53871345D01*
X77138709Y-53914202D01*
X77138711Y-53914203D01*
X77268913Y-53983798D01*
X77268915Y-53983799D01*
X77268914Y-53983799D01*
X77383041Y-54077459D01*
X77476701Y-54191586D01*
X77546298Y-54321791D01*
X77589155Y-54463072D01*
X77603626Y-54610000D01*
X77589155Y-54756928D01*
X77546298Y-54898209D01*
X77546297Y-54898211D01*
X77476702Y-55028413D01*
X77383041Y-55142541D01*
X77268913Y-55236202D01*
X77138711Y-55305797D01*
X77138709Y-55305798D01*
X76997428Y-55348655D01*
X76924020Y-55355885D01*
X76887317Y-55359500D01*
X76432683Y-55359500D01*
X76395980Y-55355885D01*
X76322572Y-55348655D01*
X76181291Y-55305798D01*
X76181289Y-55305797D01*
X76051087Y-55236202D01*
X75936959Y-55142541D01*
X75843298Y-55028413D01*
X75773703Y-54898211D01*
X75773702Y-54898209D01*
X75730845Y-54756928D01*
X75716374Y-54610000D01*
X75730845Y-54463072D01*
X75773702Y-54321791D01*
X75843299Y-54191586D01*
X75936959Y-54077459D01*
X76051086Y-53983799D01*
X76051085Y-53983799D01*
X76051087Y-53983798D01*
X76181289Y-53914203D01*
X76181291Y-53914202D01*
X76322572Y-53871345D01*
X76395980Y-53864115D01*
X76432683Y-53860500D01*
X76887317Y-53860500D01*
X76924020Y-53864115D01*
G37*
G36*
X71600000Y-55359500D02*
G01*
X69720000Y-55359500D01*
X69720000Y-53860500D01*
X71600000Y-53860500D01*
X71600000Y-55359500D01*
G37*
G36*
X85226626Y-48382037D02*
G01*
X85396465Y-48433557D01*
X85396467Y-48433558D01*
X85552989Y-48517221D01*
X85690186Y-48629814D01*
X85773448Y-48731271D01*
X85802778Y-48767009D01*
X85886443Y-48923534D01*
X85937963Y-49093373D01*
X85937963Y-49093375D01*
X85951000Y-49225740D01*
X85951000Y-50036896D01*
X85953402Y-50061282D01*
X85960515Y-50084731D01*
X85972066Y-50106342D01*
X85987611Y-50125284D01*
X86006553Y-50140829D01*
X86028164Y-50152380D01*
X86051613Y-50159493D01*
X86075999Y-50161895D01*
X86100385Y-50159493D01*
X86123834Y-50152380D01*
X86155297Y-50133522D01*
X86243322Y-50061282D01*
X86297009Y-50017222D01*
X86453534Y-49933557D01*
X86623373Y-49882037D01*
X86800000Y-49864641D01*
X86976626Y-49882037D01*
X87146465Y-49933557D01*
X87146467Y-49933558D01*
X87302989Y-50017221D01*
X87440186Y-50129814D01*
X87518956Y-50225797D01*
X87552778Y-50267009D01*
X87636443Y-50423534D01*
X87687963Y-50593373D01*
X87687963Y-50593375D01*
X87700810Y-50723806D01*
X87701000Y-50725742D01*
X87701000Y-51614258D01*
X87687963Y-51746627D01*
X87636443Y-51916466D01*
X87552778Y-52072991D01*
X87523448Y-52108729D01*
X87440186Y-52210186D01*
X87338729Y-52293448D01*
X87302991Y-52322778D01*
X87146466Y-52406443D01*
X86976627Y-52457963D01*
X86800000Y-52475359D01*
X86623374Y-52457963D01*
X86453535Y-52406443D01*
X86297010Y-52322778D01*
X86261272Y-52293448D01*
X86159815Y-52210186D01*
X86076553Y-52108729D01*
X86047223Y-52072991D01*
X85963558Y-51916466D01*
X85912038Y-51746627D01*
X85899000Y-51614258D01*
X85899000Y-50803104D01*
X85896598Y-50778718D01*
X85889485Y-50755269D01*
X85877934Y-50733658D01*
X85862389Y-50714716D01*
X85843447Y-50699171D01*
X85821836Y-50687620D01*
X85798387Y-50680507D01*
X85774001Y-50678105D01*
X85749615Y-50680507D01*
X85726166Y-50687620D01*
X85694703Y-50706478D01*
X85621177Y-50766819D01*
X85552991Y-50822778D01*
X85396466Y-50906443D01*
X85226627Y-50957963D01*
X85050000Y-50975359D01*
X84873374Y-50957963D01*
X84703535Y-50906443D01*
X84547010Y-50822778D01*
X84478824Y-50766819D01*
X84409815Y-50710186D01*
X84313950Y-50593373D01*
X84297223Y-50572991D01*
X84213558Y-50416466D01*
X84162038Y-50246627D01*
X84149000Y-50114258D01*
X84149000Y-49225743D01*
X84162037Y-49093374D01*
X84213557Y-48923535D01*
X84261307Y-48834202D01*
X84297221Y-48767011D01*
X84409814Y-48629814D01*
X84542406Y-48521000D01*
X84547009Y-48517222D01*
X84703534Y-48433557D01*
X84873373Y-48382037D01*
X85050000Y-48364641D01*
X85226626Y-48382037D01*
G37*
G36*
X91176626Y-48382037D02*
G01*
X91346465Y-48433557D01*
X91346467Y-48433558D01*
X91502989Y-48517221D01*
X91640186Y-48629814D01*
X91723448Y-48731271D01*
X91752778Y-48767009D01*
X91836443Y-48923534D01*
X91887963Y-49093373D01*
X91901000Y-49225742D01*
X91901000Y-50114258D01*
X91887963Y-50246627D01*
X91836443Y-50416466D01*
X91752778Y-50572991D01*
X91736051Y-50593373D01*
X91640186Y-50710186D01*
X91571177Y-50766819D01*
X91502991Y-50822778D01*
X91346466Y-50906443D01*
X91176627Y-50957963D01*
X91000000Y-50975359D01*
X90823374Y-50957963D01*
X90653535Y-50906443D01*
X90497010Y-50822778D01*
X90428824Y-50766819D01*
X90355297Y-50706478D01*
X90334923Y-50692864D01*
X90312284Y-50683487D01*
X90288250Y-50678707D01*
X90263746Y-50678707D01*
X90239713Y-50683488D01*
X90217074Y-50692865D01*
X90196700Y-50706479D01*
X90179373Y-50723806D01*
X90165759Y-50744180D01*
X90156382Y-50766819D01*
X90151000Y-50803104D01*
X90151000Y-51614258D01*
X90137963Y-51746627D01*
X90086443Y-51916466D01*
X90002778Y-52072991D01*
X89973448Y-52108729D01*
X89890186Y-52210186D01*
X89788729Y-52293448D01*
X89752991Y-52322778D01*
X89596466Y-52406443D01*
X89426627Y-52457963D01*
X89250000Y-52475359D01*
X89073374Y-52457963D01*
X88903535Y-52406443D01*
X88747010Y-52322778D01*
X88711272Y-52293448D01*
X88609815Y-52210186D01*
X88526553Y-52108729D01*
X88497223Y-52072991D01*
X88413558Y-51916466D01*
X88362038Y-51746627D01*
X88349000Y-51614258D01*
X88349000Y-50725743D01*
X88362037Y-50593374D01*
X88413557Y-50423535D01*
X88417335Y-50416466D01*
X88497221Y-50267011D01*
X88609814Y-50129814D01*
X88711271Y-50046552D01*
X88747009Y-50017222D01*
X88903534Y-49933557D01*
X89073373Y-49882037D01*
X89250000Y-49864641D01*
X89426626Y-49882037D01*
X89596465Y-49933557D01*
X89596467Y-49933558D01*
X89752989Y-50017221D01*
X89894703Y-50133522D01*
X89915077Y-50147135D01*
X89937716Y-50156513D01*
X89961749Y-50161293D01*
X89986253Y-50161293D01*
X90010286Y-50156513D01*
X90032925Y-50147135D01*
X90053300Y-50133521D01*
X90070627Y-50116194D01*
X90084240Y-50095820D01*
X90093618Y-50073181D01*
X90099000Y-50036896D01*
X90099000Y-49225741D01*
X90112037Y-49093376D01*
X90112037Y-49093374D01*
X90163557Y-48923535D01*
X90211307Y-48834202D01*
X90247221Y-48767011D01*
X90359814Y-48629814D01*
X90492406Y-48521000D01*
X90497009Y-48517222D01*
X90653534Y-48433557D01*
X90823373Y-48382037D01*
X91000000Y-48364641D01*
X91176626Y-48382037D01*
G37*
G36*
X71600000Y-50279500D02*
G01*
X69720000Y-50279500D01*
X69720000Y-48780500D01*
X71600000Y-48780500D01*
X71600000Y-50279500D01*
G37*
G36*
X76924020Y-48784115D02*
G01*
X76997428Y-48791345D01*
X77138709Y-48834202D01*
X77138711Y-48834203D01*
X77268913Y-48903798D01*
X77383041Y-48997459D01*
X77476702Y-49111587D01*
X77537719Y-49225741D01*
X77546298Y-49241791D01*
X77589155Y-49383072D01*
X77603626Y-49530000D01*
X77589155Y-49676928D01*
X77546298Y-49818209D01*
X77546297Y-49818211D01*
X77476702Y-49948413D01*
X77383041Y-50062541D01*
X77268913Y-50156202D01*
X77138711Y-50225797D01*
X77138709Y-50225798D01*
X76997428Y-50268655D01*
X76924020Y-50275885D01*
X76887317Y-50279500D01*
X76432683Y-50279500D01*
X76395980Y-50275885D01*
X76322572Y-50268655D01*
X76181291Y-50225798D01*
X76181289Y-50225797D01*
X76051087Y-50156202D01*
X75936959Y-50062541D01*
X75843298Y-49948413D01*
X75773703Y-49818211D01*
X75773702Y-49818209D01*
X75730845Y-49676928D01*
X75716374Y-49530000D01*
X75730845Y-49383072D01*
X75773702Y-49241791D01*
X75782281Y-49225741D01*
X75843298Y-49111587D01*
X75936959Y-48997459D01*
X76051087Y-48903798D01*
X76181289Y-48834203D01*
X76181291Y-48834202D01*
X76322572Y-48791345D01*
X76395980Y-48784115D01*
X76432683Y-48780500D01*
X76887317Y-48780500D01*
X76924020Y-48784115D01*
G37*
G36*
X87339890Y-47244017D02*
G01*
X87458364Y-47293091D01*
X87564988Y-47364335D01*
X87655665Y-47455012D01*
X87726909Y-47561636D01*
X87775983Y-47680110D01*
X87801000Y-47805882D01*
X87801000Y-47934118D01*
X87775983Y-48059890D01*
X87726909Y-48178364D01*
X87655665Y-48284988D01*
X87564988Y-48375665D01*
X87458364Y-48446909D01*
X87458363Y-48446910D01*
X87458362Y-48446910D01*
X87339890Y-48495983D01*
X87214119Y-48521000D01*
X87085881Y-48521000D01*
X86960110Y-48495983D01*
X86841638Y-48446910D01*
X86841637Y-48446910D01*
X86841636Y-48446909D01*
X86735012Y-48375665D01*
X86644335Y-48284988D01*
X86573091Y-48178364D01*
X86524017Y-48059890D01*
X86499000Y-47934118D01*
X86499000Y-47805882D01*
X86524017Y-47680110D01*
X86573091Y-47561636D01*
X86644335Y-47455012D01*
X86735012Y-47364335D01*
X86841636Y-47293091D01*
X86960110Y-47244017D01*
X87085881Y-47219000D01*
X87214119Y-47219000D01*
X87339890Y-47244017D01*
G37*
G36*
X89089890Y-47244017D02*
G01*
X89208364Y-47293091D01*
X89314988Y-47364335D01*
X89405665Y-47455012D01*
X89476909Y-47561636D01*
X89525983Y-47680110D01*
X89551000Y-47805882D01*
X89551000Y-47934118D01*
X89525983Y-48059890D01*
X89476909Y-48178364D01*
X89405665Y-48284988D01*
X89314988Y-48375665D01*
X89208364Y-48446909D01*
X89208363Y-48446910D01*
X89208362Y-48446910D01*
X89089890Y-48495983D01*
X88964119Y-48521000D01*
X88835881Y-48521000D01*
X88710110Y-48495983D01*
X88591638Y-48446910D01*
X88591637Y-48446910D01*
X88591636Y-48446909D01*
X88485012Y-48375665D01*
X88394335Y-48284988D01*
X88323091Y-48178364D01*
X88274017Y-48059890D01*
X88249000Y-47934118D01*
X88249000Y-47805882D01*
X88274017Y-47680110D01*
X88323091Y-47561636D01*
X88394335Y-47455012D01*
X88485012Y-47364335D01*
X88591636Y-47293091D01*
X88710110Y-47244017D01*
X88835881Y-47219000D01*
X88964119Y-47219000D01*
X89089890Y-47244017D01*
G37*
G36*
X91176626Y-44382037D02*
G01*
X91346465Y-44433557D01*
X91346467Y-44433558D01*
X91502989Y-44517221D01*
X91640186Y-44629814D01*
X91723448Y-44731271D01*
X91752778Y-44767009D01*
X91836443Y-44923534D01*
X91887963Y-45093373D01*
X91901000Y-45225742D01*
X91901000Y-46114258D01*
X91887963Y-46246627D01*
X91836443Y-46416466D01*
X91752778Y-46572991D01*
X91739311Y-46589400D01*
X91640186Y-46710186D01*
X91538729Y-46793448D01*
X91502991Y-46822778D01*
X91346466Y-46906443D01*
X91176627Y-46957963D01*
X91000000Y-46975359D01*
X90823374Y-46957963D01*
X90653535Y-46906443D01*
X90497010Y-46822778D01*
X90461272Y-46793448D01*
X90359815Y-46710186D01*
X90260690Y-46589400D01*
X90247223Y-46572991D01*
X90163558Y-46416466D01*
X90112038Y-46246627D01*
X90099000Y-46114258D01*
X90099000Y-45225743D01*
X90101860Y-45196709D01*
X90112037Y-45093376D01*
X90112037Y-45093374D01*
X90163557Y-44923535D01*
X90163559Y-44923532D01*
X90247221Y-44767011D01*
X90359814Y-44629814D01*
X90481349Y-44530074D01*
X90497009Y-44517222D01*
X90653534Y-44433557D01*
X90823373Y-44382037D01*
X91000000Y-44364641D01*
X91176626Y-44382037D01*
G37*
G36*
X85226626Y-44382037D02*
G01*
X85396465Y-44433557D01*
X85396467Y-44433558D01*
X85552989Y-44517221D01*
X85690186Y-44629814D01*
X85773448Y-44731271D01*
X85802778Y-44767009D01*
X85886443Y-44923534D01*
X85937963Y-45093373D01*
X85951000Y-45225742D01*
X85951000Y-46114258D01*
X85937963Y-46246627D01*
X85886443Y-46416466D01*
X85802778Y-46572991D01*
X85789311Y-46589400D01*
X85690186Y-46710186D01*
X85588729Y-46793448D01*
X85552991Y-46822778D01*
X85396466Y-46906443D01*
X85226627Y-46957963D01*
X85050000Y-46975359D01*
X84873374Y-46957963D01*
X84703535Y-46906443D01*
X84547010Y-46822778D01*
X84511272Y-46793448D01*
X84409815Y-46710186D01*
X84310690Y-46589400D01*
X84297223Y-46572991D01*
X84213558Y-46416466D01*
X84162038Y-46246627D01*
X84149000Y-46114258D01*
X84149000Y-45225743D01*
X84151860Y-45196709D01*
X84162037Y-45093376D01*
X84162037Y-45093374D01*
X84213557Y-44923535D01*
X84213559Y-44923532D01*
X84297221Y-44767011D01*
X84409814Y-44629814D01*
X84531349Y-44530074D01*
X84547009Y-44517222D01*
X84703534Y-44433557D01*
X84873373Y-44382037D01*
X85050000Y-44364641D01*
X85226626Y-44382037D01*
G37*
G36*
X32495142Y-43668242D02*
G01*
X32643101Y-43729529D01*
X32776255Y-43818499D01*
X32889501Y-43931745D01*
X32978471Y-44064899D01*
X33039758Y-44212858D01*
X33071000Y-44369925D01*
X33071000Y-44530075D01*
X33039758Y-44687142D01*
X32978472Y-44835098D01*
X32928413Y-44910017D01*
X32916862Y-44931628D01*
X32909749Y-44955077D01*
X32907347Y-44979463D01*
X32909749Y-45003849D01*
X32916862Y-45027298D01*
X32928413Y-45048909D01*
X32943958Y-45067851D01*
X32962900Y-45083396D01*
X32984511Y-45094947D01*
X33007960Y-45102060D01*
X33032346Y-45104462D01*
X33056732Y-45102060D01*
X33080181Y-45094947D01*
X33101791Y-45083396D01*
X33142899Y-45055929D01*
X33290858Y-44994642D01*
X33447925Y-44963400D01*
X33608075Y-44963400D01*
X33765142Y-44994642D01*
X33913101Y-45055929D01*
X33954209Y-45083396D01*
X33975820Y-45094947D01*
X33999269Y-45102060D01*
X34023655Y-45104462D01*
X34048041Y-45102060D01*
X34071490Y-45094947D01*
X34093101Y-45083395D01*
X34112042Y-45067850D01*
X34127587Y-45048908D01*
X34139138Y-45027297D01*
X34146251Y-45003848D01*
X34148653Y-44979462D01*
X34146251Y-44955076D01*
X34139138Y-44931627D01*
X34127587Y-44910017D01*
X34077528Y-44835098D01*
X34016242Y-44687142D01*
X33985000Y-44530075D01*
X33985000Y-44369925D01*
X34016242Y-44212858D01*
X34077529Y-44064899D01*
X34166499Y-43931745D01*
X34279745Y-43818499D01*
X34412899Y-43729529D01*
X34560858Y-43668242D01*
X34717925Y-43637000D01*
X34878075Y-43637000D01*
X35035142Y-43668242D01*
X35183101Y-43729529D01*
X35316255Y-43818499D01*
X35429501Y-43931745D01*
X35518471Y-44064899D01*
X35579758Y-44212858D01*
X35611000Y-44369925D01*
X35611000Y-44530075D01*
X35579758Y-44687142D01*
X35518472Y-44835098D01*
X35468413Y-44910017D01*
X35456862Y-44931628D01*
X35449749Y-44955077D01*
X35447347Y-44979463D01*
X35449749Y-45003849D01*
X35456862Y-45027298D01*
X35468413Y-45048909D01*
X35483958Y-45067851D01*
X35502900Y-45083396D01*
X35524511Y-45094947D01*
X35547960Y-45102060D01*
X35572346Y-45104462D01*
X35596732Y-45102060D01*
X35620181Y-45094947D01*
X35641791Y-45083396D01*
X35682899Y-45055929D01*
X35830858Y-44994642D01*
X35987925Y-44963400D01*
X36148075Y-44963400D01*
X36305142Y-44994642D01*
X36453101Y-45055929D01*
X36494209Y-45083396D01*
X36515820Y-45094947D01*
X36539269Y-45102060D01*
X36563655Y-45104462D01*
X36588041Y-45102060D01*
X36611490Y-45094947D01*
X36633101Y-45083395D01*
X36652042Y-45067850D01*
X36667587Y-45048908D01*
X36679138Y-45027297D01*
X36686251Y-45003848D01*
X36688653Y-44979462D01*
X36686251Y-44955076D01*
X36679138Y-44931627D01*
X36667587Y-44910017D01*
X36617528Y-44835098D01*
X36556242Y-44687142D01*
X36525000Y-44530075D01*
X36525000Y-44369925D01*
X36556242Y-44212858D01*
X36617529Y-44064899D01*
X36706499Y-43931745D01*
X36819745Y-43818499D01*
X36952899Y-43729529D01*
X37100858Y-43668242D01*
X37257925Y-43637000D01*
X37418075Y-43637000D01*
X37575142Y-43668242D01*
X37723101Y-43729529D01*
X37856255Y-43818499D01*
X37969501Y-43931745D01*
X38058471Y-44064899D01*
X38119758Y-44212858D01*
X38151000Y-44369925D01*
X38151000Y-44530075D01*
X38119758Y-44687142D01*
X38058472Y-44835098D01*
X38008413Y-44910017D01*
X37996862Y-44931628D01*
X37989749Y-44955077D01*
X37987347Y-44979463D01*
X37989749Y-45003849D01*
X37996862Y-45027298D01*
X38008413Y-45048909D01*
X38023958Y-45067851D01*
X38042900Y-45083396D01*
X38064511Y-45094947D01*
X38087960Y-45102060D01*
X38112346Y-45104462D01*
X38136732Y-45102060D01*
X38160181Y-45094947D01*
X38181791Y-45083396D01*
X38222899Y-45055929D01*
X38370858Y-44994642D01*
X38527925Y-44963400D01*
X38688075Y-44963400D01*
X38845142Y-44994642D01*
X38993101Y-45055929D01*
X39034209Y-45083396D01*
X39055820Y-45094947D01*
X39079269Y-45102060D01*
X39103655Y-45104462D01*
X39128041Y-45102060D01*
X39151490Y-45094947D01*
X39173101Y-45083395D01*
X39192042Y-45067850D01*
X39207587Y-45048908D01*
X39219138Y-45027297D01*
X39226251Y-45003848D01*
X39228653Y-44979462D01*
X39226251Y-44955076D01*
X39219138Y-44931627D01*
X39207587Y-44910017D01*
X39157528Y-44835098D01*
X39096242Y-44687142D01*
X39065000Y-44530075D01*
X39065000Y-44369925D01*
X39096242Y-44212858D01*
X39157529Y-44064899D01*
X39246499Y-43931745D01*
X39359745Y-43818499D01*
X39492899Y-43729529D01*
X39640858Y-43668242D01*
X39797925Y-43637000D01*
X39958075Y-43637000D01*
X40115142Y-43668242D01*
X40263101Y-43729529D01*
X40396255Y-43818499D01*
X40509501Y-43931745D01*
X40598471Y-44064899D01*
X40659758Y-44212858D01*
X40691000Y-44369925D01*
X40691000Y-44530075D01*
X40659758Y-44687142D01*
X40598472Y-44835098D01*
X40548413Y-44910017D01*
X40536862Y-44931628D01*
X40529749Y-44955077D01*
X40527347Y-44979463D01*
X40529749Y-45003849D01*
X40536862Y-45027298D01*
X40548413Y-45048909D01*
X40563958Y-45067851D01*
X40582900Y-45083396D01*
X40604511Y-45094947D01*
X40627960Y-45102060D01*
X40652346Y-45104462D01*
X40676732Y-45102060D01*
X40700181Y-45094947D01*
X40721791Y-45083396D01*
X40762899Y-45055929D01*
X40910858Y-44994642D01*
X41067925Y-44963400D01*
X41228075Y-44963400D01*
X41385142Y-44994642D01*
X41533101Y-45055929D01*
X41574209Y-45083396D01*
X41595820Y-45094947D01*
X41619269Y-45102060D01*
X41643655Y-45104462D01*
X41668041Y-45102060D01*
X41691490Y-45094947D01*
X41713101Y-45083395D01*
X41732042Y-45067850D01*
X41747587Y-45048908D01*
X41759138Y-45027297D01*
X41766251Y-45003848D01*
X41768653Y-44979462D01*
X41766251Y-44955076D01*
X41759138Y-44931627D01*
X41747587Y-44910017D01*
X41697528Y-44835098D01*
X41636242Y-44687142D01*
X41605000Y-44530075D01*
X41605000Y-44369925D01*
X41636242Y-44212858D01*
X41697529Y-44064899D01*
X41786499Y-43931745D01*
X41899745Y-43818499D01*
X42032899Y-43729529D01*
X42180858Y-43668242D01*
X42337925Y-43637000D01*
X42498075Y-43637000D01*
X42655142Y-43668242D01*
X42803101Y-43729529D01*
X42936255Y-43818499D01*
X43049501Y-43931745D01*
X43138471Y-44064899D01*
X43199758Y-44212858D01*
X43231000Y-44369925D01*
X43231000Y-44530075D01*
X43199758Y-44687142D01*
X43138472Y-44835098D01*
X43088413Y-44910017D01*
X43076862Y-44931628D01*
X43069749Y-44955077D01*
X43067347Y-44979463D01*
X43069749Y-45003849D01*
X43076862Y-45027298D01*
X43088413Y-45048909D01*
X43103958Y-45067851D01*
X43122900Y-45083396D01*
X43144511Y-45094947D01*
X43167960Y-45102060D01*
X43192346Y-45104462D01*
X43216732Y-45102060D01*
X43240181Y-45094947D01*
X43261791Y-45083396D01*
X43302899Y-45055929D01*
X43450858Y-44994642D01*
X43607925Y-44963400D01*
X43768075Y-44963400D01*
X43925142Y-44994642D01*
X44073101Y-45055929D01*
X44114209Y-45083396D01*
X44135820Y-45094947D01*
X44159269Y-45102060D01*
X44183655Y-45104462D01*
X44208041Y-45102060D01*
X44231490Y-45094947D01*
X44253101Y-45083395D01*
X44272042Y-45067850D01*
X44287587Y-45048908D01*
X44299138Y-45027297D01*
X44306251Y-45003848D01*
X44308653Y-44979462D01*
X44306251Y-44955076D01*
X44299138Y-44931627D01*
X44287587Y-44910017D01*
X44237528Y-44835098D01*
X44176242Y-44687142D01*
X44145000Y-44530075D01*
X44145000Y-44369925D01*
X44176242Y-44212858D01*
X44237529Y-44064899D01*
X44326499Y-43931745D01*
X44439745Y-43818499D01*
X44572899Y-43729529D01*
X44720858Y-43668242D01*
X44877925Y-43637000D01*
X45038075Y-43637000D01*
X45195142Y-43668242D01*
X45343101Y-43729529D01*
X45476255Y-43818499D01*
X45589501Y-43931745D01*
X45678471Y-44064899D01*
X45739758Y-44212858D01*
X45771000Y-44369925D01*
X45771000Y-44530075D01*
X45739758Y-44687142D01*
X45678472Y-44835098D01*
X45628413Y-44910017D01*
X45616862Y-44931628D01*
X45609749Y-44955077D01*
X45607347Y-44979463D01*
X45609749Y-45003849D01*
X45616862Y-45027298D01*
X45628413Y-45048909D01*
X45643958Y-45067851D01*
X45662900Y-45083396D01*
X45684511Y-45094947D01*
X45707960Y-45102060D01*
X45732346Y-45104462D01*
X45756732Y-45102060D01*
X45780181Y-45094947D01*
X45801791Y-45083396D01*
X45842899Y-45055929D01*
X45990858Y-44994642D01*
X46147925Y-44963400D01*
X46308075Y-44963400D01*
X46465142Y-44994642D01*
X46613101Y-45055929D01*
X46654209Y-45083396D01*
X46675820Y-45094947D01*
X46699269Y-45102060D01*
X46723655Y-45104462D01*
X46748041Y-45102060D01*
X46771490Y-45094947D01*
X46793101Y-45083395D01*
X46812042Y-45067850D01*
X46827587Y-45048908D01*
X46839138Y-45027297D01*
X46846251Y-45003848D01*
X46848653Y-44979462D01*
X46846251Y-44955076D01*
X46839138Y-44931627D01*
X46827587Y-44910017D01*
X46777528Y-44835098D01*
X46716242Y-44687142D01*
X46685000Y-44530075D01*
X46685000Y-44369925D01*
X46716242Y-44212858D01*
X46777529Y-44064899D01*
X46866499Y-43931745D01*
X46979745Y-43818499D01*
X47112899Y-43729529D01*
X47260858Y-43668242D01*
X47417925Y-43637000D01*
X47578075Y-43637000D01*
X47735142Y-43668242D01*
X47883101Y-43729529D01*
X48016255Y-43818499D01*
X48129501Y-43931745D01*
X48218471Y-44064899D01*
X48279758Y-44212858D01*
X48311000Y-44369925D01*
X48311000Y-44530075D01*
X48279758Y-44687142D01*
X48218472Y-44835098D01*
X48168413Y-44910017D01*
X48156862Y-44931628D01*
X48149749Y-44955077D01*
X48147347Y-44979463D01*
X48149749Y-45003849D01*
X48156862Y-45027298D01*
X48168413Y-45048909D01*
X48183958Y-45067851D01*
X48202900Y-45083396D01*
X48224511Y-45094947D01*
X48247960Y-45102060D01*
X48272346Y-45104462D01*
X48296732Y-45102060D01*
X48320181Y-45094947D01*
X48341791Y-45083396D01*
X48382899Y-45055929D01*
X48530858Y-44994642D01*
X48687925Y-44963400D01*
X48848075Y-44963400D01*
X49005142Y-44994642D01*
X49153101Y-45055929D01*
X49194209Y-45083396D01*
X49215820Y-45094947D01*
X49239269Y-45102060D01*
X49263655Y-45104462D01*
X49288041Y-45102060D01*
X49311490Y-45094947D01*
X49333101Y-45083395D01*
X49352042Y-45067850D01*
X49367587Y-45048908D01*
X49379138Y-45027297D01*
X49386251Y-45003848D01*
X49388653Y-44979462D01*
X49386251Y-44955076D01*
X49379138Y-44931627D01*
X49367587Y-44910017D01*
X49317528Y-44835098D01*
X49256242Y-44687142D01*
X49225000Y-44530075D01*
X49225000Y-44369925D01*
X49256242Y-44212858D01*
X49317529Y-44064899D01*
X49406499Y-43931745D01*
X49519745Y-43818499D01*
X49652899Y-43729529D01*
X49800858Y-43668242D01*
X49957925Y-43637000D01*
X50118075Y-43637000D01*
X50275142Y-43668242D01*
X50423101Y-43729529D01*
X50556255Y-43818499D01*
X50669501Y-43931745D01*
X50758471Y-44064899D01*
X50819758Y-44212858D01*
X50851000Y-44369925D01*
X50851000Y-44530075D01*
X50819758Y-44687142D01*
X50758472Y-44835098D01*
X50708413Y-44910017D01*
X50696862Y-44931628D01*
X50689749Y-44955077D01*
X50687347Y-44979463D01*
X50689749Y-45003849D01*
X50696862Y-45027298D01*
X50708413Y-45048909D01*
X50723958Y-45067851D01*
X50742900Y-45083396D01*
X50764511Y-45094947D01*
X50787960Y-45102060D01*
X50812346Y-45104462D01*
X50836732Y-45102060D01*
X50860181Y-45094947D01*
X50881791Y-45083396D01*
X50922899Y-45055929D01*
X51070858Y-44994642D01*
X51227925Y-44963400D01*
X51388075Y-44963400D01*
X51545142Y-44994642D01*
X51693101Y-45055929D01*
X51734209Y-45083396D01*
X51755820Y-45094947D01*
X51779269Y-45102060D01*
X51803655Y-45104462D01*
X51828041Y-45102060D01*
X51851490Y-45094947D01*
X51873101Y-45083395D01*
X51892042Y-45067850D01*
X51907587Y-45048908D01*
X51919138Y-45027297D01*
X51926251Y-45003848D01*
X51928653Y-44979462D01*
X51926251Y-44955076D01*
X51919138Y-44931627D01*
X51907587Y-44910017D01*
X51857528Y-44835098D01*
X51796242Y-44687142D01*
X51765000Y-44530075D01*
X51765000Y-44369925D01*
X51796242Y-44212858D01*
X51857529Y-44064899D01*
X51946499Y-43931745D01*
X52059745Y-43818499D01*
X52192899Y-43729529D01*
X52340858Y-43668242D01*
X52497925Y-43637000D01*
X52658075Y-43637000D01*
X52815142Y-43668242D01*
X52963101Y-43729529D01*
X53096255Y-43818499D01*
X53209501Y-43931745D01*
X53298471Y-44064899D01*
X53359758Y-44212858D01*
X53391000Y-44369925D01*
X53391000Y-44530075D01*
X53359758Y-44687142D01*
X53298472Y-44835098D01*
X53248413Y-44910017D01*
X53236862Y-44931628D01*
X53229749Y-44955077D01*
X53227347Y-44979463D01*
X53229749Y-45003849D01*
X53236862Y-45027298D01*
X53248413Y-45048909D01*
X53263958Y-45067851D01*
X53282900Y-45083396D01*
X53304511Y-45094947D01*
X53327960Y-45102060D01*
X53352346Y-45104462D01*
X53376732Y-45102060D01*
X53400181Y-45094947D01*
X53421791Y-45083396D01*
X53462899Y-45055929D01*
X53610858Y-44994642D01*
X53767925Y-44963400D01*
X53928075Y-44963400D01*
X54085142Y-44994642D01*
X54233101Y-45055929D01*
X54274209Y-45083396D01*
X54295820Y-45094947D01*
X54319269Y-45102060D01*
X54343655Y-45104462D01*
X54368041Y-45102060D01*
X54391490Y-45094947D01*
X54413101Y-45083395D01*
X54432042Y-45067850D01*
X54447587Y-45048908D01*
X54459138Y-45027297D01*
X54466251Y-45003848D01*
X54468653Y-44979462D01*
X54466251Y-44955076D01*
X54459138Y-44931627D01*
X54447587Y-44910017D01*
X54397528Y-44835098D01*
X54336242Y-44687142D01*
X54305000Y-44530075D01*
X54305000Y-44369925D01*
X54336242Y-44212858D01*
X54397529Y-44064899D01*
X54486499Y-43931745D01*
X54599745Y-43818499D01*
X54732899Y-43729529D01*
X54880858Y-43668242D01*
X55037925Y-43637000D01*
X55198075Y-43637000D01*
X55355142Y-43668242D01*
X55503101Y-43729529D01*
X55636255Y-43818499D01*
X55749501Y-43931745D01*
X55838471Y-44064899D01*
X55899758Y-44212858D01*
X55931000Y-44369925D01*
X55931000Y-44530075D01*
X55899758Y-44687142D01*
X55838472Y-44835098D01*
X55788413Y-44910017D01*
X55776862Y-44931628D01*
X55769749Y-44955077D01*
X55767347Y-44979463D01*
X55769749Y-45003849D01*
X55776862Y-45027298D01*
X55788413Y-45048909D01*
X55803958Y-45067851D01*
X55822900Y-45083396D01*
X55844511Y-45094947D01*
X55867960Y-45102060D01*
X55892346Y-45104462D01*
X55916732Y-45102060D01*
X55940181Y-45094947D01*
X55961791Y-45083396D01*
X56002899Y-45055929D01*
X56150858Y-44994642D01*
X56307925Y-44963400D01*
X56468075Y-44963400D01*
X56625142Y-44994642D01*
X56773101Y-45055929D01*
X56814209Y-45083396D01*
X56835820Y-45094947D01*
X56859269Y-45102060D01*
X56883655Y-45104462D01*
X56908041Y-45102060D01*
X56931490Y-45094947D01*
X56953101Y-45083395D01*
X56972042Y-45067850D01*
X56987587Y-45048908D01*
X56999138Y-45027297D01*
X57006251Y-45003848D01*
X57008653Y-44979462D01*
X57006251Y-44955076D01*
X56999138Y-44931627D01*
X56987587Y-44910017D01*
X56937528Y-44835098D01*
X56876242Y-44687142D01*
X56845000Y-44530075D01*
X56845000Y-44369925D01*
X56876242Y-44212858D01*
X56937529Y-44064899D01*
X57026499Y-43931745D01*
X57139745Y-43818499D01*
X57272899Y-43729529D01*
X57420858Y-43668242D01*
X57577925Y-43637000D01*
X57738075Y-43637000D01*
X57895142Y-43668242D01*
X58043101Y-43729529D01*
X58176255Y-43818499D01*
X58289501Y-43931745D01*
X58378471Y-44064899D01*
X58439758Y-44212858D01*
X58471000Y-44369925D01*
X58471000Y-44530075D01*
X58439758Y-44687142D01*
X58378472Y-44835098D01*
X58328413Y-44910017D01*
X58316862Y-44931628D01*
X58309749Y-44955077D01*
X58307347Y-44979463D01*
X58309749Y-45003849D01*
X58316862Y-45027298D01*
X58328413Y-45048909D01*
X58343958Y-45067851D01*
X58362900Y-45083396D01*
X58384511Y-45094947D01*
X58407960Y-45102060D01*
X58432346Y-45104462D01*
X58456732Y-45102060D01*
X58480181Y-45094947D01*
X58501791Y-45083396D01*
X58542899Y-45055929D01*
X58690858Y-44994642D01*
X58847925Y-44963400D01*
X59008075Y-44963400D01*
X59165142Y-44994642D01*
X59313101Y-45055929D01*
X59354209Y-45083396D01*
X59375820Y-45094947D01*
X59399269Y-45102060D01*
X59423655Y-45104462D01*
X59448041Y-45102060D01*
X59471490Y-45094947D01*
X59493101Y-45083395D01*
X59512042Y-45067850D01*
X59527587Y-45048908D01*
X59539138Y-45027297D01*
X59546251Y-45003848D01*
X59548653Y-44979462D01*
X59546251Y-44955076D01*
X59539138Y-44931627D01*
X59527587Y-44910017D01*
X59477528Y-44835098D01*
X59416242Y-44687142D01*
X59385000Y-44530075D01*
X59385000Y-44369925D01*
X59416242Y-44212858D01*
X59477529Y-44064899D01*
X59566499Y-43931745D01*
X59679745Y-43818499D01*
X59812899Y-43729529D01*
X59960858Y-43668242D01*
X60117925Y-43637000D01*
X60278075Y-43637000D01*
X60435142Y-43668242D01*
X60583101Y-43729529D01*
X60716255Y-43818499D01*
X60829501Y-43931745D01*
X60918471Y-44064899D01*
X60979758Y-44212858D01*
X61011000Y-44369925D01*
X61011000Y-44530075D01*
X60979758Y-44687142D01*
X60918472Y-44835098D01*
X60868413Y-44910017D01*
X60856862Y-44931628D01*
X60849749Y-44955077D01*
X60847347Y-44979463D01*
X60849749Y-45003849D01*
X60856862Y-45027298D01*
X60868413Y-45048909D01*
X60883958Y-45067851D01*
X60902900Y-45083396D01*
X60924511Y-45094947D01*
X60947960Y-45102060D01*
X60972346Y-45104462D01*
X60996732Y-45102060D01*
X61020181Y-45094947D01*
X61041791Y-45083396D01*
X61082899Y-45055929D01*
X61230858Y-44994642D01*
X61387925Y-44963400D01*
X61548075Y-44963400D01*
X61705142Y-44994642D01*
X61853101Y-45055929D01*
X61986255Y-45144899D01*
X62099501Y-45258145D01*
X62188471Y-45391299D01*
X62249758Y-45539258D01*
X62281000Y-45696325D01*
X62281000Y-45856475D01*
X62249758Y-46013542D01*
X62188471Y-46161501D01*
X62099501Y-46294655D01*
X61986255Y-46407901D01*
X61853101Y-46496871D01*
X61705142Y-46558158D01*
X61548075Y-46589400D01*
X61387925Y-46589400D01*
X61230858Y-46558158D01*
X61082899Y-46496871D01*
X60949745Y-46407901D01*
X60836499Y-46294655D01*
X60747529Y-46161501D01*
X60686242Y-46013542D01*
X60655000Y-45856475D01*
X60655000Y-45696325D01*
X60686242Y-45539258D01*
X60747528Y-45391302D01*
X60797587Y-45316383D01*
X60809138Y-45294772D01*
X60816251Y-45271323D01*
X60818653Y-45246937D01*
X60816251Y-45222551D01*
X60809138Y-45199102D01*
X60797587Y-45177491D01*
X60782042Y-45158549D01*
X60763100Y-45143004D01*
X60741489Y-45131453D01*
X60718040Y-45124340D01*
X60693654Y-45121938D01*
X60669268Y-45124340D01*
X60645819Y-45131453D01*
X60624209Y-45143004D01*
X60583101Y-45170471D01*
X60435142Y-45231758D01*
X60278075Y-45263000D01*
X60117925Y-45263000D01*
X59960858Y-45231758D01*
X59812899Y-45170471D01*
X59771791Y-45143004D01*
X59750180Y-45131453D01*
X59726731Y-45124340D01*
X59702345Y-45121938D01*
X59677959Y-45124340D01*
X59654510Y-45131453D01*
X59632899Y-45143005D01*
X59613958Y-45158550D01*
X59598413Y-45177492D01*
X59586862Y-45199103D01*
X59579749Y-45222552D01*
X59577347Y-45246938D01*
X59579749Y-45271324D01*
X59586862Y-45294773D01*
X59598413Y-45316383D01*
X59648472Y-45391302D01*
X59709758Y-45539258D01*
X59741000Y-45696325D01*
X59741000Y-45856475D01*
X59709758Y-46013542D01*
X59648471Y-46161501D01*
X59559501Y-46294655D01*
X59446255Y-46407901D01*
X59313101Y-46496871D01*
X59165142Y-46558158D01*
X59008075Y-46589400D01*
X58847925Y-46589400D01*
X58690858Y-46558158D01*
X58542899Y-46496871D01*
X58409745Y-46407901D01*
X58296499Y-46294655D01*
X58207529Y-46161501D01*
X58146242Y-46013542D01*
X58115000Y-45856475D01*
X58115000Y-45696325D01*
X58146242Y-45539258D01*
X58207528Y-45391302D01*
X58257587Y-45316383D01*
X58269138Y-45294772D01*
X58276251Y-45271323D01*
X58278653Y-45246937D01*
X58276251Y-45222551D01*
X58269138Y-45199102D01*
X58257587Y-45177491D01*
X58242042Y-45158549D01*
X58223100Y-45143004D01*
X58201489Y-45131453D01*
X58178040Y-45124340D01*
X58153654Y-45121938D01*
X58129268Y-45124340D01*
X58105819Y-45131453D01*
X58084209Y-45143004D01*
X58043101Y-45170471D01*
X57895142Y-45231758D01*
X57738075Y-45263000D01*
X57577925Y-45263000D01*
X57420858Y-45231758D01*
X57272899Y-45170471D01*
X57231791Y-45143004D01*
X57210180Y-45131453D01*
X57186731Y-45124340D01*
X57162345Y-45121938D01*
X57137959Y-45124340D01*
X57114510Y-45131453D01*
X57092899Y-45143005D01*
X57073958Y-45158550D01*
X57058413Y-45177492D01*
X57046862Y-45199103D01*
X57039749Y-45222552D01*
X57037347Y-45246938D01*
X57039749Y-45271324D01*
X57046862Y-45294773D01*
X57058413Y-45316383D01*
X57108472Y-45391302D01*
X57169758Y-45539258D01*
X57201000Y-45696325D01*
X57201000Y-45856475D01*
X57169758Y-46013542D01*
X57108471Y-46161501D01*
X57019501Y-46294655D01*
X56906255Y-46407901D01*
X56773101Y-46496871D01*
X56625142Y-46558158D01*
X56468075Y-46589400D01*
X56307925Y-46589400D01*
X56150858Y-46558158D01*
X56002899Y-46496871D01*
X55869745Y-46407901D01*
X55756499Y-46294655D01*
X55667529Y-46161501D01*
X55606242Y-46013542D01*
X55575000Y-45856475D01*
X55575000Y-45696325D01*
X55606242Y-45539258D01*
X55667528Y-45391302D01*
X55717587Y-45316383D01*
X55729138Y-45294772D01*
X55736251Y-45271323D01*
X55738653Y-45246937D01*
X55736251Y-45222551D01*
X55729138Y-45199102D01*
X55717587Y-45177491D01*
X55702042Y-45158549D01*
X55683100Y-45143004D01*
X55661489Y-45131453D01*
X55638040Y-45124340D01*
X55613654Y-45121938D01*
X55589268Y-45124340D01*
X55565819Y-45131453D01*
X55544209Y-45143004D01*
X55503101Y-45170471D01*
X55355142Y-45231758D01*
X55198075Y-45263000D01*
X55037925Y-45263000D01*
X54880858Y-45231758D01*
X54732899Y-45170471D01*
X54691791Y-45143004D01*
X54670180Y-45131453D01*
X54646731Y-45124340D01*
X54622345Y-45121938D01*
X54597959Y-45124340D01*
X54574510Y-45131453D01*
X54552899Y-45143005D01*
X54533958Y-45158550D01*
X54518413Y-45177492D01*
X54506862Y-45199103D01*
X54499749Y-45222552D01*
X54497347Y-45246938D01*
X54499749Y-45271324D01*
X54506862Y-45294773D01*
X54518413Y-45316383D01*
X54568472Y-45391302D01*
X54629758Y-45539258D01*
X54661000Y-45696325D01*
X54661000Y-45856475D01*
X54629758Y-46013542D01*
X54568471Y-46161501D01*
X54479501Y-46294655D01*
X54366255Y-46407901D01*
X54233101Y-46496871D01*
X54085142Y-46558158D01*
X53928075Y-46589400D01*
X53767925Y-46589400D01*
X53610858Y-46558158D01*
X53462899Y-46496871D01*
X53329745Y-46407901D01*
X53216499Y-46294655D01*
X53127529Y-46161501D01*
X53066242Y-46013542D01*
X53035000Y-45856475D01*
X53035000Y-45696325D01*
X53066242Y-45539258D01*
X53127528Y-45391302D01*
X53177587Y-45316383D01*
X53189138Y-45294772D01*
X53196251Y-45271323D01*
X53198653Y-45246937D01*
X53196251Y-45222551D01*
X53189138Y-45199102D01*
X53177587Y-45177491D01*
X53162042Y-45158549D01*
X53143100Y-45143004D01*
X53121489Y-45131453D01*
X53098040Y-45124340D01*
X53073654Y-45121938D01*
X53049268Y-45124340D01*
X53025819Y-45131453D01*
X53004209Y-45143004D01*
X52963101Y-45170471D01*
X52815142Y-45231758D01*
X52658075Y-45263000D01*
X52497925Y-45263000D01*
X52340858Y-45231758D01*
X52192899Y-45170471D01*
X52151791Y-45143004D01*
X52130180Y-45131453D01*
X52106731Y-45124340D01*
X52082345Y-45121938D01*
X52057959Y-45124340D01*
X52034510Y-45131453D01*
X52012899Y-45143005D01*
X51993958Y-45158550D01*
X51978413Y-45177492D01*
X51966862Y-45199103D01*
X51959749Y-45222552D01*
X51957347Y-45246938D01*
X51959749Y-45271324D01*
X51966862Y-45294773D01*
X51978413Y-45316383D01*
X52028472Y-45391302D01*
X52089758Y-45539258D01*
X52121000Y-45696325D01*
X52121000Y-45856475D01*
X52089758Y-46013542D01*
X52028471Y-46161501D01*
X51939501Y-46294655D01*
X51826255Y-46407901D01*
X51693101Y-46496871D01*
X51545142Y-46558158D01*
X51388075Y-46589400D01*
X51227925Y-46589400D01*
X51070858Y-46558158D01*
X50922899Y-46496871D01*
X50789745Y-46407901D01*
X50676499Y-46294655D01*
X50587529Y-46161501D01*
X50526242Y-46013542D01*
X50495000Y-45856475D01*
X50495000Y-45696325D01*
X50526242Y-45539258D01*
X50587528Y-45391302D01*
X50637587Y-45316383D01*
X50649138Y-45294772D01*
X50656251Y-45271323D01*
X50658653Y-45246937D01*
X50656251Y-45222551D01*
X50649138Y-45199102D01*
X50637587Y-45177491D01*
X50622042Y-45158549D01*
X50603100Y-45143004D01*
X50581489Y-45131453D01*
X50558040Y-45124340D01*
X50533654Y-45121938D01*
X50509268Y-45124340D01*
X50485819Y-45131453D01*
X50464209Y-45143004D01*
X50423101Y-45170471D01*
X50275142Y-45231758D01*
X50118075Y-45263000D01*
X49957925Y-45263000D01*
X49800858Y-45231758D01*
X49652899Y-45170471D01*
X49611791Y-45143004D01*
X49590180Y-45131453D01*
X49566731Y-45124340D01*
X49542345Y-45121938D01*
X49517959Y-45124340D01*
X49494510Y-45131453D01*
X49472899Y-45143005D01*
X49453958Y-45158550D01*
X49438413Y-45177492D01*
X49426862Y-45199103D01*
X49419749Y-45222552D01*
X49417347Y-45246938D01*
X49419749Y-45271324D01*
X49426862Y-45294773D01*
X49438413Y-45316383D01*
X49488472Y-45391302D01*
X49549758Y-45539258D01*
X49581000Y-45696325D01*
X49581000Y-45856475D01*
X49549758Y-46013542D01*
X49488471Y-46161501D01*
X49399501Y-46294655D01*
X49286255Y-46407901D01*
X49153101Y-46496871D01*
X49005142Y-46558158D01*
X48848075Y-46589400D01*
X48687925Y-46589400D01*
X48530858Y-46558158D01*
X48382899Y-46496871D01*
X48249745Y-46407901D01*
X48136499Y-46294655D01*
X48047529Y-46161501D01*
X47986242Y-46013542D01*
X47955000Y-45856475D01*
X47955000Y-45696325D01*
X47986242Y-45539258D01*
X48047528Y-45391302D01*
X48097587Y-45316383D01*
X48109138Y-45294772D01*
X48116251Y-45271323D01*
X48118653Y-45246937D01*
X48116251Y-45222551D01*
X48109138Y-45199102D01*
X48097587Y-45177491D01*
X48082042Y-45158549D01*
X48063100Y-45143004D01*
X48041489Y-45131453D01*
X48018040Y-45124340D01*
X47993654Y-45121938D01*
X47969268Y-45124340D01*
X47945819Y-45131453D01*
X47924209Y-45143004D01*
X47883101Y-45170471D01*
X47735142Y-45231758D01*
X47578075Y-45263000D01*
X47417925Y-45263000D01*
X47260858Y-45231758D01*
X47112899Y-45170471D01*
X47071791Y-45143004D01*
X47050180Y-45131453D01*
X47026731Y-45124340D01*
X47002345Y-45121938D01*
X46977959Y-45124340D01*
X46954510Y-45131453D01*
X46932899Y-45143005D01*
X46913958Y-45158550D01*
X46898413Y-45177492D01*
X46886862Y-45199103D01*
X46879749Y-45222552D01*
X46877347Y-45246938D01*
X46879749Y-45271324D01*
X46886862Y-45294773D01*
X46898413Y-45316383D01*
X46948472Y-45391302D01*
X47009758Y-45539258D01*
X47041000Y-45696325D01*
X47041000Y-45856475D01*
X47009758Y-46013542D01*
X46948471Y-46161501D01*
X46859501Y-46294655D01*
X46746255Y-46407901D01*
X46613101Y-46496871D01*
X46465142Y-46558158D01*
X46308075Y-46589400D01*
X46147925Y-46589400D01*
X45990858Y-46558158D01*
X45842899Y-46496871D01*
X45709745Y-46407901D01*
X45596499Y-46294655D01*
X45507529Y-46161501D01*
X45446242Y-46013542D01*
X45415000Y-45856475D01*
X45415000Y-45696325D01*
X45446242Y-45539258D01*
X45507528Y-45391302D01*
X45557587Y-45316383D01*
X45569138Y-45294772D01*
X45576251Y-45271323D01*
X45578653Y-45246937D01*
X45576251Y-45222551D01*
X45569138Y-45199102D01*
X45557587Y-45177491D01*
X45542042Y-45158549D01*
X45523100Y-45143004D01*
X45501489Y-45131453D01*
X45478040Y-45124340D01*
X45453654Y-45121938D01*
X45429268Y-45124340D01*
X45405819Y-45131453D01*
X45384209Y-45143004D01*
X45343101Y-45170471D01*
X45195142Y-45231758D01*
X45038075Y-45263000D01*
X44877925Y-45263000D01*
X44720858Y-45231758D01*
X44572899Y-45170471D01*
X44531791Y-45143004D01*
X44510180Y-45131453D01*
X44486731Y-45124340D01*
X44462345Y-45121938D01*
X44437959Y-45124340D01*
X44414510Y-45131453D01*
X44392899Y-45143005D01*
X44373958Y-45158550D01*
X44358413Y-45177492D01*
X44346862Y-45199103D01*
X44339749Y-45222552D01*
X44337347Y-45246938D01*
X44339749Y-45271324D01*
X44346862Y-45294773D01*
X44358413Y-45316383D01*
X44408472Y-45391302D01*
X44469758Y-45539258D01*
X44501000Y-45696325D01*
X44501000Y-45856475D01*
X44469758Y-46013542D01*
X44408471Y-46161501D01*
X44319501Y-46294655D01*
X44206255Y-46407901D01*
X44073101Y-46496871D01*
X43925142Y-46558158D01*
X43768075Y-46589400D01*
X43607925Y-46589400D01*
X43450858Y-46558158D01*
X43302899Y-46496871D01*
X43169745Y-46407901D01*
X43056499Y-46294655D01*
X42967529Y-46161501D01*
X42906242Y-46013542D01*
X42875000Y-45856475D01*
X42875000Y-45696325D01*
X42906242Y-45539258D01*
X42967528Y-45391302D01*
X43017587Y-45316383D01*
X43029138Y-45294772D01*
X43036251Y-45271323D01*
X43038653Y-45246937D01*
X43036251Y-45222551D01*
X43029138Y-45199102D01*
X43017587Y-45177491D01*
X43002042Y-45158549D01*
X42983100Y-45143004D01*
X42961489Y-45131453D01*
X42938040Y-45124340D01*
X42913654Y-45121938D01*
X42889268Y-45124340D01*
X42865819Y-45131453D01*
X42844209Y-45143004D01*
X42803101Y-45170471D01*
X42655142Y-45231758D01*
X42498075Y-45263000D01*
X42337925Y-45263000D01*
X42180858Y-45231758D01*
X42032899Y-45170471D01*
X41991791Y-45143004D01*
X41970180Y-45131453D01*
X41946731Y-45124340D01*
X41922345Y-45121938D01*
X41897959Y-45124340D01*
X41874510Y-45131453D01*
X41852899Y-45143005D01*
X41833958Y-45158550D01*
X41818413Y-45177492D01*
X41806862Y-45199103D01*
X41799749Y-45222552D01*
X41797347Y-45246938D01*
X41799749Y-45271324D01*
X41806862Y-45294773D01*
X41818413Y-45316383D01*
X41868472Y-45391302D01*
X41929758Y-45539258D01*
X41961000Y-45696325D01*
X41961000Y-45856475D01*
X41929758Y-46013542D01*
X41868471Y-46161501D01*
X41779501Y-46294655D01*
X41666255Y-46407901D01*
X41533101Y-46496871D01*
X41385142Y-46558158D01*
X41228075Y-46589400D01*
X41067925Y-46589400D01*
X40910858Y-46558158D01*
X40762899Y-46496871D01*
X40629745Y-46407901D01*
X40516499Y-46294655D01*
X40427529Y-46161501D01*
X40366242Y-46013542D01*
X40335000Y-45856475D01*
X40335000Y-45696325D01*
X40366242Y-45539258D01*
X40427528Y-45391302D01*
X40477587Y-45316383D01*
X40489138Y-45294772D01*
X40496251Y-45271323D01*
X40498653Y-45246937D01*
X40496251Y-45222551D01*
X40489138Y-45199102D01*
X40477587Y-45177491D01*
X40462042Y-45158549D01*
X40443100Y-45143004D01*
X40421489Y-45131453D01*
X40398040Y-45124340D01*
X40373654Y-45121938D01*
X40349268Y-45124340D01*
X40325819Y-45131453D01*
X40304209Y-45143004D01*
X40263101Y-45170471D01*
X40115142Y-45231758D01*
X39958075Y-45263000D01*
X39797925Y-45263000D01*
X39640858Y-45231758D01*
X39492899Y-45170471D01*
X39451791Y-45143004D01*
X39430180Y-45131453D01*
X39406731Y-45124340D01*
X39382345Y-45121938D01*
X39357959Y-45124340D01*
X39334510Y-45131453D01*
X39312899Y-45143005D01*
X39293958Y-45158550D01*
X39278413Y-45177492D01*
X39266862Y-45199103D01*
X39259749Y-45222552D01*
X39257347Y-45246938D01*
X39259749Y-45271324D01*
X39266862Y-45294773D01*
X39278413Y-45316383D01*
X39328472Y-45391302D01*
X39389758Y-45539258D01*
X39421000Y-45696325D01*
X39421000Y-45856475D01*
X39389758Y-46013542D01*
X39328471Y-46161501D01*
X39239501Y-46294655D01*
X39126255Y-46407901D01*
X38993101Y-46496871D01*
X38845142Y-46558158D01*
X38688075Y-46589400D01*
X38527925Y-46589400D01*
X38370858Y-46558158D01*
X38222899Y-46496871D01*
X38089745Y-46407901D01*
X37976499Y-46294655D01*
X37887529Y-46161501D01*
X37826242Y-46013542D01*
X37795000Y-45856475D01*
X37795000Y-45696325D01*
X37826242Y-45539258D01*
X37887528Y-45391302D01*
X37937587Y-45316383D01*
X37949138Y-45294772D01*
X37956251Y-45271323D01*
X37958653Y-45246937D01*
X37956251Y-45222551D01*
X37949138Y-45199102D01*
X37937587Y-45177491D01*
X37922042Y-45158549D01*
X37903100Y-45143004D01*
X37881489Y-45131453D01*
X37858040Y-45124340D01*
X37833654Y-45121938D01*
X37809268Y-45124340D01*
X37785819Y-45131453D01*
X37764209Y-45143004D01*
X37723101Y-45170471D01*
X37575142Y-45231758D01*
X37418075Y-45263000D01*
X37257925Y-45263000D01*
X37100858Y-45231758D01*
X36952899Y-45170471D01*
X36911791Y-45143004D01*
X36890180Y-45131453D01*
X36866731Y-45124340D01*
X36842345Y-45121938D01*
X36817959Y-45124340D01*
X36794510Y-45131453D01*
X36772899Y-45143005D01*
X36753958Y-45158550D01*
X36738413Y-45177492D01*
X36726862Y-45199103D01*
X36719749Y-45222552D01*
X36717347Y-45246938D01*
X36719749Y-45271324D01*
X36726862Y-45294773D01*
X36738413Y-45316383D01*
X36788472Y-45391302D01*
X36849758Y-45539258D01*
X36881000Y-45696325D01*
X36881000Y-45856475D01*
X36849758Y-46013542D01*
X36788471Y-46161501D01*
X36699501Y-46294655D01*
X36586255Y-46407901D01*
X36453101Y-46496871D01*
X36305142Y-46558158D01*
X36148075Y-46589400D01*
X35987925Y-46589400D01*
X35830858Y-46558158D01*
X35682899Y-46496871D01*
X35549745Y-46407901D01*
X35436499Y-46294655D01*
X35347529Y-46161501D01*
X35286242Y-46013542D01*
X35255000Y-45856475D01*
X35255000Y-45696325D01*
X35286242Y-45539258D01*
X35347528Y-45391302D01*
X35397587Y-45316383D01*
X35409138Y-45294772D01*
X35416251Y-45271323D01*
X35418653Y-45246937D01*
X35416251Y-45222551D01*
X35409138Y-45199102D01*
X35397587Y-45177491D01*
X35382042Y-45158549D01*
X35363100Y-45143004D01*
X35341489Y-45131453D01*
X35318040Y-45124340D01*
X35293654Y-45121938D01*
X35269268Y-45124340D01*
X35245819Y-45131453D01*
X35224209Y-45143004D01*
X35183101Y-45170471D01*
X35035142Y-45231758D01*
X34878075Y-45263000D01*
X34717925Y-45263000D01*
X34560858Y-45231758D01*
X34412899Y-45170471D01*
X34371791Y-45143004D01*
X34350180Y-45131453D01*
X34326731Y-45124340D01*
X34302345Y-45121938D01*
X34277959Y-45124340D01*
X34254510Y-45131453D01*
X34232899Y-45143005D01*
X34213958Y-45158550D01*
X34198413Y-45177492D01*
X34186862Y-45199103D01*
X34179749Y-45222552D01*
X34177347Y-45246938D01*
X34179749Y-45271324D01*
X34186862Y-45294773D01*
X34198413Y-45316383D01*
X34248472Y-45391302D01*
X34309758Y-45539258D01*
X34341000Y-45696325D01*
X34341000Y-45856475D01*
X34309758Y-46013542D01*
X34248471Y-46161501D01*
X34159501Y-46294655D01*
X34046255Y-46407901D01*
X33913101Y-46496871D01*
X33765142Y-46558158D01*
X33608075Y-46589400D01*
X33447925Y-46589400D01*
X33290858Y-46558158D01*
X33142899Y-46496871D01*
X33009745Y-46407901D01*
X32896499Y-46294655D01*
X32807529Y-46161501D01*
X32746242Y-46013542D01*
X32715000Y-45856475D01*
X32715000Y-45696325D01*
X32746242Y-45539258D01*
X32807528Y-45391302D01*
X32857587Y-45316383D01*
X32869138Y-45294772D01*
X32876251Y-45271323D01*
X32878653Y-45246937D01*
X32876251Y-45222551D01*
X32869138Y-45199102D01*
X32857587Y-45177491D01*
X32842042Y-45158549D01*
X32823100Y-45143004D01*
X32801489Y-45131453D01*
X32778040Y-45124340D01*
X32753654Y-45121938D01*
X32729268Y-45124340D01*
X32705819Y-45131453D01*
X32684209Y-45143004D01*
X32643101Y-45170471D01*
X32495142Y-45231758D01*
X32338075Y-45263000D01*
X32177925Y-45263000D01*
X32020858Y-45231758D01*
X31872899Y-45170471D01*
X31739745Y-45081501D01*
X31626499Y-44968255D01*
X31537529Y-44835101D01*
X31476242Y-44687142D01*
X31445000Y-44530075D01*
X31445000Y-44369925D01*
X31476242Y-44212858D01*
X31537529Y-44064899D01*
X31626499Y-43931745D01*
X31739745Y-43818499D01*
X31872899Y-43729529D01*
X32020858Y-43668242D01*
X32177925Y-43637000D01*
X32338075Y-43637000D01*
X32495142Y-43668242D01*
G37*
G36*
X76924020Y-44162615D02*
G01*
X76997428Y-44169845D01*
X77138709Y-44212702D01*
X77138711Y-44212703D01*
X77268913Y-44282298D01*
X77383041Y-44375959D01*
X77476702Y-44490087D01*
X77498076Y-44530075D01*
X77546298Y-44620291D01*
X77589155Y-44761572D01*
X77603626Y-44908500D01*
X77589155Y-45055428D01*
X77552127Y-45177492D01*
X77546297Y-45196711D01*
X77476702Y-45326913D01*
X77383041Y-45441041D01*
X77268913Y-45534702D01*
X77260389Y-45539258D01*
X77138709Y-45604298D01*
X76997428Y-45647155D01*
X76924020Y-45654385D01*
X76887317Y-45658000D01*
X76432683Y-45658000D01*
X76395980Y-45654385D01*
X76322572Y-45647155D01*
X76181291Y-45604298D01*
X76059611Y-45539258D01*
X76051087Y-45534702D01*
X75936959Y-45441041D01*
X75843298Y-45326913D01*
X75773703Y-45196711D01*
X75767873Y-45177492D01*
X75730845Y-45055428D01*
X75716374Y-44908500D01*
X75730845Y-44761572D01*
X75773702Y-44620291D01*
X75821924Y-44530075D01*
X75843298Y-44490087D01*
X75936959Y-44375959D01*
X76051087Y-44282298D01*
X76181289Y-44212703D01*
X76181291Y-44212702D01*
X76322572Y-44169845D01*
X76395980Y-44162615D01*
X76432683Y-44159000D01*
X76887317Y-44159000D01*
X76924020Y-44162615D01*
G37*
G36*
X71600000Y-45658000D02*
G01*
X69720000Y-45658000D01*
X69720000Y-44159000D01*
X71600000Y-44159000D01*
X71600000Y-45658000D01*
G37*
G36*
X85226626Y-41382037D02*
G01*
X85396465Y-41433557D01*
X85396467Y-41433558D01*
X85552989Y-41517221D01*
X85690186Y-41629814D01*
X85773448Y-41731271D01*
X85802778Y-41767009D01*
X85886443Y-41923534D01*
X85937963Y-42093373D01*
X85951000Y-42225742D01*
X85951000Y-43114258D01*
X85937963Y-43246627D01*
X85886443Y-43416466D01*
X85802778Y-43572991D01*
X85773448Y-43608729D01*
X85690186Y-43710186D01*
X85588729Y-43793448D01*
X85552991Y-43822778D01*
X85396466Y-43906443D01*
X85226627Y-43957963D01*
X85050000Y-43975359D01*
X84873374Y-43957963D01*
X84703535Y-43906443D01*
X84547010Y-43822778D01*
X84511272Y-43793448D01*
X84409815Y-43710186D01*
X84326553Y-43608729D01*
X84297223Y-43572991D01*
X84213558Y-43416466D01*
X84162038Y-43246627D01*
X84149000Y-43114258D01*
X84149000Y-42225743D01*
X84162037Y-42093374D01*
X84213557Y-41923535D01*
X84297222Y-41767010D01*
X84297223Y-41767009D01*
X84409814Y-41629814D01*
X84542406Y-41521000D01*
X84547009Y-41517222D01*
X84703534Y-41433557D01*
X84873373Y-41382037D01*
X85050000Y-41364641D01*
X85226626Y-41382037D01*
G37*
G36*
X91176626Y-41382037D02*
G01*
X91346465Y-41433557D01*
X91346467Y-41433558D01*
X91502989Y-41517221D01*
X91640186Y-41629814D01*
X91723448Y-41731271D01*
X91752778Y-41767009D01*
X91836443Y-41923534D01*
X91887963Y-42093373D01*
X91901000Y-42225742D01*
X91901000Y-43114258D01*
X91887963Y-43246627D01*
X91836443Y-43416466D01*
X91752778Y-43572991D01*
X91723448Y-43608729D01*
X91640186Y-43710186D01*
X91538729Y-43793448D01*
X91502991Y-43822778D01*
X91346466Y-43906443D01*
X91176627Y-43957963D01*
X91000000Y-43975359D01*
X90823374Y-43957963D01*
X90653535Y-43906443D01*
X90497010Y-43822778D01*
X90461272Y-43793448D01*
X90359815Y-43710186D01*
X90276553Y-43608729D01*
X90247223Y-43572991D01*
X90163558Y-43416466D01*
X90112038Y-43246627D01*
X90099000Y-43114258D01*
X90099000Y-42225743D01*
X90112037Y-42093374D01*
X90163557Y-41923535D01*
X90247222Y-41767010D01*
X90247223Y-41767009D01*
X90359814Y-41629814D01*
X90492406Y-41521000D01*
X90497009Y-41517222D01*
X90653534Y-41433557D01*
X90823373Y-41382037D01*
X91000000Y-41364641D01*
X91176626Y-41382037D01*
G37*
G36*
X87339890Y-40244017D02*
G01*
X87458364Y-40293091D01*
X87564988Y-40364335D01*
X87655665Y-40455012D01*
X87726909Y-40561636D01*
X87775983Y-40680110D01*
X87801000Y-40805882D01*
X87801000Y-40934118D01*
X87775983Y-41059890D01*
X87726909Y-41178364D01*
X87655665Y-41284988D01*
X87564988Y-41375665D01*
X87458364Y-41446909D01*
X87458363Y-41446910D01*
X87458362Y-41446910D01*
X87339890Y-41495983D01*
X87214119Y-41521000D01*
X87085881Y-41521000D01*
X86960110Y-41495983D01*
X86841638Y-41446910D01*
X86841637Y-41446910D01*
X86841636Y-41446909D01*
X86735012Y-41375665D01*
X86644335Y-41284988D01*
X86573091Y-41178364D01*
X86524017Y-41059890D01*
X86499000Y-40934118D01*
X86499000Y-40805882D01*
X86524017Y-40680110D01*
X86573091Y-40561636D01*
X86644335Y-40455012D01*
X86735012Y-40364335D01*
X86841636Y-40293091D01*
X86960110Y-40244017D01*
X87085881Y-40219000D01*
X87214119Y-40219000D01*
X87339890Y-40244017D01*
G37*
G36*
X89089890Y-40244017D02*
G01*
X89208364Y-40293091D01*
X89314988Y-40364335D01*
X89405665Y-40455012D01*
X89476909Y-40561636D01*
X89525983Y-40680110D01*
X89551000Y-40805882D01*
X89551000Y-40934118D01*
X89525983Y-41059890D01*
X89476909Y-41178364D01*
X89405665Y-41284988D01*
X89314988Y-41375665D01*
X89208364Y-41446909D01*
X89208363Y-41446910D01*
X89208362Y-41446910D01*
X89089890Y-41495983D01*
X88964119Y-41521000D01*
X88835881Y-41521000D01*
X88710110Y-41495983D01*
X88591638Y-41446910D01*
X88591637Y-41446910D01*
X88591636Y-41446909D01*
X88485012Y-41375665D01*
X88394335Y-41284988D01*
X88323091Y-41178364D01*
X88274017Y-41059890D01*
X88249000Y-40934118D01*
X88249000Y-40805882D01*
X88274017Y-40680110D01*
X88323091Y-40561636D01*
X88394335Y-40455012D01*
X88485012Y-40364335D01*
X88591636Y-40293091D01*
X88710110Y-40244017D01*
X88835881Y-40219000D01*
X88964119Y-40219000D01*
X89089890Y-40244017D01*
G37*
M02*
