M48
; DRILL file {KiCad 5.1.5+dfsg1-2build2} date 2021年09月26日 21時56分00秒
; FORMAT={-:-/ absolute / metric / decimal}
; #@! TF.CreationDate,2021-09-26T21:56:00+09:00
; #@! TF.GenerationSoftware,Kicad,Pcbnew,5.1.5+dfsg1-2build2
FMAT,2
METRIC
T1C0.400
T2C0.800
T3C0.813
T4C1.000
T5C1.300
T6C1.200
T7C1.500
T8C1.900
T9C4.000
%
G90
G05
T1
X47.498Y-63.8
T3
X70.66Y-54.61
X76.66Y-54.61
X32.258Y-44.45
X32.258Y-59.69
X33.528Y-45.776
X33.528Y-60.996
X34.798Y-44.45
X34.798Y-59.69
X36.068Y-45.776
X36.068Y-60.996
X37.338Y-44.45
X37.338Y-59.69
X38.608Y-45.776
X38.608Y-60.996
X39.878Y-44.45
X39.878Y-59.69
X41.148Y-45.776
X41.148Y-60.996
X42.418Y-44.45
X42.418Y-59.69
X43.688Y-45.776
X43.688Y-60.996
X44.958Y-44.45
X44.958Y-59.69
X46.228Y-45.776
X46.228Y-60.996
X47.498Y-44.45
X47.498Y-59.69
X48.768Y-45.776
X48.768Y-60.996
X50.038Y-44.45
X50.038Y-59.69
X51.308Y-45.776
X51.308Y-60.996
X52.578Y-44.45
X52.578Y-59.69
X53.848Y-45.776
X53.848Y-60.996
X55.118Y-44.45
X55.118Y-59.69
X56.388Y-45.776
X56.388Y-60.996
X57.658Y-44.45
X57.658Y-59.69
X58.928Y-45.776
X58.928Y-60.996
X60.198Y-44.45
X60.198Y-59.69
X61.468Y-45.776
X61.468Y-60.996
X70.66Y-59.69
X76.66Y-59.69
X70.66Y-44.908
X76.66Y-44.908
X70.66Y-49.53
X76.66Y-49.53
T4
X76.32Y-70.665
X76.32Y-73.165
X76.32Y-75.665
X90.82Y-70.665
X90.82Y-75.665
T5
X84.38Y-58.42
X90.88Y-58.42
T6
X87.15Y-40.87
X87.15Y-47.87
X88.9Y-40.87
X88.9Y-47.87
T8
X36.19Y-75.64
X46.35Y-75.64
X57.66Y-97.11
X67.82Y-97.11
X36.19Y-97.11
X46.35Y-97.11
X57.66Y-75.64
X67.82Y-75.64
T9
X62.74Y-97.11
X62.74Y-75.64
X41.27Y-75.64
X41.27Y-97.11
T2
G00X58.73Y-94.57
M15
G01X59.13Y-94.57
M16
G05
G00X65.08Y-92.03
M15
G01X65.48Y-92.03
M16
G05
G00X37.26Y-94.57
M15
G01X37.66Y-94.57
M16
G05
G00X43.61Y-92.03
M15
G01X44.01Y-92.03
M16
G05
G00X58.73Y-73.1
M15
G01X59.13Y-73.1
M16
G05
G00X65.08Y-70.56
M15
G01X65.48Y-70.56
M16
G05
G00X37.26Y-73.1
M15
G01X37.66Y-73.1
M16
G05
G00X43.61Y-70.56
M15
G01X44.01Y-70.56
M16
G05
T4
G00X85.05Y-42.42
M15
G01X85.05Y-42.92
M16
G05
G00X85.05Y-45.42
M15
G01X85.05Y-45.92
M16
G05
G00X85.05Y-49.42
M15
G01X85.05Y-49.92
M16
G05
G00X86.8Y-50.92
M15
G01X86.8Y-51.42
M16
G05
G00X89.25Y-50.92
M15
G01X89.25Y-51.42
M16
G05
G00X91.0Y-42.42
M15
G01X91.0Y-42.92
M16
G05
G00X91.0Y-45.42
M15
G01X91.0Y-45.92
M16
G05
G00X91.0Y-49.42
M15
G01X91.0Y-49.92
M16
G05
T7
G00X83.17Y-67.565
M15
G01X84.47Y-67.565
M16
G05
G00X83.17Y-78.765
M15
G01X84.47Y-78.765
M16
G05
T0
M30
