G04 #@! TF.GenerationSoftware,KiCad,Pcbnew,5.1.5+dfsg1-2build2*
G04 #@! TF.CreationDate,2021-09-26T21:55:54+09:00*
G04 #@! TF.ProjectId,kbtest,6b627465-7374-42e6-9b69-6361645f7063,rev?*
G04 #@! TF.SameCoordinates,Original*
G04 #@! TF.FileFunction,Legend,Top*
G04 #@! TF.FilePolarity,Positive*
%FSLAX46Y46*%
G04 Gerber Fmt 4.6, Leading zero omitted, Abs format (unit mm)*
G04 Created by KiCad (PCBNEW 5.1.5+dfsg1-2build2) date 2021-09-26 21:55:54*
%MOMM*%
%LPD*%
G04 APERTURE LIST*
%ADD10C,0.150000*%
%ADD11C,0.120000*%
%ADD12C,0.125000*%
G04 APERTURE END LIST*
D10*
X73260000Y-44908500D02*
X74160000Y-44408500D01*
X74160000Y-44408500D02*
X74160000Y-45408500D01*
X74160000Y-45408500D02*
X73260000Y-44908500D01*
X73160000Y-44408500D02*
X73160000Y-45408500D01*
X73160000Y-54110000D02*
X73160000Y-55110000D01*
X74160000Y-55110000D02*
X73260000Y-54610000D01*
X74160000Y-54110000D02*
X74160000Y-55110000D01*
X73260000Y-54610000D02*
X74160000Y-54110000D01*
X73260000Y-49530000D02*
X74160000Y-49030000D01*
X74160000Y-49030000D02*
X74160000Y-50030000D01*
X74160000Y-50030000D02*
X73260000Y-49530000D01*
X73160000Y-49030000D02*
X73160000Y-50030000D01*
X73160000Y-59190000D02*
X73160000Y-60190000D01*
X74160000Y-60190000D02*
X73260000Y-59690000D01*
X74160000Y-59190000D02*
X74160000Y-60190000D01*
X73260000Y-59690000D02*
X74160000Y-59190000D01*
X85900000Y-39370000D02*
X91900000Y-39370000D01*
X91900000Y-39370000D02*
X91900000Y-51370000D01*
X91900000Y-51370000D02*
X85900000Y-51370000D01*
X85900000Y-51370000D02*
X85900000Y-39370000D01*
X84630000Y-60170000D02*
X90630000Y-60170000D01*
X90630000Y-60170000D02*
X90630000Y-59920000D01*
X84630000Y-60170000D02*
X84630000Y-59920000D01*
X84630000Y-56670000D02*
X84630000Y-56920000D01*
X84630000Y-56670000D02*
X90630000Y-56670000D01*
X90630000Y-56670000D02*
X90630000Y-56920000D01*
D11*
X86820000Y-73165000D02*
G75*
G03X86820000Y-73165000I-3000000J0D01*
G01*
X85820000Y-67265000D02*
X89920000Y-67265000D01*
X89920000Y-79065000D02*
X85820000Y-79065000D01*
X81820000Y-79065000D02*
X77720000Y-79065000D01*
X81820000Y-67265000D02*
X77720000Y-67265000D01*
X77720000Y-67265000D02*
X77720000Y-79065000D01*
X76320000Y-69365000D02*
X76020000Y-69065000D01*
X76020000Y-69065000D02*
X76620000Y-69065000D01*
X76620000Y-69065000D02*
X76320000Y-69365000D01*
X89920000Y-67265000D02*
X89920000Y-69665000D01*
X89920000Y-71865000D02*
X89920000Y-74465000D01*
X89920000Y-76665000D02*
X89920000Y-79065000D01*
X83820000Y-72665000D02*
X83820000Y-73665000D01*
X83320000Y-73165000D02*
X84320000Y-73165000D01*
D10*
X32258000Y-59726400D02*
X62738000Y-59726400D01*
X32258000Y-62266400D02*
X32258000Y-59726400D01*
X62738000Y-62266400D02*
X32258000Y-62266400D01*
X62738000Y-59726400D02*
X62738000Y-62266400D01*
X32258000Y-44506400D02*
X62738000Y-44506400D01*
X32258000Y-47046400D02*
X32258000Y-44506400D01*
X62738000Y-47046400D02*
X32258000Y-47046400D01*
X62738000Y-44506400D02*
X62738000Y-47046400D01*
X86388095Y-45272380D02*
X86959523Y-45272380D01*
X86673809Y-46272380D02*
X86673809Y-45272380D01*
X87864285Y-46272380D02*
X87530952Y-45796190D01*
X87292857Y-46272380D02*
X87292857Y-45272380D01*
X87673809Y-45272380D01*
X87769047Y-45320000D01*
X87816666Y-45367619D01*
X87864285Y-45462857D01*
X87864285Y-45605714D01*
X87816666Y-45700952D01*
X87769047Y-45748571D01*
X87673809Y-45796190D01*
X87292857Y-45796190D01*
X88864285Y-46272380D02*
X88530952Y-45796190D01*
X88292857Y-46272380D02*
X88292857Y-45272380D01*
X88673809Y-45272380D01*
X88769047Y-45320000D01*
X88816666Y-45367619D01*
X88864285Y-45462857D01*
X88864285Y-45605714D01*
X88816666Y-45700952D01*
X88769047Y-45748571D01*
X88673809Y-45796190D01*
X88292857Y-45796190D01*
X89245238Y-46224761D02*
X89388095Y-46272380D01*
X89626190Y-46272380D01*
X89721428Y-46224761D01*
X89769047Y-46177142D01*
X89816666Y-46081904D01*
X89816666Y-45986666D01*
X89769047Y-45891428D01*
X89721428Y-45843809D01*
X89626190Y-45796190D01*
X89435714Y-45748571D01*
X89340476Y-45700952D01*
X89292857Y-45653333D01*
X89245238Y-45558095D01*
X89245238Y-45462857D01*
X89292857Y-45367619D01*
X89340476Y-45320000D01*
X89435714Y-45272380D01*
X89673809Y-45272380D01*
X89816666Y-45320000D01*
X74656666Y-94802380D02*
X74990000Y-95802380D01*
X75323333Y-94802380D01*
X76228095Y-95707142D02*
X76180476Y-95754761D01*
X76037619Y-95802380D01*
X75942380Y-95802380D01*
X75799523Y-95754761D01*
X75704285Y-95659523D01*
X75656666Y-95564285D01*
X75609047Y-95373809D01*
X75609047Y-95230952D01*
X75656666Y-95040476D01*
X75704285Y-94945238D01*
X75799523Y-94850000D01*
X75942380Y-94802380D01*
X76037619Y-94802380D01*
X76180476Y-94850000D01*
X76228095Y-94897619D01*
X77228095Y-95707142D02*
X77180476Y-95754761D01*
X77037619Y-95802380D01*
X76942380Y-95802380D01*
X76799523Y-95754761D01*
X76704285Y-95659523D01*
X76656666Y-95564285D01*
X76609047Y-95373809D01*
X76609047Y-95230952D01*
X76656666Y-95040476D01*
X76704285Y-94945238D01*
X76799523Y-94850000D01*
X76942380Y-94802380D01*
X77037619Y-94802380D01*
X77180476Y-94850000D01*
X77228095Y-94897619D01*
X75387142Y-98262380D02*
X74910952Y-98262380D01*
X74910952Y-97262380D01*
X75720476Y-97738571D02*
X76053809Y-97738571D01*
X76196666Y-98262380D02*
X75720476Y-98262380D01*
X75720476Y-97262380D01*
X76196666Y-97262380D01*
X76625238Y-98262380D02*
X76625238Y-97262380D01*
X76863333Y-97262380D01*
X77006190Y-97310000D01*
X77101428Y-97405238D01*
X77149047Y-97500476D01*
X77196666Y-97690952D01*
X77196666Y-97833809D01*
X77149047Y-98024285D01*
X77101428Y-98119523D01*
X77006190Y-98214761D01*
X76863333Y-98262380D01*
X76625238Y-98262380D01*
X75178095Y-99900000D02*
X75082857Y-99852380D01*
X74940000Y-99852380D01*
X74797142Y-99900000D01*
X74701904Y-99995238D01*
X74654285Y-100090476D01*
X74606666Y-100280952D01*
X74606666Y-100423809D01*
X74654285Y-100614285D01*
X74701904Y-100709523D01*
X74797142Y-100804761D01*
X74940000Y-100852380D01*
X75035238Y-100852380D01*
X75178095Y-100804761D01*
X75225714Y-100757142D01*
X75225714Y-100423809D01*
X75035238Y-100423809D01*
X75654285Y-100852380D02*
X75654285Y-99852380D01*
X76225714Y-100852380D01*
X76225714Y-99852380D01*
X76701904Y-100852380D02*
X76701904Y-99852380D01*
X76940000Y-99852380D01*
X77082857Y-99900000D01*
X77178095Y-99995238D01*
X77225714Y-100090476D01*
X77273333Y-100280952D01*
X77273333Y-100423809D01*
X77225714Y-100614285D01*
X77178095Y-100709523D01*
X77082857Y-100804761D01*
X76940000Y-100852380D01*
X76701904Y-100852380D01*
X86177619Y-58872380D02*
X85844285Y-58396190D01*
X85606190Y-58872380D02*
X85606190Y-57872380D01*
X85987142Y-57872380D01*
X86082380Y-57920000D01*
X86130000Y-57967619D01*
X86177619Y-58062857D01*
X86177619Y-58205714D01*
X86130000Y-58300952D01*
X86082380Y-58348571D01*
X85987142Y-58396190D01*
X85606190Y-58396190D01*
X86606190Y-58348571D02*
X86939523Y-58348571D01*
X87082380Y-58872380D02*
X86606190Y-58872380D01*
X86606190Y-57872380D01*
X87082380Y-57872380D01*
X87463333Y-58824761D02*
X87606190Y-58872380D01*
X87844285Y-58872380D01*
X87939523Y-58824761D01*
X87987142Y-58777142D01*
X88034761Y-58681904D01*
X88034761Y-58586666D01*
X87987142Y-58491428D01*
X87939523Y-58443809D01*
X87844285Y-58396190D01*
X87653809Y-58348571D01*
X87558571Y-58300952D01*
X87510952Y-58253333D01*
X87463333Y-58158095D01*
X87463333Y-58062857D01*
X87510952Y-57967619D01*
X87558571Y-57920000D01*
X87653809Y-57872380D01*
X87891904Y-57872380D01*
X88034761Y-57920000D01*
X88463333Y-58348571D02*
X88796666Y-58348571D01*
X88939523Y-58872380D02*
X88463333Y-58872380D01*
X88463333Y-57872380D01*
X88939523Y-57872380D01*
X89225238Y-57872380D02*
X89796666Y-57872380D01*
X89510952Y-58872380D02*
X89510952Y-57872380D01*
D12*
X44027285Y-59220952D02*
X43670142Y-59387619D01*
X44027285Y-59506666D02*
X43277285Y-59506666D01*
X43277285Y-59316190D01*
X43313000Y-59268571D01*
X43348714Y-59244761D01*
X43420142Y-59220952D01*
X43527285Y-59220952D01*
X43598714Y-59244761D01*
X43634428Y-59268571D01*
X43670142Y-59316190D01*
X43670142Y-59506666D01*
X43277285Y-58911428D02*
X43277285Y-58816190D01*
X43313000Y-58768571D01*
X43384428Y-58720952D01*
X43527285Y-58697142D01*
X43777285Y-58697142D01*
X43920142Y-58720952D01*
X43991571Y-58768571D01*
X44027285Y-58816190D01*
X44027285Y-58911428D01*
X43991571Y-58959047D01*
X43920142Y-59006666D01*
X43777285Y-59030476D01*
X43527285Y-59030476D01*
X43384428Y-59006666D01*
X43313000Y-58959047D01*
X43277285Y-58911428D01*
X43277285Y-58530476D02*
X44027285Y-58411428D01*
X43491571Y-58316190D01*
X44027285Y-58220952D01*
X43277285Y-58101904D01*
X44027285Y-57649523D02*
X44027285Y-57935238D01*
X44027285Y-57792380D02*
X43277285Y-57792380D01*
X43384428Y-57840000D01*
X43455857Y-57887619D01*
X43491571Y-57935238D01*
X41407857Y-43937619D02*
X41443571Y-43961428D01*
X41479285Y-44032857D01*
X41479285Y-44080476D01*
X41443571Y-44151904D01*
X41372142Y-44199523D01*
X41300714Y-44223333D01*
X41157857Y-44247142D01*
X41050714Y-44247142D01*
X40907857Y-44223333D01*
X40836428Y-44199523D01*
X40765000Y-44151904D01*
X40729285Y-44080476D01*
X40729285Y-44032857D01*
X40765000Y-43961428D01*
X40800714Y-43937619D01*
X40729285Y-43628095D02*
X40729285Y-43532857D01*
X40765000Y-43485238D01*
X40836428Y-43437619D01*
X40979285Y-43413809D01*
X41229285Y-43413809D01*
X41372142Y-43437619D01*
X41443571Y-43485238D01*
X41479285Y-43532857D01*
X41479285Y-43628095D01*
X41443571Y-43675714D01*
X41372142Y-43723333D01*
X41229285Y-43747142D01*
X40979285Y-43747142D01*
X40836428Y-43723333D01*
X40765000Y-43675714D01*
X40729285Y-43628095D01*
X41479285Y-42961428D02*
X41479285Y-43199523D01*
X40729285Y-43199523D01*
X40979285Y-42580476D02*
X41479285Y-42580476D01*
X40693571Y-42699523D02*
X41229285Y-42818571D01*
X41229285Y-42509047D01*
X41479285Y-59170952D02*
X41122142Y-59337619D01*
X41479285Y-59456666D02*
X40729285Y-59456666D01*
X40729285Y-59266190D01*
X40765000Y-59218571D01*
X40800714Y-59194761D01*
X40872142Y-59170952D01*
X40979285Y-59170952D01*
X41050714Y-59194761D01*
X41086428Y-59218571D01*
X41122142Y-59266190D01*
X41122142Y-59456666D01*
X40729285Y-58861428D02*
X40729285Y-58766190D01*
X40765000Y-58718571D01*
X40836428Y-58670952D01*
X40979285Y-58647142D01*
X41229285Y-58647142D01*
X41372142Y-58670952D01*
X41443571Y-58718571D01*
X41479285Y-58766190D01*
X41479285Y-58861428D01*
X41443571Y-58909047D01*
X41372142Y-58956666D01*
X41229285Y-58980476D01*
X40979285Y-58980476D01*
X40836428Y-58956666D01*
X40765000Y-58909047D01*
X40729285Y-58861428D01*
X40729285Y-58480476D02*
X41479285Y-58361428D01*
X40943571Y-58266190D01*
X41479285Y-58170952D01*
X40729285Y-58051904D01*
X40800714Y-57885238D02*
X40765000Y-57861428D01*
X40729285Y-57813809D01*
X40729285Y-57694761D01*
X40765000Y-57647142D01*
X40800714Y-57623333D01*
X40872142Y-57599523D01*
X40943571Y-57599523D01*
X41050714Y-57623333D01*
X41479285Y-57909047D01*
X41479285Y-57599523D01*
X38812357Y-43937619D02*
X38848071Y-43961428D01*
X38883785Y-44032857D01*
X38883785Y-44080476D01*
X38848071Y-44151904D01*
X38776642Y-44199523D01*
X38705214Y-44223333D01*
X38562357Y-44247142D01*
X38455214Y-44247142D01*
X38312357Y-44223333D01*
X38240928Y-44199523D01*
X38169500Y-44151904D01*
X38133785Y-44080476D01*
X38133785Y-44032857D01*
X38169500Y-43961428D01*
X38205214Y-43937619D01*
X38133785Y-43628095D02*
X38133785Y-43532857D01*
X38169500Y-43485238D01*
X38240928Y-43437619D01*
X38383785Y-43413809D01*
X38633785Y-43413809D01*
X38776642Y-43437619D01*
X38848071Y-43485238D01*
X38883785Y-43532857D01*
X38883785Y-43628095D01*
X38848071Y-43675714D01*
X38776642Y-43723333D01*
X38633785Y-43747142D01*
X38383785Y-43747142D01*
X38240928Y-43723333D01*
X38169500Y-43675714D01*
X38133785Y-43628095D01*
X38883785Y-42961428D02*
X38883785Y-43199523D01*
X38133785Y-43199523D01*
X38133785Y-42556666D02*
X38133785Y-42794761D01*
X38490928Y-42818571D01*
X38455214Y-42794761D01*
X38419500Y-42747142D01*
X38419500Y-42628095D01*
X38455214Y-42580476D01*
X38490928Y-42556666D01*
X38562357Y-42532857D01*
X38740928Y-42532857D01*
X38812357Y-42556666D01*
X38848071Y-42580476D01*
X38883785Y-42628095D01*
X38883785Y-42747142D01*
X38848071Y-42794761D01*
X38812357Y-42818571D01*
X38883785Y-59170952D02*
X38526642Y-59337619D01*
X38883785Y-59456666D02*
X38133785Y-59456666D01*
X38133785Y-59266190D01*
X38169500Y-59218571D01*
X38205214Y-59194761D01*
X38276642Y-59170952D01*
X38383785Y-59170952D01*
X38455214Y-59194761D01*
X38490928Y-59218571D01*
X38526642Y-59266190D01*
X38526642Y-59456666D01*
X38133785Y-58861428D02*
X38133785Y-58766190D01*
X38169500Y-58718571D01*
X38240928Y-58670952D01*
X38383785Y-58647142D01*
X38633785Y-58647142D01*
X38776642Y-58670952D01*
X38848071Y-58718571D01*
X38883785Y-58766190D01*
X38883785Y-58861428D01*
X38848071Y-58909047D01*
X38776642Y-58956666D01*
X38633785Y-58980476D01*
X38383785Y-58980476D01*
X38240928Y-58956666D01*
X38169500Y-58909047D01*
X38133785Y-58861428D01*
X38133785Y-58480476D02*
X38883785Y-58361428D01*
X38348071Y-58266190D01*
X38883785Y-58170952D01*
X38133785Y-58051904D01*
X38133785Y-57909047D02*
X38133785Y-57599523D01*
X38419500Y-57766190D01*
X38419500Y-57694761D01*
X38455214Y-57647142D01*
X38490928Y-57623333D01*
X38562357Y-57599523D01*
X38740928Y-57599523D01*
X38812357Y-57623333D01*
X38848071Y-57647142D01*
X38883785Y-57694761D01*
X38883785Y-57837619D01*
X38848071Y-57885238D01*
X38812357Y-57909047D01*
X35986428Y-43592380D02*
X36022142Y-43520952D01*
X36057857Y-43497142D01*
X36129285Y-43473333D01*
X36236428Y-43473333D01*
X36307857Y-43497142D01*
X36343571Y-43520952D01*
X36379285Y-43568571D01*
X36379285Y-43759047D01*
X35629285Y-43759047D01*
X35629285Y-43592380D01*
X35665000Y-43544761D01*
X35700714Y-43520952D01*
X35772142Y-43497142D01*
X35843571Y-43497142D01*
X35915000Y-43520952D01*
X35950714Y-43544761D01*
X35986428Y-43592380D01*
X35986428Y-43759047D01*
X35700714Y-43282857D02*
X35665000Y-43259047D01*
X35629285Y-43211428D01*
X35629285Y-43092380D01*
X35665000Y-43044761D01*
X35700714Y-43020952D01*
X35772142Y-42997142D01*
X35843571Y-42997142D01*
X35950714Y-43020952D01*
X36379285Y-43306666D01*
X36379285Y-42997142D01*
X36014428Y-58742380D02*
X36050142Y-58670952D01*
X36085857Y-58647142D01*
X36157285Y-58623333D01*
X36264428Y-58623333D01*
X36335857Y-58647142D01*
X36371571Y-58670952D01*
X36407285Y-58718571D01*
X36407285Y-58909047D01*
X35657285Y-58909047D01*
X35657285Y-58742380D01*
X35693000Y-58694761D01*
X35728714Y-58670952D01*
X35800142Y-58647142D01*
X35871571Y-58647142D01*
X35943000Y-58670952D01*
X35978714Y-58694761D01*
X36014428Y-58742380D01*
X36014428Y-58909047D01*
X35907285Y-58194761D02*
X36407285Y-58194761D01*
X35621571Y-58313809D02*
X36157285Y-58432857D01*
X36157285Y-58123333D01*
X33410928Y-58742380D02*
X33446642Y-58670952D01*
X33482357Y-58647142D01*
X33553785Y-58623333D01*
X33660928Y-58623333D01*
X33732357Y-58647142D01*
X33768071Y-58670952D01*
X33803785Y-58718571D01*
X33803785Y-58909047D01*
X33053785Y-58909047D01*
X33053785Y-58742380D01*
X33089500Y-58694761D01*
X33125214Y-58670952D01*
X33196642Y-58647142D01*
X33268071Y-58647142D01*
X33339500Y-58670952D01*
X33375214Y-58694761D01*
X33410928Y-58742380D01*
X33410928Y-58909047D01*
X33053785Y-58170952D02*
X33053785Y-58409047D01*
X33410928Y-58432857D01*
X33375214Y-58409047D01*
X33339500Y-58361428D01*
X33339500Y-58242380D01*
X33375214Y-58194761D01*
X33410928Y-58170952D01*
X33482357Y-58147142D01*
X33660928Y-58147142D01*
X33732357Y-58170952D01*
X33768071Y-58194761D01*
X33803785Y-58242380D01*
X33803785Y-58361428D01*
X33768071Y-58409047D01*
X33732357Y-58432857D01*
X33436428Y-43492380D02*
X33472142Y-43420952D01*
X33507857Y-43397142D01*
X33579285Y-43373333D01*
X33686428Y-43373333D01*
X33757857Y-43397142D01*
X33793571Y-43420952D01*
X33829285Y-43468571D01*
X33829285Y-43659047D01*
X33079285Y-43659047D01*
X33079285Y-43492380D01*
X33115000Y-43444761D01*
X33150714Y-43420952D01*
X33222142Y-43397142D01*
X33293571Y-43397142D01*
X33365000Y-43420952D01*
X33400714Y-43444761D01*
X33436428Y-43492380D01*
X33436428Y-43659047D01*
X33079285Y-42944761D02*
X33079285Y-43040000D01*
X33115000Y-43087619D01*
X33150714Y-43111428D01*
X33257857Y-43159047D01*
X33400714Y-43182857D01*
X33686428Y-43182857D01*
X33757857Y-43159047D01*
X33793571Y-43135238D01*
X33829285Y-43087619D01*
X33829285Y-42992380D01*
X33793571Y-42944761D01*
X33757857Y-42920952D01*
X33686428Y-42897142D01*
X33507857Y-42897142D01*
X33436428Y-42920952D01*
X33400714Y-42944761D01*
X33365000Y-42992380D01*
X33365000Y-43087619D01*
X33400714Y-43135238D01*
X33436428Y-43159047D01*
X33507857Y-43182857D01*
X51557857Y-43987619D02*
X51593571Y-44011428D01*
X51629285Y-44082857D01*
X51629285Y-44130476D01*
X51593571Y-44201904D01*
X51522142Y-44249523D01*
X51450714Y-44273333D01*
X51307857Y-44297142D01*
X51200714Y-44297142D01*
X51057857Y-44273333D01*
X50986428Y-44249523D01*
X50915000Y-44201904D01*
X50879285Y-44130476D01*
X50879285Y-44082857D01*
X50915000Y-44011428D01*
X50950714Y-43987619D01*
X50879285Y-43678095D02*
X50879285Y-43582857D01*
X50915000Y-43535238D01*
X50986428Y-43487619D01*
X51129285Y-43463809D01*
X51379285Y-43463809D01*
X51522142Y-43487619D01*
X51593571Y-43535238D01*
X51629285Y-43582857D01*
X51629285Y-43678095D01*
X51593571Y-43725714D01*
X51522142Y-43773333D01*
X51379285Y-43797142D01*
X51129285Y-43797142D01*
X50986428Y-43773333D01*
X50915000Y-43725714D01*
X50879285Y-43678095D01*
X51629285Y-43011428D02*
X51629285Y-43249523D01*
X50879285Y-43249523D01*
X50879285Y-42749523D02*
X50879285Y-42701904D01*
X50915000Y-42654285D01*
X50950714Y-42630476D01*
X51022142Y-42606666D01*
X51165000Y-42582857D01*
X51343571Y-42582857D01*
X51486428Y-42606666D01*
X51557857Y-42630476D01*
X51593571Y-42654285D01*
X51629285Y-42701904D01*
X51629285Y-42749523D01*
X51593571Y-42797142D01*
X51557857Y-42820952D01*
X51486428Y-42844761D01*
X51343571Y-42868571D01*
X51165000Y-42868571D01*
X51022142Y-42844761D01*
X50950714Y-42820952D01*
X50915000Y-42797142D01*
X50879285Y-42749523D01*
X51611571Y-59408142D02*
X51647285Y-59336714D01*
X51647285Y-59217666D01*
X51611571Y-59170047D01*
X51575857Y-59146238D01*
X51504428Y-59122428D01*
X51433000Y-59122428D01*
X51361571Y-59146238D01*
X51325857Y-59170047D01*
X51290142Y-59217666D01*
X51254428Y-59312904D01*
X51218714Y-59360523D01*
X51183000Y-59384333D01*
X51111571Y-59408142D01*
X51040142Y-59408142D01*
X50968714Y-59384333D01*
X50933000Y-59360523D01*
X50897285Y-59312904D01*
X50897285Y-59193857D01*
X50933000Y-59122428D01*
X51647285Y-58908142D02*
X50897285Y-58908142D01*
X50897285Y-58789095D01*
X50933000Y-58717666D01*
X51004428Y-58670047D01*
X51075857Y-58646238D01*
X51218714Y-58622428D01*
X51325857Y-58622428D01*
X51468714Y-58646238D01*
X51540142Y-58670047D01*
X51611571Y-58717666D01*
X51647285Y-58789095D01*
X51647285Y-58908142D01*
X51433000Y-58431952D02*
X51433000Y-58193857D01*
X51647285Y-58479571D02*
X50897285Y-58312904D01*
X51647285Y-58146238D01*
X49035857Y-44037619D02*
X49071571Y-44061428D01*
X49107285Y-44132857D01*
X49107285Y-44180476D01*
X49071571Y-44251904D01*
X49000142Y-44299523D01*
X48928714Y-44323333D01*
X48785857Y-44347142D01*
X48678714Y-44347142D01*
X48535857Y-44323333D01*
X48464428Y-44299523D01*
X48393000Y-44251904D01*
X48357285Y-44180476D01*
X48357285Y-44132857D01*
X48393000Y-44061428D01*
X48428714Y-44037619D01*
X48357285Y-43728095D02*
X48357285Y-43632857D01*
X48393000Y-43585238D01*
X48464428Y-43537619D01*
X48607285Y-43513809D01*
X48857285Y-43513809D01*
X49000142Y-43537619D01*
X49071571Y-43585238D01*
X49107285Y-43632857D01*
X49107285Y-43728095D01*
X49071571Y-43775714D01*
X49000142Y-43823333D01*
X48857285Y-43847142D01*
X48607285Y-43847142D01*
X48464428Y-43823333D01*
X48393000Y-43775714D01*
X48357285Y-43728095D01*
X49107285Y-43061428D02*
X49107285Y-43299523D01*
X48357285Y-43299523D01*
X49107285Y-42632857D02*
X49107285Y-42918571D01*
X49107285Y-42775714D02*
X48357285Y-42775714D01*
X48464428Y-42823333D01*
X48535857Y-42870952D01*
X48571571Y-42918571D01*
X49071571Y-59396238D02*
X49107285Y-59324809D01*
X49107285Y-59205761D01*
X49071571Y-59158142D01*
X49035857Y-59134333D01*
X48964428Y-59110523D01*
X48893000Y-59110523D01*
X48821571Y-59134333D01*
X48785857Y-59158142D01*
X48750142Y-59205761D01*
X48714428Y-59301000D01*
X48678714Y-59348619D01*
X48643000Y-59372428D01*
X48571571Y-59396238D01*
X48500142Y-59396238D01*
X48428714Y-59372428D01*
X48393000Y-59348619D01*
X48357285Y-59301000D01*
X48357285Y-59181952D01*
X48393000Y-59110523D01*
X49035857Y-58610523D02*
X49071571Y-58634333D01*
X49107285Y-58705761D01*
X49107285Y-58753380D01*
X49071571Y-58824809D01*
X49000142Y-58872428D01*
X48928714Y-58896238D01*
X48785857Y-58920047D01*
X48678714Y-58920047D01*
X48535857Y-58896238D01*
X48464428Y-58872428D01*
X48393000Y-58824809D01*
X48357285Y-58753380D01*
X48357285Y-58705761D01*
X48393000Y-58634333D01*
X48428714Y-58610523D01*
X49107285Y-58158142D02*
X49107285Y-58396238D01*
X48357285Y-58396238D01*
X46495857Y-43987619D02*
X46531571Y-44011428D01*
X46567285Y-44082857D01*
X46567285Y-44130476D01*
X46531571Y-44201904D01*
X46460142Y-44249523D01*
X46388714Y-44273333D01*
X46245857Y-44297142D01*
X46138714Y-44297142D01*
X45995857Y-44273333D01*
X45924428Y-44249523D01*
X45853000Y-44201904D01*
X45817285Y-44130476D01*
X45817285Y-44082857D01*
X45853000Y-44011428D01*
X45888714Y-43987619D01*
X45817285Y-43678095D02*
X45817285Y-43582857D01*
X45853000Y-43535238D01*
X45924428Y-43487619D01*
X46067285Y-43463809D01*
X46317285Y-43463809D01*
X46460142Y-43487619D01*
X46531571Y-43535238D01*
X46567285Y-43582857D01*
X46567285Y-43678095D01*
X46531571Y-43725714D01*
X46460142Y-43773333D01*
X46317285Y-43797142D01*
X46067285Y-43797142D01*
X45924428Y-43773333D01*
X45853000Y-43725714D01*
X45817285Y-43678095D01*
X46567285Y-43011428D02*
X46567285Y-43249523D01*
X45817285Y-43249523D01*
X45888714Y-42868571D02*
X45853000Y-42844761D01*
X45817285Y-42797142D01*
X45817285Y-42678095D01*
X45853000Y-42630476D01*
X45888714Y-42606666D01*
X45960142Y-42582857D01*
X46031571Y-42582857D01*
X46138714Y-42606666D01*
X46567285Y-42892380D01*
X46567285Y-42582857D01*
X46529285Y-59170952D02*
X46172142Y-59337619D01*
X46529285Y-59456666D02*
X45779285Y-59456666D01*
X45779285Y-59266190D01*
X45815000Y-59218571D01*
X45850714Y-59194761D01*
X45922142Y-59170952D01*
X46029285Y-59170952D01*
X46100714Y-59194761D01*
X46136428Y-59218571D01*
X46172142Y-59266190D01*
X46172142Y-59456666D01*
X45779285Y-58861428D02*
X45779285Y-58766190D01*
X45815000Y-58718571D01*
X45886428Y-58670952D01*
X46029285Y-58647142D01*
X46279285Y-58647142D01*
X46422142Y-58670952D01*
X46493571Y-58718571D01*
X46529285Y-58766190D01*
X46529285Y-58861428D01*
X46493571Y-58909047D01*
X46422142Y-58956666D01*
X46279285Y-58980476D01*
X46029285Y-58980476D01*
X45886428Y-58956666D01*
X45815000Y-58909047D01*
X45779285Y-58861428D01*
X45779285Y-58480476D02*
X46529285Y-58361428D01*
X45993571Y-58266190D01*
X46529285Y-58170952D01*
X45779285Y-58051904D01*
X45779285Y-57766190D02*
X45779285Y-57718571D01*
X45815000Y-57670952D01*
X45850714Y-57647142D01*
X45922142Y-57623333D01*
X46065000Y-57599523D01*
X46243571Y-57599523D01*
X46386428Y-57623333D01*
X46457857Y-57647142D01*
X46493571Y-57670952D01*
X46529285Y-57718571D01*
X46529285Y-57766190D01*
X46493571Y-57813809D01*
X46457857Y-57837619D01*
X46386428Y-57861428D01*
X46243571Y-57885238D01*
X46065000Y-57885238D01*
X45922142Y-57861428D01*
X45850714Y-57837619D01*
X45815000Y-57813809D01*
X45779285Y-57766190D01*
X43907857Y-43887619D02*
X43943571Y-43911428D01*
X43979285Y-43982857D01*
X43979285Y-44030476D01*
X43943571Y-44101904D01*
X43872142Y-44149523D01*
X43800714Y-44173333D01*
X43657857Y-44197142D01*
X43550714Y-44197142D01*
X43407857Y-44173333D01*
X43336428Y-44149523D01*
X43265000Y-44101904D01*
X43229285Y-44030476D01*
X43229285Y-43982857D01*
X43265000Y-43911428D01*
X43300714Y-43887619D01*
X43229285Y-43578095D02*
X43229285Y-43482857D01*
X43265000Y-43435238D01*
X43336428Y-43387619D01*
X43479285Y-43363809D01*
X43729285Y-43363809D01*
X43872142Y-43387619D01*
X43943571Y-43435238D01*
X43979285Y-43482857D01*
X43979285Y-43578095D01*
X43943571Y-43625714D01*
X43872142Y-43673333D01*
X43729285Y-43697142D01*
X43479285Y-43697142D01*
X43336428Y-43673333D01*
X43265000Y-43625714D01*
X43229285Y-43578095D01*
X43979285Y-42911428D02*
X43979285Y-43149523D01*
X43229285Y-43149523D01*
X43229285Y-42792380D02*
X43229285Y-42482857D01*
X43515000Y-42649523D01*
X43515000Y-42578095D01*
X43550714Y-42530476D01*
X43586428Y-42506666D01*
X43657857Y-42482857D01*
X43836428Y-42482857D01*
X43907857Y-42506666D01*
X43943571Y-42530476D01*
X43979285Y-42578095D01*
X43979285Y-42720952D01*
X43943571Y-42768571D01*
X43907857Y-42792380D01*
X53409500Y-59181952D02*
X53373785Y-59229571D01*
X53373785Y-59301000D01*
X53409500Y-59372428D01*
X53480928Y-59420047D01*
X53552357Y-59443857D01*
X53695214Y-59467666D01*
X53802357Y-59467666D01*
X53945214Y-59443857D01*
X54016642Y-59420047D01*
X54088071Y-59372428D01*
X54123785Y-59301000D01*
X54123785Y-59253380D01*
X54088071Y-59181952D01*
X54052357Y-59158142D01*
X53802357Y-59158142D01*
X53802357Y-59253380D01*
X54123785Y-58943857D02*
X53373785Y-58943857D01*
X54123785Y-58658142D01*
X53373785Y-58658142D01*
X54123785Y-58420047D02*
X53373785Y-58420047D01*
X53373785Y-58301000D01*
X53409500Y-58229571D01*
X53480928Y-58181952D01*
X53552357Y-58158142D01*
X53695214Y-58134333D01*
X53802357Y-58134333D01*
X53945214Y-58158142D01*
X54016642Y-58181952D01*
X54088071Y-58229571D01*
X54123785Y-58301000D01*
X54123785Y-58420047D01*
X53437285Y-44291166D02*
X54187285Y-44124500D01*
X53437285Y-43957833D01*
X54115857Y-43505452D02*
X54151571Y-43529261D01*
X54187285Y-43600690D01*
X54187285Y-43648309D01*
X54151571Y-43719738D01*
X54080142Y-43767357D01*
X54008714Y-43791166D01*
X53865857Y-43814976D01*
X53758714Y-43814976D01*
X53615857Y-43791166D01*
X53544428Y-43767357D01*
X53473000Y-43719738D01*
X53437285Y-43648309D01*
X53437285Y-43600690D01*
X53473000Y-43529261D01*
X53508714Y-43505452D01*
X54115857Y-43005452D02*
X54151571Y-43029261D01*
X54187285Y-43100690D01*
X54187285Y-43148309D01*
X54151571Y-43219738D01*
X54080142Y-43267357D01*
X54008714Y-43291166D01*
X53865857Y-43314976D01*
X53758714Y-43314976D01*
X53615857Y-43291166D01*
X53544428Y-43267357D01*
X53473000Y-43219738D01*
X53437285Y-43148309D01*
X53437285Y-43100690D01*
X53473000Y-43029261D01*
X53508714Y-43005452D01*
X55949500Y-59245452D02*
X55913785Y-59293071D01*
X55913785Y-59364500D01*
X55949500Y-59435928D01*
X56020928Y-59483547D01*
X56092357Y-59507357D01*
X56235214Y-59531166D01*
X56342357Y-59531166D01*
X56485214Y-59507357D01*
X56556642Y-59483547D01*
X56628071Y-59435928D01*
X56663785Y-59364500D01*
X56663785Y-59316880D01*
X56628071Y-59245452D01*
X56592357Y-59221642D01*
X56342357Y-59221642D01*
X56342357Y-59316880D01*
X56663785Y-59007357D02*
X55913785Y-59007357D01*
X56663785Y-58721642D01*
X55913785Y-58721642D01*
X56663785Y-58483547D02*
X55913785Y-58483547D01*
X55913785Y-58364500D01*
X55949500Y-58293071D01*
X56020928Y-58245452D01*
X56092357Y-58221642D01*
X56235214Y-58197833D01*
X56342357Y-58197833D01*
X56485214Y-58221642D01*
X56556642Y-58245452D01*
X56628071Y-58293071D01*
X56663785Y-58364500D01*
X56663785Y-58483547D01*
X56663785Y-43898309D02*
X56306642Y-44064976D01*
X56663785Y-44184023D02*
X55913785Y-44184023D01*
X55913785Y-43993547D01*
X55949500Y-43945928D01*
X55985214Y-43922119D01*
X56056642Y-43898309D01*
X56163785Y-43898309D01*
X56235214Y-43922119D01*
X56270928Y-43945928D01*
X56306642Y-43993547D01*
X56306642Y-44184023D01*
X56628071Y-43707833D02*
X56663785Y-43636404D01*
X56663785Y-43517357D01*
X56628071Y-43469738D01*
X56592357Y-43445928D01*
X56520928Y-43422119D01*
X56449500Y-43422119D01*
X56378071Y-43445928D01*
X56342357Y-43469738D01*
X56306642Y-43517357D01*
X56270928Y-43612595D01*
X56235214Y-43660214D01*
X56199500Y-43684023D01*
X56128071Y-43707833D01*
X56056642Y-43707833D01*
X55985214Y-43684023D01*
X55949500Y-43660214D01*
X55913785Y-43612595D01*
X55913785Y-43493547D01*
X55949500Y-43422119D01*
X55913785Y-43279261D02*
X55913785Y-42993547D01*
X56663785Y-43136404D02*
X55913785Y-43136404D01*
X59279285Y-59440000D02*
X58529285Y-59440000D01*
X58529285Y-59320952D01*
X58565000Y-59249523D01*
X58636428Y-59201904D01*
X58707857Y-59178095D01*
X58850714Y-59154285D01*
X58957857Y-59154285D01*
X59100714Y-59178095D01*
X59172142Y-59201904D01*
X59243571Y-59249523D01*
X59279285Y-59320952D01*
X59279285Y-59440000D01*
X59065000Y-58963809D02*
X59065000Y-58725714D01*
X59279285Y-59011428D02*
X58529285Y-58844761D01*
X59279285Y-58678095D01*
X58529285Y-58582857D02*
X58529285Y-58297142D01*
X59279285Y-58440000D02*
X58529285Y-58440000D01*
X59065000Y-58154285D02*
X59065000Y-57916190D01*
X59279285Y-58201904D02*
X58529285Y-58035238D01*
X59279285Y-57868571D01*
X58553000Y-44005452D02*
X58517285Y-44053071D01*
X58517285Y-44124500D01*
X58553000Y-44195928D01*
X58624428Y-44243547D01*
X58695857Y-44267357D01*
X58838714Y-44291166D01*
X58945857Y-44291166D01*
X59088714Y-44267357D01*
X59160142Y-44243547D01*
X59231571Y-44195928D01*
X59267285Y-44124500D01*
X59267285Y-44076880D01*
X59231571Y-44005452D01*
X59195857Y-43981642D01*
X58945857Y-43981642D01*
X58945857Y-44076880D01*
X59267285Y-43767357D02*
X58517285Y-43767357D01*
X59267285Y-43481642D01*
X58517285Y-43481642D01*
X59267285Y-43243547D02*
X58517285Y-43243547D01*
X58517285Y-43124500D01*
X58553000Y-43053071D01*
X58624428Y-43005452D01*
X58695857Y-42981642D01*
X58838714Y-42957833D01*
X58945857Y-42957833D01*
X59088714Y-42981642D01*
X59160142Y-43005452D01*
X59231571Y-43053071D01*
X59267285Y-43124500D01*
X59267285Y-43243547D01*
X61807285Y-59161428D02*
X61807285Y-59399523D01*
X61057285Y-59399523D01*
X61414428Y-58994761D02*
X61414428Y-58828095D01*
X61807285Y-58756666D02*
X61807285Y-58994761D01*
X61057285Y-58994761D01*
X61057285Y-58756666D01*
X61807285Y-58542380D02*
X61057285Y-58542380D01*
X61057285Y-58423333D01*
X61093000Y-58351904D01*
X61164428Y-58304285D01*
X61235857Y-58280476D01*
X61378714Y-58256666D01*
X61485857Y-58256666D01*
X61628714Y-58280476D01*
X61700142Y-58304285D01*
X61771571Y-58351904D01*
X61807285Y-58423333D01*
X61807285Y-58542380D01*
X61807285Y-43969738D02*
X61450142Y-44136404D01*
X61807285Y-44255452D02*
X61057285Y-44255452D01*
X61057285Y-44064976D01*
X61093000Y-44017357D01*
X61128714Y-43993547D01*
X61200142Y-43969738D01*
X61307285Y-43969738D01*
X61378714Y-43993547D01*
X61414428Y-44017357D01*
X61450142Y-44064976D01*
X61450142Y-44255452D01*
X61593000Y-43779261D02*
X61593000Y-43541166D01*
X61807285Y-43826880D02*
X61057285Y-43660214D01*
X61807285Y-43493547D01*
X61057285Y-43374500D02*
X61807285Y-43255452D01*
X61271571Y-43160214D01*
X61807285Y-43064976D01*
X61057285Y-42945928D01*
D10*
M02*
