G04 #@! TF.GenerationSoftware,KiCad,Pcbnew,5.1.5+dfsg1-2build2*
G04 #@! TF.CreationDate,2021-09-26T21:55:54+09:00*
G04 #@! TF.ProjectId,kbtest,6b627465-7374-42e6-9b69-6361645f7063,rev?*
G04 #@! TF.SameCoordinates,Original*
G04 #@! TF.FileFunction,Copper,L1,Top*
G04 #@! TF.FilePolarity,Positive*
%FSLAX46Y46*%
G04 Gerber Fmt 4.6, Leading zero omitted, Abs format (unit mm)*
G04 Created by KiCad (PCBNEW 5.1.5+dfsg1-2build2) date 2021-09-26 21:55:54*
%MOMM*%
%LPD*%
G04 APERTURE LIST*
%ADD10R,1.778000X1.397000*%
%ADD11O,1.778000X1.397000*%
%ADD12R,1.400000X1.000000*%
%ADD13O,1.700000X2.500000*%
%ADD14R,1.524000X1.524000*%
%ADD15O,2.500000X2.000000*%
%ADD16C,2.000000*%
%ADD17R,3.200000X2.000000*%
%ADD18R,2.000000X2.000000*%
%ADD19C,1.524000*%
%ADD20C,0.800000*%
%ADD21C,0.250000*%
G04 APERTURE END LIST*
D10*
X70660000Y-44908500D03*
D11*
X76660000Y-44908500D03*
D12*
X71885000Y-44908500D03*
X75435000Y-44908500D03*
X75435000Y-54610000D03*
X71885000Y-54610000D03*
D11*
X76660000Y-54610000D03*
D10*
X70660000Y-54610000D03*
X70660000Y-49530000D03*
D11*
X76660000Y-49530000D03*
D12*
X71885000Y-49530000D03*
X75435000Y-49530000D03*
X75435000Y-59690000D03*
X71885000Y-59690000D03*
D11*
X76660000Y-59690000D03*
D10*
X70660000Y-59690000D03*
D13*
X85050000Y-49670000D03*
X89250000Y-51170000D03*
X85050000Y-42670000D03*
X85050000Y-45670000D03*
X91000000Y-42670000D03*
X91000000Y-45670000D03*
X91000000Y-49670000D03*
X86800000Y-51170000D03*
D14*
X78740000Y-100330000D03*
X78740000Y-97790000D03*
X78740000Y-95250000D03*
D15*
X37460000Y-73100000D03*
X43810000Y-70560000D03*
X43810000Y-92030000D03*
X37460000Y-94570000D03*
X58930000Y-73100000D03*
X65280000Y-70560000D03*
X65280000Y-92030000D03*
X58930000Y-94570000D03*
D16*
X90880000Y-58420000D03*
X84380000Y-58420000D03*
X90820000Y-75665000D03*
X90820000Y-70665000D03*
D17*
X83820000Y-78765000D03*
X83820000Y-67565000D03*
D16*
X76320000Y-75665000D03*
X76320000Y-73165000D03*
D18*
X76320000Y-70665000D03*
D19*
X61468000Y-45776400D03*
X58928000Y-45776400D03*
X56388000Y-45776400D03*
X53848000Y-45776400D03*
X51308000Y-45776400D03*
X48768000Y-45776400D03*
X46228000Y-45776400D03*
X43688000Y-45776400D03*
X41148000Y-45776400D03*
X38608000Y-45776400D03*
X36068000Y-45776400D03*
X33528000Y-45776400D03*
X33528000Y-60996400D03*
X36068000Y-60996400D03*
X38608000Y-60996400D03*
X41148000Y-60996400D03*
X43688000Y-60996400D03*
X46228000Y-60996400D03*
X48768000Y-60996400D03*
X51308000Y-60996400D03*
X53848000Y-60996400D03*
X56388000Y-60996400D03*
X58928000Y-60996400D03*
X61468000Y-60996400D03*
X60198000Y-44450000D03*
X57658000Y-44450000D03*
X55118000Y-44450000D03*
X52578000Y-44450000D03*
X50038000Y-44450000D03*
X47498000Y-44450000D03*
X44958000Y-44450000D03*
X42418000Y-44450000D03*
X39878000Y-44450000D03*
X37338000Y-44450000D03*
X34798000Y-44450000D03*
X32258000Y-44450000D03*
X32258000Y-59690000D03*
X34798000Y-59690000D03*
X37338000Y-59690000D03*
X39878000Y-59690000D03*
X42418000Y-59690000D03*
X44958000Y-59690000D03*
X47498000Y-59690000D03*
X50038000Y-59690000D03*
X52578000Y-59690000D03*
X55118000Y-59690000D03*
X57658000Y-59690000D03*
X60198000Y-59690000D03*
D20*
X47498000Y-63800200D03*
D21*
X71885000Y-49530000D02*
X71874300Y-49530000D01*
X71885000Y-49530000D02*
X71885000Y-44908500D01*
X70660000Y-49530000D02*
X71874300Y-49530000D01*
X44958000Y-44450000D02*
X44958000Y-57786900D01*
X44958000Y-57786900D02*
X46228000Y-59056900D01*
X46228000Y-59056900D02*
X46228000Y-60996400D01*
X71885000Y-44908500D02*
X71874300Y-44908500D01*
X70660000Y-44908500D02*
X71874300Y-44908500D01*
X43810000Y-70560000D02*
X53453200Y-70560000D01*
X53453200Y-70560000D02*
X66162400Y-57850800D01*
X66162400Y-57850800D02*
X66162400Y-57042300D01*
X66162400Y-57042300D02*
X75435000Y-47769700D01*
X75435000Y-47769700D02*
X75435000Y-44908500D01*
X75435000Y-44908500D02*
X76660000Y-44908500D01*
X76660000Y-54610000D02*
X75445700Y-54610000D01*
X75435000Y-55022600D02*
X75445700Y-55011900D01*
X75445700Y-55011900D02*
X75445700Y-54610000D01*
X75435000Y-55022600D02*
X75435000Y-55435300D01*
X75435000Y-54610000D02*
X75435000Y-55022600D01*
X43810000Y-92030000D02*
X43810000Y-90704700D01*
X43810000Y-90704700D02*
X44428600Y-90704700D01*
X44428600Y-90704700D02*
X60370000Y-74763300D01*
X60370000Y-74763300D02*
X60370000Y-74213600D01*
X60370000Y-74213600D02*
X62498600Y-72085000D01*
X62498600Y-72085000D02*
X62498600Y-71199900D01*
X62498600Y-71199900D02*
X72961500Y-60737000D01*
X72961500Y-60737000D02*
X72961500Y-57908800D01*
X72961500Y-57908800D02*
X75435000Y-55435300D01*
X71874300Y-59690000D02*
X71885000Y-59690000D01*
X71885000Y-59690000D02*
X71885000Y-54610000D01*
X70660000Y-59690000D02*
X71874300Y-59690000D01*
X70660000Y-54610000D02*
X71885000Y-54610000D01*
X42418000Y-44450000D02*
X42418000Y-51891900D01*
X42418000Y-51891900D02*
X43688000Y-53161900D01*
X43688000Y-53161900D02*
X43688000Y-60996400D01*
X75435000Y-49530000D02*
X76460300Y-49530000D01*
X76660000Y-50041900D02*
X76460300Y-49842200D01*
X76460300Y-49842200D02*
X76460300Y-49530000D01*
X76660000Y-50041900D02*
X76660000Y-50553800D01*
X76660000Y-49530000D02*
X76660000Y-50041900D01*
X65280000Y-70560000D02*
X65280000Y-69234700D01*
X65280000Y-69234700D02*
X73781600Y-60733100D01*
X73781600Y-60733100D02*
X73781600Y-59161000D01*
X73781600Y-59161000D02*
X77924000Y-55018600D01*
X77924000Y-55018600D02*
X77924000Y-51817800D01*
X77924000Y-51817800D02*
X76660000Y-50553800D01*
X76660000Y-59690000D02*
X75445700Y-59690000D01*
X75435000Y-60102600D02*
X75445700Y-60091900D01*
X75445700Y-60091900D02*
X75445700Y-59690000D01*
X75435000Y-60102600D02*
X75435000Y-60515300D01*
X75435000Y-59690000D02*
X75435000Y-60102600D01*
X65280000Y-92030000D02*
X65280000Y-90704700D01*
X65280000Y-90704700D02*
X74994600Y-80990100D01*
X74994600Y-80990100D02*
X74994600Y-60955700D01*
X74994600Y-60955700D02*
X75435000Y-60515300D01*
X78740000Y-95250000D02*
X78740000Y-94162700D01*
X85050000Y-49670000D02*
X85050000Y-56177000D01*
X85050000Y-56177000D02*
X85747100Y-56874100D01*
X85747100Y-56874100D02*
X85747100Y-87155600D01*
X85747100Y-87155600D02*
X78740000Y-94162700D01*
X57658000Y-44450000D02*
X59438000Y-42670000D01*
X59438000Y-42670000D02*
X85050000Y-42670000D01*
X57658000Y-44450000D02*
X57658000Y-51891900D01*
X57658000Y-51891900D02*
X58928000Y-53161900D01*
X58928000Y-53161900D02*
X58928000Y-60996400D01*
X76320000Y-73165000D02*
X77652700Y-74497700D01*
X77652700Y-74497700D02*
X77652700Y-93716300D01*
X77652700Y-93716300D02*
X77202400Y-94166600D01*
X77202400Y-94166600D02*
X77202400Y-98263700D01*
X77202400Y-98263700D02*
X78181400Y-99242700D01*
X78181400Y-99242700D02*
X78740000Y-99242700D01*
X78740000Y-100330000D02*
X78740000Y-99242700D01*
X85050000Y-45670000D02*
X83874700Y-45670000D01*
X84380000Y-58420000D02*
X83874700Y-57914700D01*
X83874700Y-57914700D02*
X83874700Y-45670000D01*
X53848000Y-60996400D02*
X53848000Y-51274400D01*
X53848000Y-51274400D02*
X52578000Y-50004400D01*
X52578000Y-50004400D02*
X52578000Y-44450000D01*
X78740000Y-97790000D02*
X78740000Y-96702700D01*
X62596100Y-45365500D02*
X62596100Y-59868300D01*
X62596100Y-59868300D02*
X61468000Y-60996400D01*
X60198000Y-44450000D02*
X61680600Y-44450000D01*
X61680600Y-44450000D02*
X62596100Y-45365500D01*
X78740000Y-96702700D02*
X78196300Y-96702700D01*
X78196300Y-96702700D02*
X77652700Y-96159100D01*
X77652700Y-96159100D02*
X77652700Y-94353200D01*
X77652700Y-94353200D02*
X78376700Y-93629200D01*
X78376700Y-93629200D02*
X78376700Y-44922100D01*
X78376700Y-44922100D02*
X77339200Y-43884600D01*
X77339200Y-43884600D02*
X64077000Y-43884600D01*
X64077000Y-43884600D02*
X62596100Y-45365500D01*
X39035300Y-73100000D02*
X47562800Y-64572500D01*
X47562800Y-64572500D02*
X47818900Y-64572500D01*
X47818900Y-64572500D02*
X50038000Y-62353400D01*
X50038000Y-62353400D02*
X50038000Y-59690000D01*
X37460000Y-73100000D02*
X39035300Y-73100000D01*
X37460000Y-73762600D02*
X37460000Y-73100000D01*
X37460000Y-73762600D02*
X37460000Y-74425300D01*
X37460000Y-94570000D02*
X37460000Y-93244700D01*
X37460000Y-93244700D02*
X37525900Y-93178800D01*
X37525900Y-93178800D02*
X37525900Y-74491200D01*
X37525900Y-74491200D02*
X37460000Y-74425300D01*
X47498000Y-59690000D02*
X47498000Y-63800200D01*
X55118000Y-59690000D02*
X55118000Y-47046400D01*
X55118000Y-47046400D02*
X56388000Y-45776400D01*
X32258000Y-59690000D02*
X33528000Y-58420000D01*
X33528000Y-58420000D02*
X33528000Y-45776400D01*
X60198000Y-59690000D02*
X61468000Y-58420000D01*
X61468000Y-58420000D02*
X61468000Y-45776400D01*
X34798000Y-44450000D02*
X34798000Y-51891900D01*
X34798000Y-51891900D02*
X36068000Y-53161900D01*
X36068000Y-53161900D02*
X36068000Y-60996400D01*
X37338000Y-44450000D02*
X37338000Y-51891900D01*
X37338000Y-51891900D02*
X38608000Y-53161900D01*
X38608000Y-53161900D02*
X38608000Y-60996400D01*
X39878000Y-44450000D02*
X39878000Y-51891900D01*
X39878000Y-51891900D02*
X41148000Y-53161900D01*
X41148000Y-53161900D02*
X41148000Y-60996400D01*
X47498000Y-44450000D02*
X47498000Y-51891900D01*
X47498000Y-51891900D02*
X48768000Y-53161900D01*
X48768000Y-53161900D02*
X48768000Y-60996400D01*
X50038000Y-44450000D02*
X50038000Y-51891900D01*
X50038000Y-51891900D02*
X51308000Y-53161900D01*
X51308000Y-53161900D02*
X51308000Y-60996400D01*
M02*
