G04 #@! TF.GenerationSoftware,KiCad,Pcbnew,5.1.5+dfsg1-2build2*
G04 #@! TF.CreationDate,2021-09-26T21:55:54+09:00*
G04 #@! TF.ProjectId,kbtest,6b627465-7374-42e6-9b69-6361645f7063,rev?*
G04 #@! TF.SameCoordinates,Original*
G04 #@! TF.FileFunction,Copper,L2,Bot*
G04 #@! TF.FilePolarity,Positive*
%FSLAX46Y46*%
G04 Gerber Fmt 4.6, Leading zero omitted, Abs format (unit mm)*
G04 Created by KiCad (PCBNEW 5.1.5+dfsg1-2build2) date 2021-09-26 21:55:54*
%MOMM*%
%LPD*%
G04 APERTURE LIST*
%ADD10R,1.778000X1.397000*%
%ADD11O,1.778000X1.397000*%
%ADD12O,1.700000X2.500000*%
%ADD13O,2.500000X2.000000*%
%ADD14C,2.000000*%
%ADD15R,3.200000X2.000000*%
%ADD16R,2.000000X2.000000*%
%ADD17C,1.524000*%
%ADD18C,0.800000*%
%ADD19C,0.250000*%
G04 APERTURE END LIST*
D10*
X70660000Y-44908500D03*
D11*
X76660000Y-44908500D03*
X76660000Y-54610000D03*
D10*
X70660000Y-54610000D03*
X70660000Y-49530000D03*
D11*
X76660000Y-49530000D03*
X76660000Y-59690000D03*
D10*
X70660000Y-59690000D03*
D12*
X85050000Y-49670000D03*
X89250000Y-51170000D03*
X85050000Y-42670000D03*
X85050000Y-45670000D03*
X91000000Y-42670000D03*
X91000000Y-45670000D03*
X91000000Y-49670000D03*
X86800000Y-51170000D03*
D13*
X37460000Y-73100000D03*
X43810000Y-70560000D03*
X43810000Y-92030000D03*
X37460000Y-94570000D03*
X58930000Y-73100000D03*
X65280000Y-70560000D03*
X65280000Y-92030000D03*
X58930000Y-94570000D03*
D14*
X90880000Y-58420000D03*
X84380000Y-58420000D03*
X90820000Y-75665000D03*
X90820000Y-70665000D03*
D15*
X83820000Y-78765000D03*
X83820000Y-67565000D03*
D14*
X76320000Y-75665000D03*
X76320000Y-73165000D03*
D16*
X76320000Y-70665000D03*
D17*
X61468000Y-45776400D03*
X58928000Y-45776400D03*
X56388000Y-45776400D03*
X53848000Y-45776400D03*
X51308000Y-45776400D03*
X48768000Y-45776400D03*
X46228000Y-45776400D03*
X43688000Y-45776400D03*
X41148000Y-45776400D03*
X38608000Y-45776400D03*
X36068000Y-45776400D03*
X33528000Y-45776400D03*
X33528000Y-60996400D03*
X36068000Y-60996400D03*
X38608000Y-60996400D03*
X41148000Y-60996400D03*
X43688000Y-60996400D03*
X46228000Y-60996400D03*
X48768000Y-60996400D03*
X51308000Y-60996400D03*
X53848000Y-60996400D03*
X56388000Y-60996400D03*
X58928000Y-60996400D03*
X61468000Y-60996400D03*
X60198000Y-44450000D03*
X57658000Y-44450000D03*
X55118000Y-44450000D03*
X52578000Y-44450000D03*
X50038000Y-44450000D03*
X47498000Y-44450000D03*
X44958000Y-44450000D03*
X42418000Y-44450000D03*
X39878000Y-44450000D03*
X37338000Y-44450000D03*
X34798000Y-44450000D03*
X32258000Y-44450000D03*
X32258000Y-59690000D03*
X34798000Y-59690000D03*
X37338000Y-59690000D03*
X39878000Y-59690000D03*
X42418000Y-59690000D03*
X44958000Y-59690000D03*
X47498000Y-59690000D03*
X50038000Y-59690000D03*
X52578000Y-59690000D03*
X55118000Y-59690000D03*
X57658000Y-59690000D03*
X60198000Y-59690000D03*
D18*
X47498000Y-63800200D03*
D19*
X70660000Y-44908500D02*
X70660000Y-43884700D01*
X44958000Y-44450000D02*
X46541000Y-42867000D01*
X46541000Y-42867000D02*
X69642300Y-42867000D01*
X69642300Y-42867000D02*
X70660000Y-43884700D01*
X70660000Y-59690000D02*
X70660000Y-60713800D01*
X43688000Y-60996400D02*
X44783100Y-62091500D01*
X44783100Y-62091500D02*
X69282300Y-62091500D01*
X69282300Y-62091500D02*
X70660000Y-60713800D01*
X56566300Y-48494700D02*
X82699400Y-48494700D01*
X82699400Y-48494700D02*
X83874700Y-49670000D01*
X53848000Y-45776400D02*
X56566300Y-48494700D01*
X52578000Y-59690000D02*
X56566300Y-55701700D01*
X56566300Y-55701700D02*
X56566300Y-48494700D01*
X85050000Y-49670000D02*
X83874700Y-49670000D01*
X85050000Y-49670000D02*
X86225300Y-49670000D01*
X91000000Y-49670000D02*
X89824700Y-49670000D01*
X89824700Y-49670000D02*
X89719300Y-49564600D01*
X89719300Y-49564600D02*
X86330700Y-49564600D01*
X86330700Y-49564600D02*
X86225300Y-49670000D01*
X86800000Y-51170000D02*
X89250000Y-51170000D01*
X91000000Y-42670000D02*
X85050000Y-42670000D01*
X57658000Y-59690000D02*
X58769300Y-58578700D01*
X58769300Y-58578700D02*
X77898100Y-58578700D01*
X77898100Y-58578700D02*
X77898100Y-71586900D01*
X77898100Y-71586900D02*
X76320000Y-73165000D01*
X84380000Y-58420000D02*
X78056800Y-58420000D01*
X78056800Y-58420000D02*
X77898100Y-58578700D01*
X55118000Y-44450000D02*
X52578000Y-44450000D01*
X58928000Y-45776400D02*
X58928000Y-44132900D01*
X58928000Y-44132900D02*
X58155700Y-43360600D01*
X58155700Y-43360600D02*
X56207400Y-43360600D01*
X56207400Y-43360600D02*
X55118000Y-44450000D01*
X56388000Y-60996400D02*
X56388000Y-60960000D01*
X56388000Y-60960000D02*
X57658000Y-59690000D01*
X91000000Y-45670000D02*
X85050000Y-45670000D01*
X56388000Y-60996400D02*
X53848000Y-60996400D01*
X51308000Y-45776400D02*
X51308000Y-58420000D01*
X51308000Y-58420000D02*
X50038000Y-59690000D01*
X58930000Y-94570000D02*
X58930000Y-93244700D01*
X58930000Y-73100000D02*
X58930000Y-74425300D01*
X58930000Y-74425300D02*
X58995900Y-74491200D01*
X58995900Y-74491200D02*
X58995900Y-93178800D01*
X58995900Y-93178800D02*
X58930000Y-93244700D01*
X47498000Y-63800200D02*
X56797800Y-73100000D01*
X56797800Y-73100000D02*
X58930000Y-73100000D01*
X48768000Y-45776400D02*
X48768000Y-58420000D01*
X48768000Y-58420000D02*
X47498000Y-59690000D01*
X55118000Y-59690000D02*
X57741800Y-57066200D01*
X57741800Y-57066200D02*
X89526200Y-57066200D01*
X89526200Y-57066200D02*
X90880000Y-58420000D01*
X32258000Y-59690000D02*
X32258000Y-61290500D01*
X32258000Y-61290500D02*
X34041600Y-63074100D01*
X34041600Y-63074100D02*
X63729100Y-63074100D01*
X63729100Y-63074100D02*
X76320000Y-75665000D01*
X76320000Y-70665000D02*
X74994700Y-70665000D01*
X74994700Y-70665000D02*
X66953400Y-62623700D01*
X66953400Y-62623700D02*
X36139900Y-62623700D01*
X36139900Y-62623700D02*
X34798000Y-61281800D01*
X34798000Y-61281800D02*
X34798000Y-59690000D01*
X36068000Y-45776400D02*
X36068000Y-58420000D01*
X36068000Y-58420000D02*
X34798000Y-59690000D01*
X44958000Y-59690000D02*
X44958000Y-47046400D01*
X44958000Y-47046400D02*
X46228000Y-45776400D01*
X43688000Y-45776400D02*
X43688000Y-58420000D01*
X43688000Y-58420000D02*
X42418000Y-59690000D01*
X41148000Y-45776400D02*
X41148000Y-58420000D01*
X41148000Y-58420000D02*
X39878000Y-59690000D01*
X38608000Y-45776400D02*
X38608000Y-58420000D01*
X38608000Y-58420000D02*
X37338000Y-59690000D01*
X32258000Y-44450000D02*
X32258000Y-51891900D01*
X32258000Y-51891900D02*
X33528000Y-53161900D01*
X33528000Y-53161900D02*
X33528000Y-60996400D01*
M02*
