G04 #@! TF.GenerationSoftware,KiCad,Pcbnew,5.1.5+dfsg1-2build2*
G04 #@! TF.CreationDate,2021-09-26T21:55:54+09:00*
G04 #@! TF.ProjectId,kbtest,6b627465-7374-42e6-9b69-6361645f7063,rev?*
G04 #@! TF.SameCoordinates,Original*
G04 #@! TF.FileFunction,Legend,Bot*
G04 #@! TF.FilePolarity,Positive*
%FSLAX46Y46*%
G04 Gerber Fmt 4.6, Leading zero omitted, Abs format (unit mm)*
G04 Created by KiCad (PCBNEW 5.1.5+dfsg1-2build2) date 2021-09-26 21:55:54*
%MOMM*%
%LPD*%
G04 APERTURE LIST*
%ADD10C,0.150000*%
%ADD11C,0.125000*%
G04 APERTURE END LIST*
D10*
X84150000Y-51370000D02*
X84150000Y-39370000D01*
X90150000Y-51370000D02*
X84150000Y-51370000D01*
X90150000Y-39370000D02*
X90150000Y-51370000D01*
X84150000Y-39370000D02*
X90150000Y-39370000D01*
X90630000Y-59920000D02*
X90630000Y-60170000D01*
X90630000Y-60170000D02*
X84630000Y-60170000D01*
X84630000Y-60170000D02*
X84630000Y-59920000D01*
X84630000Y-56920000D02*
X84630000Y-56670000D01*
X84630000Y-56670000D02*
X90630000Y-56670000D01*
X90630000Y-56670000D02*
X90630000Y-56920000D01*
X61468000Y-58420000D02*
X61468000Y-60960000D01*
X61468000Y-60960000D02*
X30988000Y-60960000D01*
X30988000Y-60960000D02*
X30988000Y-58420000D01*
X30988000Y-58420000D02*
X61468000Y-58420000D01*
X61468000Y-43180000D02*
X61468000Y-45720000D01*
X61468000Y-45720000D02*
X30988000Y-45720000D01*
X30988000Y-45720000D02*
X30988000Y-43180000D01*
X30988000Y-43180000D02*
X61468000Y-43180000D01*
X89836404Y-45235880D02*
X89264976Y-45235880D01*
X89550690Y-46235880D02*
X89550690Y-45235880D01*
X88360214Y-46235880D02*
X88693547Y-45759690D01*
X88931642Y-46235880D02*
X88931642Y-45235880D01*
X88550690Y-45235880D01*
X88455452Y-45283500D01*
X88407833Y-45331119D01*
X88360214Y-45426357D01*
X88360214Y-45569214D01*
X88407833Y-45664452D01*
X88455452Y-45712071D01*
X88550690Y-45759690D01*
X88931642Y-45759690D01*
X87360214Y-46235880D02*
X87693547Y-45759690D01*
X87931642Y-46235880D02*
X87931642Y-45235880D01*
X87550690Y-45235880D01*
X87455452Y-45283500D01*
X87407833Y-45331119D01*
X87360214Y-45426357D01*
X87360214Y-45569214D01*
X87407833Y-45664452D01*
X87455452Y-45712071D01*
X87550690Y-45759690D01*
X87931642Y-45759690D01*
X86979261Y-46188261D02*
X86836404Y-46235880D01*
X86598309Y-46235880D01*
X86503071Y-46188261D01*
X86455452Y-46140642D01*
X86407833Y-46045404D01*
X86407833Y-45950166D01*
X86455452Y-45854928D01*
X86503071Y-45807309D01*
X86598309Y-45759690D01*
X86788785Y-45712071D01*
X86884023Y-45664452D01*
X86931642Y-45616833D01*
X86979261Y-45521595D01*
X86979261Y-45426357D01*
X86931642Y-45331119D01*
X86884023Y-45283500D01*
X86788785Y-45235880D01*
X86550690Y-45235880D01*
X86407833Y-45283500D01*
X89209380Y-58872380D02*
X89542714Y-58396190D01*
X89780809Y-58872380D02*
X89780809Y-57872380D01*
X89399857Y-57872380D01*
X89304619Y-57920000D01*
X89257000Y-57967619D01*
X89209380Y-58062857D01*
X89209380Y-58205714D01*
X89257000Y-58300952D01*
X89304619Y-58348571D01*
X89399857Y-58396190D01*
X89780809Y-58396190D01*
X88780809Y-58348571D02*
X88447476Y-58348571D01*
X88304619Y-58872380D02*
X88780809Y-58872380D01*
X88780809Y-57872380D01*
X88304619Y-57872380D01*
X87923666Y-58824761D02*
X87780809Y-58872380D01*
X87542714Y-58872380D01*
X87447476Y-58824761D01*
X87399857Y-58777142D01*
X87352238Y-58681904D01*
X87352238Y-58586666D01*
X87399857Y-58491428D01*
X87447476Y-58443809D01*
X87542714Y-58396190D01*
X87733190Y-58348571D01*
X87828428Y-58300952D01*
X87876047Y-58253333D01*
X87923666Y-58158095D01*
X87923666Y-58062857D01*
X87876047Y-57967619D01*
X87828428Y-57920000D01*
X87733190Y-57872380D01*
X87495095Y-57872380D01*
X87352238Y-57920000D01*
X86923666Y-58348571D02*
X86590333Y-58348571D01*
X86447476Y-58872380D02*
X86923666Y-58872380D01*
X86923666Y-57872380D01*
X86447476Y-57872380D01*
X86161761Y-57872380D02*
X85590333Y-57872380D01*
X85876047Y-58872380D02*
X85876047Y-57872380D01*
D11*
X60473785Y-57185761D02*
X60116642Y-57019095D01*
X60473785Y-56900047D02*
X59723785Y-56900047D01*
X59723785Y-57090523D01*
X59759500Y-57138142D01*
X59795214Y-57161952D01*
X59866642Y-57185761D01*
X59973785Y-57185761D01*
X60045214Y-57161952D01*
X60080928Y-57138142D01*
X60116642Y-57090523D01*
X60116642Y-56900047D01*
X60259500Y-57376238D02*
X60259500Y-57614333D01*
X60473785Y-57328619D02*
X59723785Y-57495285D01*
X60473785Y-57661952D01*
X59723785Y-57781000D02*
X60473785Y-57900047D01*
X59938071Y-57995285D01*
X60473785Y-58090523D01*
X59723785Y-58209571D01*
X60473785Y-41969571D02*
X60473785Y-41731476D01*
X59723785Y-41731476D01*
X60080928Y-42136238D02*
X60080928Y-42302904D01*
X60473785Y-42374333D02*
X60473785Y-42136238D01*
X59723785Y-42136238D01*
X59723785Y-42374333D01*
X60473785Y-42588619D02*
X59723785Y-42588619D01*
X59723785Y-42707666D01*
X59759500Y-42779095D01*
X59830928Y-42826714D01*
X59902357Y-42850523D01*
X60045214Y-42874333D01*
X60152357Y-42874333D01*
X60295214Y-42850523D01*
X60366642Y-42826714D01*
X60438071Y-42779095D01*
X60473785Y-42707666D01*
X60473785Y-42588619D01*
X57283000Y-57086547D02*
X57247285Y-57038928D01*
X57247285Y-56967500D01*
X57283000Y-56896071D01*
X57354428Y-56848452D01*
X57425857Y-56824642D01*
X57568714Y-56800833D01*
X57675857Y-56800833D01*
X57818714Y-56824642D01*
X57890142Y-56848452D01*
X57961571Y-56896071D01*
X57997285Y-56967500D01*
X57997285Y-57015119D01*
X57961571Y-57086547D01*
X57925857Y-57110357D01*
X57675857Y-57110357D01*
X57675857Y-57015119D01*
X57997285Y-57324642D02*
X57247285Y-57324642D01*
X57997285Y-57610357D01*
X57247285Y-57610357D01*
X57997285Y-57848452D02*
X57247285Y-57848452D01*
X57247285Y-57967500D01*
X57283000Y-58038928D01*
X57354428Y-58086547D01*
X57425857Y-58110357D01*
X57568714Y-58134166D01*
X57675857Y-58134166D01*
X57818714Y-58110357D01*
X57890142Y-58086547D01*
X57961571Y-58038928D01*
X57997285Y-57967500D01*
X57997285Y-57848452D01*
X57829285Y-41390000D02*
X57079285Y-41390000D01*
X57079285Y-41509047D01*
X57115000Y-41580476D01*
X57186428Y-41628095D01*
X57257857Y-41651904D01*
X57400714Y-41675714D01*
X57507857Y-41675714D01*
X57650714Y-41651904D01*
X57722142Y-41628095D01*
X57793571Y-41580476D01*
X57829285Y-41509047D01*
X57829285Y-41390000D01*
X57615000Y-41866190D02*
X57615000Y-42104285D01*
X57829285Y-41818571D02*
X57079285Y-41985238D01*
X57829285Y-42151904D01*
X57079285Y-42247142D02*
X57079285Y-42532857D01*
X57829285Y-42390000D02*
X57079285Y-42390000D01*
X57615000Y-42675714D02*
X57615000Y-42913809D01*
X57829285Y-42628095D02*
X57079285Y-42794761D01*
X57829285Y-42961428D01*
X55393785Y-57257190D02*
X55036642Y-57090523D01*
X55393785Y-56971476D02*
X54643785Y-56971476D01*
X54643785Y-57161952D01*
X54679500Y-57209571D01*
X54715214Y-57233380D01*
X54786642Y-57257190D01*
X54893785Y-57257190D01*
X54965214Y-57233380D01*
X55000928Y-57209571D01*
X55036642Y-57161952D01*
X55036642Y-56971476D01*
X55358071Y-57447666D02*
X55393785Y-57519095D01*
X55393785Y-57638142D01*
X55358071Y-57685761D01*
X55322357Y-57709571D01*
X55250928Y-57733380D01*
X55179500Y-57733380D01*
X55108071Y-57709571D01*
X55072357Y-57685761D01*
X55036642Y-57638142D01*
X55000928Y-57542904D01*
X54965214Y-57495285D01*
X54929500Y-57471476D01*
X54858071Y-57447666D01*
X54786642Y-57447666D01*
X54715214Y-57471476D01*
X54679500Y-57495285D01*
X54643785Y-57542904D01*
X54643785Y-57661952D01*
X54679500Y-57733380D01*
X54643785Y-57876238D02*
X54643785Y-58161952D01*
X55393785Y-58019095D02*
X54643785Y-58019095D01*
X54679500Y-41910047D02*
X54643785Y-41862428D01*
X54643785Y-41791000D01*
X54679500Y-41719571D01*
X54750928Y-41671952D01*
X54822357Y-41648142D01*
X54965214Y-41624333D01*
X55072357Y-41624333D01*
X55215214Y-41648142D01*
X55286642Y-41671952D01*
X55358071Y-41719571D01*
X55393785Y-41791000D01*
X55393785Y-41838619D01*
X55358071Y-41910047D01*
X55322357Y-41933857D01*
X55072357Y-41933857D01*
X55072357Y-41838619D01*
X55393785Y-42148142D02*
X54643785Y-42148142D01*
X55393785Y-42433857D01*
X54643785Y-42433857D01*
X55393785Y-42671952D02*
X54643785Y-42671952D01*
X54643785Y-42791000D01*
X54679500Y-42862428D01*
X54750928Y-42910047D01*
X54822357Y-42933857D01*
X54965214Y-42957666D01*
X55072357Y-42957666D01*
X55215214Y-42933857D01*
X55286642Y-42910047D01*
X55358071Y-42862428D01*
X55393785Y-42791000D01*
X55393785Y-42671952D01*
X52103785Y-56800833D02*
X52853785Y-56967500D01*
X52103785Y-57134166D01*
X52782357Y-57586547D02*
X52818071Y-57562738D01*
X52853785Y-57491309D01*
X52853785Y-57443690D01*
X52818071Y-57372261D01*
X52746642Y-57324642D01*
X52675214Y-57300833D01*
X52532357Y-57277023D01*
X52425214Y-57277023D01*
X52282357Y-57300833D01*
X52210928Y-57324642D01*
X52139500Y-57372261D01*
X52103785Y-57443690D01*
X52103785Y-57491309D01*
X52139500Y-57562738D01*
X52175214Y-57586547D01*
X52782357Y-58086547D02*
X52818071Y-58062738D01*
X52853785Y-57991309D01*
X52853785Y-57943690D01*
X52818071Y-57872261D01*
X52746642Y-57824642D01*
X52675214Y-57800833D01*
X52532357Y-57777023D01*
X52425214Y-57777023D01*
X52282357Y-57800833D01*
X52210928Y-57824642D01*
X52139500Y-57872261D01*
X52103785Y-57943690D01*
X52103785Y-57991309D01*
X52139500Y-58062738D01*
X52175214Y-58086547D01*
X52139500Y-41910047D02*
X52103785Y-41862428D01*
X52103785Y-41791000D01*
X52139500Y-41719571D01*
X52210928Y-41671952D01*
X52282357Y-41648142D01*
X52425214Y-41624333D01*
X52532357Y-41624333D01*
X52675214Y-41648142D01*
X52746642Y-41671952D01*
X52818071Y-41719571D01*
X52853785Y-41791000D01*
X52853785Y-41838619D01*
X52818071Y-41910047D01*
X52782357Y-41933857D01*
X52532357Y-41933857D01*
X52532357Y-41838619D01*
X52853785Y-42148142D02*
X52103785Y-42148142D01*
X52853785Y-42433857D01*
X52103785Y-42433857D01*
X52853785Y-42671952D02*
X52103785Y-42671952D01*
X52103785Y-42791000D01*
X52139500Y-42862428D01*
X52210928Y-42910047D01*
X52282357Y-42933857D01*
X52425214Y-42957666D01*
X52532357Y-42957666D01*
X52675214Y-42933857D01*
X52746642Y-42910047D01*
X52818071Y-42862428D01*
X52853785Y-42791000D01*
X52853785Y-42671952D01*
X42657857Y-56792380D02*
X42693571Y-56768571D01*
X42729285Y-56697142D01*
X42729285Y-56649523D01*
X42693571Y-56578095D01*
X42622142Y-56530476D01*
X42550714Y-56506666D01*
X42407857Y-56482857D01*
X42300714Y-56482857D01*
X42157857Y-56506666D01*
X42086428Y-56530476D01*
X42015000Y-56578095D01*
X41979285Y-56649523D01*
X41979285Y-56697142D01*
X42015000Y-56768571D01*
X42050714Y-56792380D01*
X41979285Y-57101904D02*
X41979285Y-57197142D01*
X42015000Y-57244761D01*
X42086428Y-57292380D01*
X42229285Y-57316190D01*
X42479285Y-57316190D01*
X42622142Y-57292380D01*
X42693571Y-57244761D01*
X42729285Y-57197142D01*
X42729285Y-57101904D01*
X42693571Y-57054285D01*
X42622142Y-57006666D01*
X42479285Y-56982857D01*
X42229285Y-56982857D01*
X42086428Y-57006666D01*
X42015000Y-57054285D01*
X41979285Y-57101904D01*
X42729285Y-57768571D02*
X42729285Y-57530476D01*
X41979285Y-57530476D01*
X41979285Y-57887619D02*
X41979285Y-58197142D01*
X42265000Y-58030476D01*
X42265000Y-58101904D01*
X42300714Y-58149523D01*
X42336428Y-58173333D01*
X42407857Y-58197142D01*
X42586428Y-58197142D01*
X42657857Y-58173333D01*
X42693571Y-58149523D01*
X42729285Y-58101904D01*
X42729285Y-57959047D01*
X42693571Y-57911428D01*
X42657857Y-57887619D01*
X45297285Y-41409047D02*
X44940142Y-41242380D01*
X45297285Y-41123333D02*
X44547285Y-41123333D01*
X44547285Y-41313809D01*
X44583000Y-41361428D01*
X44618714Y-41385238D01*
X44690142Y-41409047D01*
X44797285Y-41409047D01*
X44868714Y-41385238D01*
X44904428Y-41361428D01*
X44940142Y-41313809D01*
X44940142Y-41123333D01*
X44547285Y-41718571D02*
X44547285Y-41813809D01*
X44583000Y-41861428D01*
X44654428Y-41909047D01*
X44797285Y-41932857D01*
X45047285Y-41932857D01*
X45190142Y-41909047D01*
X45261571Y-41861428D01*
X45297285Y-41813809D01*
X45297285Y-41718571D01*
X45261571Y-41670952D01*
X45190142Y-41623333D01*
X45047285Y-41599523D01*
X44797285Y-41599523D01*
X44654428Y-41623333D01*
X44583000Y-41670952D01*
X44547285Y-41718571D01*
X44547285Y-42099523D02*
X45297285Y-42218571D01*
X44761571Y-42313809D01*
X45297285Y-42409047D01*
X44547285Y-42528095D01*
X44547285Y-42813809D02*
X44547285Y-42861428D01*
X44583000Y-42909047D01*
X44618714Y-42932857D01*
X44690142Y-42956666D01*
X44833000Y-42980476D01*
X45011571Y-42980476D01*
X45154428Y-42956666D01*
X45225857Y-42932857D01*
X45261571Y-42909047D01*
X45297285Y-42861428D01*
X45297285Y-42813809D01*
X45261571Y-42766190D01*
X45225857Y-42742380D01*
X45154428Y-42718571D01*
X45011571Y-42694761D01*
X44833000Y-42694761D01*
X44690142Y-42718571D01*
X44618714Y-42742380D01*
X44583000Y-42766190D01*
X44547285Y-42813809D01*
X45157857Y-56792380D02*
X45193571Y-56768571D01*
X45229285Y-56697142D01*
X45229285Y-56649523D01*
X45193571Y-56578095D01*
X45122142Y-56530476D01*
X45050714Y-56506666D01*
X44907857Y-56482857D01*
X44800714Y-56482857D01*
X44657857Y-56506666D01*
X44586428Y-56530476D01*
X44515000Y-56578095D01*
X44479285Y-56649523D01*
X44479285Y-56697142D01*
X44515000Y-56768571D01*
X44550714Y-56792380D01*
X44479285Y-57101904D02*
X44479285Y-57197142D01*
X44515000Y-57244761D01*
X44586428Y-57292380D01*
X44729285Y-57316190D01*
X44979285Y-57316190D01*
X45122142Y-57292380D01*
X45193571Y-57244761D01*
X45229285Y-57197142D01*
X45229285Y-57101904D01*
X45193571Y-57054285D01*
X45122142Y-57006666D01*
X44979285Y-56982857D01*
X44729285Y-56982857D01*
X44586428Y-57006666D01*
X44515000Y-57054285D01*
X44479285Y-57101904D01*
X45229285Y-57768571D02*
X45229285Y-57530476D01*
X44479285Y-57530476D01*
X44550714Y-57911428D02*
X44515000Y-57935238D01*
X44479285Y-57982857D01*
X44479285Y-58101904D01*
X44515000Y-58149523D01*
X44550714Y-58173333D01*
X44622142Y-58197142D01*
X44693571Y-58197142D01*
X44800714Y-58173333D01*
X45229285Y-57887619D01*
X45229285Y-58197142D01*
X47738071Y-41695761D02*
X47773785Y-41767190D01*
X47773785Y-41886238D01*
X47738071Y-41933857D01*
X47702357Y-41957666D01*
X47630928Y-41981476D01*
X47559500Y-41981476D01*
X47488071Y-41957666D01*
X47452357Y-41933857D01*
X47416642Y-41886238D01*
X47380928Y-41791000D01*
X47345214Y-41743380D01*
X47309500Y-41719571D01*
X47238071Y-41695761D01*
X47166642Y-41695761D01*
X47095214Y-41719571D01*
X47059500Y-41743380D01*
X47023785Y-41791000D01*
X47023785Y-41910047D01*
X47059500Y-41981476D01*
X47702357Y-42481476D02*
X47738071Y-42457666D01*
X47773785Y-42386238D01*
X47773785Y-42338619D01*
X47738071Y-42267190D01*
X47666642Y-42219571D01*
X47595214Y-42195761D01*
X47452357Y-42171952D01*
X47345214Y-42171952D01*
X47202357Y-42195761D01*
X47130928Y-42219571D01*
X47059500Y-42267190D01*
X47023785Y-42338619D01*
X47023785Y-42386238D01*
X47059500Y-42457666D01*
X47095214Y-42481476D01*
X47773785Y-42933857D02*
X47773785Y-42695761D01*
X47023785Y-42695761D01*
X47702357Y-56792380D02*
X47738071Y-56768571D01*
X47773785Y-56697142D01*
X47773785Y-56649523D01*
X47738071Y-56578095D01*
X47666642Y-56530476D01*
X47595214Y-56506666D01*
X47452357Y-56482857D01*
X47345214Y-56482857D01*
X47202357Y-56506666D01*
X47130928Y-56530476D01*
X47059500Y-56578095D01*
X47023785Y-56649523D01*
X47023785Y-56697142D01*
X47059500Y-56768571D01*
X47095214Y-56792380D01*
X47023785Y-57101904D02*
X47023785Y-57197142D01*
X47059500Y-57244761D01*
X47130928Y-57292380D01*
X47273785Y-57316190D01*
X47523785Y-57316190D01*
X47666642Y-57292380D01*
X47738071Y-57244761D01*
X47773785Y-57197142D01*
X47773785Y-57101904D01*
X47738071Y-57054285D01*
X47666642Y-57006666D01*
X47523785Y-56982857D01*
X47273785Y-56982857D01*
X47130928Y-57006666D01*
X47059500Y-57054285D01*
X47023785Y-57101904D01*
X47773785Y-57768571D02*
X47773785Y-57530476D01*
X47023785Y-57530476D01*
X47773785Y-58197142D02*
X47773785Y-57911428D01*
X47773785Y-58054285D02*
X47023785Y-58054285D01*
X47130928Y-58006666D01*
X47202357Y-57959047D01*
X47238071Y-57911428D01*
X50278071Y-41683857D02*
X50313785Y-41755285D01*
X50313785Y-41874333D01*
X50278071Y-41921952D01*
X50242357Y-41945761D01*
X50170928Y-41969571D01*
X50099500Y-41969571D01*
X50028071Y-41945761D01*
X49992357Y-41921952D01*
X49956642Y-41874333D01*
X49920928Y-41779095D01*
X49885214Y-41731476D01*
X49849500Y-41707666D01*
X49778071Y-41683857D01*
X49706642Y-41683857D01*
X49635214Y-41707666D01*
X49599500Y-41731476D01*
X49563785Y-41779095D01*
X49563785Y-41898142D01*
X49599500Y-41969571D01*
X50313785Y-42183857D02*
X49563785Y-42183857D01*
X49563785Y-42302904D01*
X49599500Y-42374333D01*
X49670928Y-42421952D01*
X49742357Y-42445761D01*
X49885214Y-42469571D01*
X49992357Y-42469571D01*
X50135214Y-42445761D01*
X50206642Y-42421952D01*
X50278071Y-42374333D01*
X50313785Y-42302904D01*
X50313785Y-42183857D01*
X50099500Y-42660047D02*
X50099500Y-42898142D01*
X50313785Y-42612428D02*
X49563785Y-42779095D01*
X50313785Y-42945761D01*
X50207857Y-56792380D02*
X50243571Y-56768571D01*
X50279285Y-56697142D01*
X50279285Y-56649523D01*
X50243571Y-56578095D01*
X50172142Y-56530476D01*
X50100714Y-56506666D01*
X49957857Y-56482857D01*
X49850714Y-56482857D01*
X49707857Y-56506666D01*
X49636428Y-56530476D01*
X49565000Y-56578095D01*
X49529285Y-56649523D01*
X49529285Y-56697142D01*
X49565000Y-56768571D01*
X49600714Y-56792380D01*
X49529285Y-57101904D02*
X49529285Y-57197142D01*
X49565000Y-57244761D01*
X49636428Y-57292380D01*
X49779285Y-57316190D01*
X50029285Y-57316190D01*
X50172142Y-57292380D01*
X50243571Y-57244761D01*
X50279285Y-57197142D01*
X50279285Y-57101904D01*
X50243571Y-57054285D01*
X50172142Y-57006666D01*
X50029285Y-56982857D01*
X49779285Y-56982857D01*
X49636428Y-57006666D01*
X49565000Y-57054285D01*
X49529285Y-57101904D01*
X50279285Y-57768571D02*
X50279285Y-57530476D01*
X49529285Y-57530476D01*
X49529285Y-58030476D02*
X49529285Y-58078095D01*
X49565000Y-58125714D01*
X49600714Y-58149523D01*
X49672142Y-58173333D01*
X49815000Y-58197142D01*
X49993571Y-58197142D01*
X50136428Y-58173333D01*
X50207857Y-58149523D01*
X50243571Y-58125714D01*
X50279285Y-58078095D01*
X50279285Y-58030476D01*
X50243571Y-57982857D01*
X50207857Y-57959047D01*
X50136428Y-57935238D01*
X49993571Y-57911428D01*
X49815000Y-57911428D01*
X49672142Y-57935238D01*
X49600714Y-57959047D01*
X49565000Y-57982857D01*
X49529285Y-58030476D01*
X32204428Y-57582619D02*
X32240142Y-57654047D01*
X32275857Y-57677857D01*
X32347285Y-57701666D01*
X32454428Y-57701666D01*
X32525857Y-57677857D01*
X32561571Y-57654047D01*
X32597285Y-57606428D01*
X32597285Y-57415952D01*
X31847285Y-57415952D01*
X31847285Y-57582619D01*
X31883000Y-57630238D01*
X31918714Y-57654047D01*
X31990142Y-57677857D01*
X32061571Y-57677857D01*
X32133000Y-57654047D01*
X32168714Y-57630238D01*
X32204428Y-57582619D01*
X32204428Y-57415952D01*
X31847285Y-58130238D02*
X31847285Y-58035000D01*
X31883000Y-57987380D01*
X31918714Y-57963571D01*
X32025857Y-57915952D01*
X32168714Y-57892142D01*
X32454428Y-57892142D01*
X32525857Y-57915952D01*
X32561571Y-57939761D01*
X32597285Y-57987380D01*
X32597285Y-58082619D01*
X32561571Y-58130238D01*
X32525857Y-58154047D01*
X32454428Y-58177857D01*
X32275857Y-58177857D01*
X32204428Y-58154047D01*
X32168714Y-58130238D01*
X32133000Y-58082619D01*
X32133000Y-57987380D01*
X32168714Y-57939761D01*
X32204428Y-57915952D01*
X32275857Y-57892142D01*
X32140928Y-42088619D02*
X32176642Y-42160047D01*
X32212357Y-42183857D01*
X32283785Y-42207666D01*
X32390928Y-42207666D01*
X32462357Y-42183857D01*
X32498071Y-42160047D01*
X32533785Y-42112428D01*
X32533785Y-41921952D01*
X31783785Y-41921952D01*
X31783785Y-42088619D01*
X31819500Y-42136238D01*
X31855214Y-42160047D01*
X31926642Y-42183857D01*
X31998071Y-42183857D01*
X32069500Y-42160047D01*
X32105214Y-42136238D01*
X32140928Y-42088619D01*
X32140928Y-41921952D01*
X31783785Y-42660047D02*
X31783785Y-42421952D01*
X32140928Y-42398142D01*
X32105214Y-42421952D01*
X32069500Y-42469571D01*
X32069500Y-42588619D01*
X32105214Y-42636238D01*
X32140928Y-42660047D01*
X32212357Y-42683857D01*
X32390928Y-42683857D01*
X32462357Y-42660047D01*
X32498071Y-42636238D01*
X32533785Y-42588619D01*
X32533785Y-42469571D01*
X32498071Y-42421952D01*
X32462357Y-42398142D01*
X34680928Y-42088619D02*
X34716642Y-42160047D01*
X34752357Y-42183857D01*
X34823785Y-42207666D01*
X34930928Y-42207666D01*
X35002357Y-42183857D01*
X35038071Y-42160047D01*
X35073785Y-42112428D01*
X35073785Y-41921952D01*
X34323785Y-41921952D01*
X34323785Y-42088619D01*
X34359500Y-42136238D01*
X34395214Y-42160047D01*
X34466642Y-42183857D01*
X34538071Y-42183857D01*
X34609500Y-42160047D01*
X34645214Y-42136238D01*
X34680928Y-42088619D01*
X34680928Y-41921952D01*
X34573785Y-42636238D02*
X35073785Y-42636238D01*
X34288071Y-42517190D02*
X34823785Y-42398142D01*
X34823785Y-42707666D01*
X34807928Y-57646119D02*
X34843642Y-57717547D01*
X34879357Y-57741357D01*
X34950785Y-57765166D01*
X35057928Y-57765166D01*
X35129357Y-57741357D01*
X35165071Y-57717547D01*
X35200785Y-57669928D01*
X35200785Y-57479452D01*
X34450785Y-57479452D01*
X34450785Y-57646119D01*
X34486500Y-57693738D01*
X34522214Y-57717547D01*
X34593642Y-57741357D01*
X34665071Y-57741357D01*
X34736500Y-57717547D01*
X34772214Y-57693738D01*
X34807928Y-57646119D01*
X34807928Y-57479452D01*
X34522214Y-57955642D02*
X34486500Y-57979452D01*
X34450785Y-58027071D01*
X34450785Y-58146119D01*
X34486500Y-58193738D01*
X34522214Y-58217547D01*
X34593642Y-58241357D01*
X34665071Y-58241357D01*
X34772214Y-58217547D01*
X35200785Y-57931833D01*
X35200785Y-58241357D01*
X37579285Y-41409047D02*
X37222142Y-41242380D01*
X37579285Y-41123333D02*
X36829285Y-41123333D01*
X36829285Y-41313809D01*
X36865000Y-41361428D01*
X36900714Y-41385238D01*
X36972142Y-41409047D01*
X37079285Y-41409047D01*
X37150714Y-41385238D01*
X37186428Y-41361428D01*
X37222142Y-41313809D01*
X37222142Y-41123333D01*
X36829285Y-41718571D02*
X36829285Y-41813809D01*
X36865000Y-41861428D01*
X36936428Y-41909047D01*
X37079285Y-41932857D01*
X37329285Y-41932857D01*
X37472142Y-41909047D01*
X37543571Y-41861428D01*
X37579285Y-41813809D01*
X37579285Y-41718571D01*
X37543571Y-41670952D01*
X37472142Y-41623333D01*
X37329285Y-41599523D01*
X37079285Y-41599523D01*
X36936428Y-41623333D01*
X36865000Y-41670952D01*
X36829285Y-41718571D01*
X36829285Y-42099523D02*
X37579285Y-42218571D01*
X37043571Y-42313809D01*
X37579285Y-42409047D01*
X36829285Y-42528095D01*
X36829285Y-42670952D02*
X36829285Y-42980476D01*
X37115000Y-42813809D01*
X37115000Y-42885238D01*
X37150714Y-42932857D01*
X37186428Y-42956666D01*
X37257857Y-42980476D01*
X37436428Y-42980476D01*
X37507857Y-42956666D01*
X37543571Y-42932857D01*
X37579285Y-42885238D01*
X37579285Y-42742380D01*
X37543571Y-42694761D01*
X37507857Y-42670952D01*
X37507857Y-56792380D02*
X37543571Y-56768571D01*
X37579285Y-56697142D01*
X37579285Y-56649523D01*
X37543571Y-56578095D01*
X37472142Y-56530476D01*
X37400714Y-56506666D01*
X37257857Y-56482857D01*
X37150714Y-56482857D01*
X37007857Y-56506666D01*
X36936428Y-56530476D01*
X36865000Y-56578095D01*
X36829285Y-56649523D01*
X36829285Y-56697142D01*
X36865000Y-56768571D01*
X36900714Y-56792380D01*
X36829285Y-57101904D02*
X36829285Y-57197142D01*
X36865000Y-57244761D01*
X36936428Y-57292380D01*
X37079285Y-57316190D01*
X37329285Y-57316190D01*
X37472142Y-57292380D01*
X37543571Y-57244761D01*
X37579285Y-57197142D01*
X37579285Y-57101904D01*
X37543571Y-57054285D01*
X37472142Y-57006666D01*
X37329285Y-56982857D01*
X37079285Y-56982857D01*
X36936428Y-57006666D01*
X36865000Y-57054285D01*
X36829285Y-57101904D01*
X37579285Y-57768571D02*
X37579285Y-57530476D01*
X36829285Y-57530476D01*
X36829285Y-58173333D02*
X36829285Y-57935238D01*
X37186428Y-57911428D01*
X37150714Y-57935238D01*
X37115000Y-57982857D01*
X37115000Y-58101904D01*
X37150714Y-58149523D01*
X37186428Y-58173333D01*
X37257857Y-58197142D01*
X37436428Y-58197142D01*
X37507857Y-58173333D01*
X37543571Y-58149523D01*
X37579285Y-58101904D01*
X37579285Y-57982857D01*
X37543571Y-57935238D01*
X37507857Y-57911428D01*
X40090285Y-41409047D02*
X39733142Y-41242380D01*
X40090285Y-41123333D02*
X39340285Y-41123333D01*
X39340285Y-41313809D01*
X39376000Y-41361428D01*
X39411714Y-41385238D01*
X39483142Y-41409047D01*
X39590285Y-41409047D01*
X39661714Y-41385238D01*
X39697428Y-41361428D01*
X39733142Y-41313809D01*
X39733142Y-41123333D01*
X39340285Y-41718571D02*
X39340285Y-41813809D01*
X39376000Y-41861428D01*
X39447428Y-41909047D01*
X39590285Y-41932857D01*
X39840285Y-41932857D01*
X39983142Y-41909047D01*
X40054571Y-41861428D01*
X40090285Y-41813809D01*
X40090285Y-41718571D01*
X40054571Y-41670952D01*
X39983142Y-41623333D01*
X39840285Y-41599523D01*
X39590285Y-41599523D01*
X39447428Y-41623333D01*
X39376000Y-41670952D01*
X39340285Y-41718571D01*
X39340285Y-42099523D02*
X40090285Y-42218571D01*
X39554571Y-42313809D01*
X40090285Y-42409047D01*
X39340285Y-42528095D01*
X39411714Y-42694761D02*
X39376000Y-42718571D01*
X39340285Y-42766190D01*
X39340285Y-42885238D01*
X39376000Y-42932857D01*
X39411714Y-42956666D01*
X39483142Y-42980476D01*
X39554571Y-42980476D01*
X39661714Y-42956666D01*
X40090285Y-42670952D01*
X40090285Y-42980476D01*
X40145857Y-56742380D02*
X40181571Y-56718571D01*
X40217285Y-56647142D01*
X40217285Y-56599523D01*
X40181571Y-56528095D01*
X40110142Y-56480476D01*
X40038714Y-56456666D01*
X39895857Y-56432857D01*
X39788714Y-56432857D01*
X39645857Y-56456666D01*
X39574428Y-56480476D01*
X39503000Y-56528095D01*
X39467285Y-56599523D01*
X39467285Y-56647142D01*
X39503000Y-56718571D01*
X39538714Y-56742380D01*
X39467285Y-57051904D02*
X39467285Y-57147142D01*
X39503000Y-57194761D01*
X39574428Y-57242380D01*
X39717285Y-57266190D01*
X39967285Y-57266190D01*
X40110142Y-57242380D01*
X40181571Y-57194761D01*
X40217285Y-57147142D01*
X40217285Y-57051904D01*
X40181571Y-57004285D01*
X40110142Y-56956666D01*
X39967285Y-56932857D01*
X39717285Y-56932857D01*
X39574428Y-56956666D01*
X39503000Y-57004285D01*
X39467285Y-57051904D01*
X40217285Y-57718571D02*
X40217285Y-57480476D01*
X39467285Y-57480476D01*
X39717285Y-58099523D02*
X40217285Y-58099523D01*
X39431571Y-57980476D02*
X39967285Y-57861428D01*
X39967285Y-58170952D01*
X42693785Y-41409047D02*
X42336642Y-41242380D01*
X42693785Y-41123333D02*
X41943785Y-41123333D01*
X41943785Y-41313809D01*
X41979500Y-41361428D01*
X42015214Y-41385238D01*
X42086642Y-41409047D01*
X42193785Y-41409047D01*
X42265214Y-41385238D01*
X42300928Y-41361428D01*
X42336642Y-41313809D01*
X42336642Y-41123333D01*
X41943785Y-41718571D02*
X41943785Y-41813809D01*
X41979500Y-41861428D01*
X42050928Y-41909047D01*
X42193785Y-41932857D01*
X42443785Y-41932857D01*
X42586642Y-41909047D01*
X42658071Y-41861428D01*
X42693785Y-41813809D01*
X42693785Y-41718571D01*
X42658071Y-41670952D01*
X42586642Y-41623333D01*
X42443785Y-41599523D01*
X42193785Y-41599523D01*
X42050928Y-41623333D01*
X41979500Y-41670952D01*
X41943785Y-41718571D01*
X41943785Y-42099523D02*
X42693785Y-42218571D01*
X42158071Y-42313809D01*
X42693785Y-42409047D01*
X41943785Y-42528095D01*
X42693785Y-42980476D02*
X42693785Y-42694761D01*
X42693785Y-42837619D02*
X41943785Y-42837619D01*
X42050928Y-42790000D01*
X42122357Y-42742380D01*
X42158071Y-42694761D01*
D10*
M02*
